SplineFontDB: 3.2
FontName: BudokanRounded-Bold
FullName: Budokan Rounded Bold
FamilyName: Budokan Rounded
Weight: Bold
Copyright: Copyright (c) 2019 by HENRIavecunK. All rights reserved.
Version: 1.00 2019
ItalicAngle: 0
UnderlinePosition: -100
UnderlineWidth: 50
Ascent: 835
Descent: 165
InvalidEm: 0
sfntRevision: 0x00010000
LayerCount: 2
Layer: 0 1 "Arri+AOgA-re" 1
Layer: 1 1 "Avant" 0
XUID: [1021 378 143806488 18701]
StyleMap: 0x0020
FSType: 4
OS2Version: 3
OS2_WeightWidthSlopeOnly: 0
OS2_UseTypoMetrics: 0
CreationTime: 1572055200
ModificationTime: 1656005062
PfmFamily: 81
TTFWeight: 700
TTFWidth: 5
LineGap: 0
VLineGap: 0
Panose: 0 0 0 0 0 0 0 0 0 0
OS2TypoAscent: 835
OS2TypoAOffset: 0
OS2TypoDescent: -165
OS2TypoDOffset: 0
OS2TypoLinegap: 235
OS2WinAscent: 960
OS2WinAOffset: 0
OS2WinDescent: 240
OS2WinDOffset: 0
HheadAscent: 952
HheadAOffset: 0
HheadDescent: -283
HheadDOffset: 0
OS2SubXSize: 700
OS2SubYSize: 650
OS2SubXOff: 0
OS2SubYOff: 140
OS2SupXSize: 700
OS2SupYSize: 650
OS2SupXOff: 0
OS2SupYOff: 477
OS2StrikeYSize: 50
OS2StrikeYPos: 250
OS2CapHeight: 800
OS2XHeight: 400
OS2Vendor: 'pyrs'
OS2CodePages: 20000111.40000000
OS2UnicodeRanges: 800000af.5000204a.00000000.00000000
Lookup: 258 0 0 "'kern' Cr+AOkA-nage horizontal dans Latin lookup 0" { "sous-table 'kern' Cr+AOkA-nage horizontal dans Latin lookup 0"  } ['kern' ('DFLT' <'dflt' > 'latn' <'dflt' > ) ]
DEI: 91125
TtTable: prep
PUSHW_1
 0
CALL
SVTCA[y-axis]
PUSHW_3
 1
 1
 2
CALL
SVTCA[x-axis]
PUSHW_3
 2
 3
 2
CALL
SVTCA[x-axis]
PUSHW_8
 2
 38
 34
 26
 19
 12
 0
 8
CALL
PUSHW_8
 3
 69
 57
 44
 32
 19
 0
 8
CALL
PUSHW_8
 4
 41
 34
 26
 19
 12
 0
 8
CALL
SVTCA[y-axis]
PUSHW_8
 1
 43
 34
 26
 19
 12
 0
 8
CALL
SVTCA[y-axis]
PUSHW_3
 5
 2
 7
CALL
PUSHW_1
 0
DUP
RCVT
RDTG
ROUND[Black]
RTG
WCVTP
EndTTInstrs
TtTable: fpgm
PUSHW_1
 0
FDEF
MPPEM
PUSHW_1
 9
LT
IF
PUSHB_2
 1
 1
INSTCTRL
EIF
PUSHW_1
 511
SCANCTRL
PUSHW_1
 68
SCVTCI
PUSHW_2
 9
 3
SDS
SDB
ENDF
PUSHW_1
 1
FDEF
DUP
DUP
RCVT
ROUND[Black]
WCVTP
PUSHB_1
 1

StartChar: Eth
Encoding: 208 208 4
Width: 599
Flags: W
LayerCount: 2
Fore
SplineSet
502 593 m 0,0,1
 516 565 516 565 523 537 c 0,2,3
 529 507 529 507 529 474 c 2,4,-1
 529 353 l 1,5,-1
 529 231 l 2,6,7
 529 199 529 199 523 169 c 0,8,9
 515 138 515 138 502 113 c 0,10,11
 490 88 490 88 469 66 c 0,12,13
 449 45 449 45 424 30 c 0,14,15
 400 16 400 16 368 8 c 256,16,17
 336 0 336 0 304 0 c 2,18,-1
 228 0 l 1,19,-1
 152 0 l 2,20,21
 125 0 125 0 106 19 c 0,22,23
 98 28 98 28 92.5 39.5 c 128,-1,24
 87 51 87 51 87 65 c 2,25,-1
 87 179 l 1,26,-1
 87 294 l 2,27,28
 87 297 87 297 85 301 c 0,29,30
 83 302 83 302 81 303 c 128,-1,31
 79 304 79 304 77 304 c 2,32,-1
 70 304 l 1,33,-1
 62 304 l 2,34,35
 36 304 36 304 18 322 c 256,36,37
 0 340 0 340 0 365 c 0,38,39
 0 391 0 391 18 409 c 256,40,41
 36 427 36 427 62 427 c 2,42,-1
 70 427 l 1,43,-1
 77 427 l 2,44,45
 82 427 82 427 85 430 c 0,46,47
 87 434 87 434 87 437 c 2,48,-1
 87 539 l 1,49,-1
 87 641 l 2,50,51
 87 655 87 655 92.5 666.5 c 128,-1,52
 98 678 98 678 106 687 c 0,53,54
 125 706 125 706 152 706 c 2,55,-1
 228 706 l 1,56,-1
 304 706 l 2,57,58
 336 706 336 706 368 698 c 256,59,60
 400 690 400 690 424 676 c 0,61,62
 449 661 449 661 469 640 c 0,63,64
 488 620 488 620 502 593 c 0,0,1
384 237 m 2,65,-1
 384 353 l 1,66,-1
 384 469 l 2,67,68
 384 481 384 481 382.5 491.5 c 128,-1,69
 381 502 381 502 379 512 c 0,70,71
 374 529 374 529 362 546 c 0,72,73
 356 553 356 553 349 558.5 c 128,-1,74
 342 564 342 564 334 567 c 0,75,76
 319 574 319 574 296 574 c 2,77,-1
 269 574 l 1,78,-1
 243 574 l 2,79,80
 237 574 237 574 236 571 c 0,81,82
 233 569 233 569 233 564 c 2,83,-1
 233 501 l 1,84,-1
 233 437 l 2,85,86
 233 433 233 433 236 430 c 0,87,88
 237 427 237 427 243 427 c 2,89,-1
 253 427 l 1,90,-1
 263 427 l 2,91,92
 289 427 289 427 307 409 c 256,93,94
 325 391 325 391 325 365 c 0,95,96
 325 340 325 340 307 322 c 256,97,98
 289 304 289 304 263 304 c 2,99,-1
 253 304 l 1,100,-1
 243 304 l 2,101,102
 239 304 239 304 236 301 c 256,103,104
 233 298 233 298 233 294 c 2,105,-1
 233 218 l 1,106,-1
 233 142 l 2,107,108
 233 137 233 137 236 134 c 0,109,110
 238 132 238 132 243 132 c 2,111,-1
 269 132 l 1,112,-1
 296 132 l 2,113,114
 319 132 319 132 334 139 c 0,115,116
 350 145 350 145 362 160 c 0,117,118
 374 177 374 177 379 194 c 0,119,120
 381 204 381 204 382.5 214.5 c 128,-1,121
 384 225 384 225 384 237 c 2,65,-1
EndSplineSet
EndChar

StartChar: eth
Encoding: 240 240 5
Width: 599
Flags: W
LayerCount: 2
Fore
SplineSet
502 593 m 0,0,1
 516 565 516 565 523 537 c 0,2,3
 529 507 529 507 529 474 c 2,4,-1
 529 353 l 1,5,-1
 529 231 l 2,6,7
 529 199 529 199 523 169 c 0,8,9
 515 138 515 138 502 113 c 0,10,11
 490 88 490 88 469 66 c 0,12,13
 449 45 449 45 424 30 c 0,14,15
 400 16 400 16 368 8 c 256,16,17
 336 0 336 0 304 0 c 2,18,-1
 228 0 l 1,19,-1
 152 0 l 2,20,21
 125 0 125 0 106 19 c 0,22,23
 98 28 98 28 92.5 39.5 c 128,-1,24
 87 51 87 51 87 65 c 2,25,-1
 87 179 l 1,26,-1
 87 294 l 2,27,28
 87 297 87 297 85 301 c 0,29,30
 83 302 83 302 81 303 c 128,-1,31
 79 304 79 304 77 304 c 2,32,-1
 70 304 l 1,33,-1
 62 304 l 2,34,35
 36 304 36 304 18 322 c 256,36,37
 0 340 0 340 0 365 c 0,38,39
 0 391 0 391 18 409 c 256,40,41
 36 427 36 427 62 427 c 2,42,-1
 70 427 l 1,43,-1
 77 427 l 2,44,45
 82 427 82 427 85 430 c 0,46,47
 87 434 87 434 87 437 c 2,48,-1
 87 539 l 1,49,-1
 87 641 l 2,50,51
 87 655 87 655 92.5 666.5 c 128,-1,52
 98 678 98 678 106 687 c 0,53,54
 125 706 125 706 152 706 c 2,55,-1
 228 706 l 1,56,-1
 304 706 l 2,57,58
 336 706 336 706 368 698 c 256,59,60
 400 690 400 690 424 676 c 0,61,62
 449 661 449 661 469 640 c 0,63,64
 488 620 488 620 502 593 c 0,0,1
384 237 m 2,65,-1
 384 353 l 1,66,-1
 384 469 l 2,67,68
 384 481 384 481 382.5 491.5 c 128,-1,69
 381 502 381 502 379 512 c 0,70,71
 374 529 374 529 362 546 c 0,72,73
 356 553 356 553 349 558.5 c 128,-1,74
 342 564 342 564 334 567 c 0,75,76
 319 574 319 574 296 574 c 2,77,-1
 269 574 l 1,78,-1
 243 574 l 2,79,80
 237 574 237 574 236 571 c 0,81,82
 233 569 233 569 233 564 c 2,83,-1
 233 501 l 1,84,-1
 233 437 l 2,85,86
 233 433 233 433 236 430 c 0,87,88
 237 427 237 427 243 427 c 2,89,-1
 253 427 l 1,90,-1
 263 427 l 2,91,92
 289 427 289 427 307 409 c 256,93,94
 325 391 325 391 325 365 c 0,95,96
 325 340 325 340 307 322 c 256,97,98
 289 304 289 304 263 304 c 2,99,-1
 253 304 l 1,100,-1
 243 304 l 2,101,102
 239 304 239 304 236 301 c 256,103,104
 233 298 233 298 233 294 c 2,105,-1
 233 218 l 1,106,-1
 233 142 l 2,107,108
 233 137 233 137 236 134 c 0,109,110
 238 132 238 132 243 132 c 2,111,-1
 269 132 l 1,112,-1
 296 132 l 2,113,114
 319 132 319 132 334 139 c 0,115,116
 350 145 350 145 362 160 c 0,117,118
 374 177 374 177 379 194 c 0,119,120
 381 204 381 204 382.5 214.5 c 128,-1,121
 384 225 384 225 384 237 c 2,65,-1
EndSplineSet
EndChar

StartChar: Lslash
Encoding: 321 321 6
Width: 529
Flags: W
LayerCount: 2
Fore
SplineSet
404 130 m 2,0,1
 418 130 418 130 429.5 124.5 c 128,-1,2
 441 119 441 119 450 111 c 0,3,4
 458 102 458 102 463.5 90.5 c 128,-1,5
 469 79 469 79 469 65 c 256,6,7
 469 51 469 51 463.5 39.5 c 128,-1,8
 458 28 458 28 450 19 c 0,9,10
 431 0 431 0 404 0 c 2,11,-1
 281 0 l 1,12,-1
 158 0 l 2,13,14
 131 0 131 0 112 19 c 256,15,16
 93 38 93 38 93 65 c 2,17,-1
 93 147 l 1,18,-1
 93 229 l 2,19,20
 93 232 93 232 90 234 c 0,21,22
 88 236 88 236 85 234 c 2,23,-1
 83 234 l 1,24,-1
 82 233 l 1,25,26
 53 218 53 218 27 234 c 0,27,28
 15 241 15 241 7.5 253.5 c 128,-1,29
 0 266 0 266 0 282 c 0,30,31
 0 296 0 296 8 310 c 0,32,33
 16 323 16 323 29 330 c 2,34,-1
 55 344 l 1,35,-1
 82 358 l 2,36,37
 87 361 87 361 90 366 c 0,38,39
 93 372 93 372 93 377 c 2,40,-1
 93 509 l 1,41,-1
 93 641 l 2,42,43
 93 668 93 668 112 687 c 256,44,45
 131 706 131 706 158 706 c 2,46,-1
 166 706 l 1,47,-1
 173 706 l 2,48,49
 202 706 202 706 219 687 c 0,50,51
 238 668 238 668 238 641 c 2,52,-1
 238 547 l 1,53,-1
 238 454 l 2,54,55
 238 450 238 450 242 448 c 256,56,57
 246 446 246 446 249 448 c 2,58,-1
 272 460 l 1,59,-1
 296 473 l 2,60,61
 310 481 310 481 324.5 480 c 128,-1,62
 339 479 339 479 351 472 c 0,63,64
 357 468 357 468 361.5 460 c 128,-1,65
 366 452 366 452 370 444 c 0,66,67
 374 434 374 434 378 424 c 1,68,69
 378 409 378 409 370 396 c 0,70,71
 362 382 362 382 349 376 c 2,72,-1
 299 349 l 1,73,-1
 250 322 l 2,74,75
 245 321 245 321 241 315 c 0,76,77
 238 309 238 309 238 304 c 2,78,-1
 238 222 l 1,79,-1
 238 140 l 2,80,81
 238 135 238 135 241 132 c 0,82,83
 245 130 245 130 248 130 c 2,84,-1
 326 130 l 1,85,-1
 404 130 l 2,0,1
EndSplineSet
EndChar

StartChar: lslash
Encoding: 322 322 7
Width: 529
Flags: W
LayerCount: 2
Fore
SplineSet
404 130 m 2,0,1
 418 130 418 130 429.5 124.5 c 128,-1,2
 441 119 441 119 450 111 c 0,3,4
 458 102 458 102 463.5 90.5 c 128,-1,5
 469 79 469 79 469 65 c 256,6,7
 469 51 469 51 463.5 39.5 c 128,-1,8
 458 28 458 28 450 19 c 0,9,10
 431 0 431 0 404 0 c 2,11,-1
 281 0 l 1,12,-1
 158 0 l 2,13,14
 131 0 131 0 112 19 c 256,15,16
 93 38 93 38 93 65 c 2,17,-1
 93 147 l 1,18,-1
 93 229 l 2,19,20
 93 232 93 232 90 234 c 0,21,22
 88 236 88 236 85 234 c 2,23,-1
 83 234 l 1,24,-1
 82 233 l 1,25,26
 53 218 53 218 27 234 c 0,27,28
 15 241 15 241 7.5 253.5 c 128,-1,29
 0 266 0 266 0 282 c 0,30,31
 0 296 0 296 8 310 c 0,32,33
 16 323 16 323 29 330 c 2,34,-1
 55 344 l 1,35,-1
 82 358 l 2,36,37
 87 361 87 361 90 366 c 0,38,39
 93 372 93 372 93 377 c 2,40,-1
 93 509 l 1,41,-1
 93 641 l 2,42,43
 93 668 93 668 112 687 c 256,44,45
 131 706 131 706 158 706 c 2,46,-1
 166 706 l 1,47,-1
 173 706 l 2,48,49
 202 706 202 706 219 687 c 0,50,51
 238 668 238 668 238 641 c 2,52,-1
 238 547 l 1,53,-1
 238 454 l 2,54,55
 238 450 238 450 242 448 c 256,56,57
 246 446 246 446 249 448 c 2,58,-1
 272 460 l 1,59,-1
 296 473 l 2,60,61
 310 481 310 481 324.5 480 c 128,-1,62
 339 479 339 479 351 472 c 0,63,64
 357 468 357 468 361.5 460 c 128,-1,65
 366 452 366 452 370 444 c 0,66,67
 374 434 374 434 378 424 c 1,68,69
 378 409 378 409 370 396 c 0,70,71
 362 382 362 382 349 376 c 2,72,-1
 299 349 l 1,73,-1
 250 322 l 2,74,75
 245 321 245 321 241 315 c 0,76,77
 238 309 238 309 238 304 c 2,78,-1
 238 222 l 1,79,-1
 238 140 l 2,80,81
 238 135 238 135 241 132 c 0,82,83
 245 130 245 130 248 130 c 2,84,-1
 326 130 l 1,85,-1
 404 130 l 2,0,1
EndSplineSet
EndChar

StartChar: Thorn
Encoding: 222 222 14
Width: 514
Flags: W
LayerCount: 2
Fore
SplineSet
414 476 m 0,0,1
 429 453 429 453 437 425 c 0,2,3
 444 398 444 398 444 365 c 0,4,5
 444 333 444 333 437 306 c 0,6,7
 429 278 429 278 414 255 c 0,8,9
 402 233 402 233 379 212 c 0,10,11
 369 203 369 203 358 195 c 128,-1,12
 347 187 347 187 334 181 c 0,13,14
 321 174 321 174 307.5 169.5 c 128,-1,15
 294 165 294 165 280 161 c 0,16,17
 251 155 251 155 220 155 c 2,18,-1
 188 155 l 1,19,-1
 155 155 l 2,20,21
 151 155 151 155 148 152 c 256,22,23
 145 149 145 149 145 145 c 2,24,-1
 145 129 l 1,25,-1
 145 113 l 1,26,-1
 145 93 l 1,27,-1
 145 73 l 2,28,29
 145 42 145 42 124 21 c 256,30,31
 103 0 103 0 73 0 c 0,32,33
 42 0 42 0 21 21 c 256,34,35
 0 42 0 42 0 73 c 2,36,-1
 0 93 l 1,37,-1
 0 113 l 1,38,-1
 0 312 l 1,39,-1
 0 511 l 1,40,-1
 0 572 l 1,41,-1
 0 633 l 2,42,43
 0 662 0 662 21 685 c 0,44,45
 42 706 42 706 73 706 c 0,46,47
 103 706 103 706 124 685 c 0,48,49
 145 662 145 662 145 633 c 2,50,-1
 145 610 l 1,51,-1
 145 586 l 2,52,53
 145 582 145 582 148 579 c 256,54,55
 151 576 151 576 155 576 c 2,56,-1
 188 576 l 1,57,-1
 220 576 l 2,58,59
 251 576 251 576 280 570 c 0,60,61
 294 566 294 566 307.5 561.5 c 128,-1,62
 321 557 321 557 334 550 c 0,63,64
 347 544 347 544 358 536 c 128,-1,65
 369 528 369 528 379 519 c 0,66,67
 402 498 402 498 414 476 c 0,0,1
275 305 m 0,68,69
 287 316 287 316 293 330 c 0,70,71
 299 346 299 346 299 365 c 0,72,73
 299 385 299 385 293 400 c 0,74,75
 288 415 288 415 275 426 c 0,76,77
 263 437 263 437 247 441 c 0,78,79
 232 447 232 447 213 447 c 2,80,-1
 184 447 l 1,81,-1
 155 447 l 2,82,83
 151 447 151 447 148 444 c 256,84,85
 145 441 145 441 145 437 c 2,86,-1
 145 365 l 1,87,-1
 145 294 l 2,88,89
 145 290 145 290 148 287 c 256,90,91
 151 284 151 284 155 284 c 2,92,-1
 184 284 l 1,93,-1
 213 284 l 2,94,95
 230 284 230 284 247 289 c 0,96,97
 264 295 264 295 275 305 c 0,68,69
EndSplineSet
EndChar

StartChar: thorn
Encoding: 254 254 15
Width: 514
Flags: W
LayerCount: 2
Fore
SplineSet
414 476 m 0,0,1
 429 453 429 453 437 425 c 0,2,3
 444 398 444 398 444 365 c 0,4,5
 444 333 444 333 437 306 c 0,6,7
 429 278 429 278 414 255 c 0,8,9
 402 233 402 233 379 212 c 0,10,11
 369 203 369 203 358 195 c 128,-1,12
 347 187 347 187 334 181 c 0,13,14
 321 174 321 174 307.5 169.5 c 128,-1,15
 294 165 294 165 280 161 c 0,16,17
 251 155 251 155 220 155 c 2,18,-1
 188 155 l 1,19,-1
 155 155 l 2,20,21
 151 155 151 155 148 152 c 256,22,23
 145 149 145 149 145 145 c 2,24,-1
 145 129 l 1,25,-1
 145 113 l 1,26,-1
 145 93 l 1,27,-1
 145 73 l 2,28,29
 145 42 145 42 124 21 c 256,30,31
 103 0 103 0 73 0 c 0,32,33
 42 0 42 0 21 21 c 256,34,35
 0 42 0 42 0 73 c 2,36,-1
 0 93 l 1,37,-1
 0 113 l 1,38,-1
 0 312 l 1,39,-1
 0 511 l 1,40,-1
 0 572 l 1,41,-1
 0 633 l 2,42,43
 0 662 0 662 21 685 c 0,44,45
 42 706 42 706 73 706 c 0,46,47
 103 706 103 706 124 685 c 0,48,49
 145 662 145 662 145 633 c 2,50,-1
 145 610 l 1,51,-1
 145 586 l 2,52,53
 145 582 145 582 148 579 c 256,54,55
 151 576 151 576 155 576 c 2,56,-1
 188 576 l 1,57,-1
 220 576 l 2,58,59
 251 576 251 576 280 570 c 0,60,61
 294 566 294 566 307.5 561.5 c 128,-1,62
 321 557 321 557 334 550 c 0,63,64
 347 544 347 544 358 536 c 128,-1,65
 369 528 369 528 379 519 c 0,66,67
 402 498 402 498 414 476 c 0,0,1
275 305 m 0,68,69
 287 316 287 316 293 330 c 0,70,71
 299 346 299 346 299 365 c 0,72,73
 299 385 299 385 293 400 c 0,74,75
 288 415 288 415 275 426 c 0,76,77
 263 437 263 437 247 441 c 0,78,79
 232 447 232 447 213 447 c 2,80,-1
 184 447 l 1,81,-1
 155 447 l 2,82,83
 151 447 151 447 148 444 c 256,84,85
 145 441 145 441 145 437 c 2,86,-1
 145 365 l 1,87,-1
 145 294 l 2,88,89
 145 290 145 290 148 287 c 256,90,91
 151 284 151 284 155 284 c 2,92,-1
 184 284 l 1,93,-1
 213 284 l 2,94,95
 230 284 230 284 247 289 c 0,96,97
 264 295 264 295 275 305 c 0,68,69
EndSplineSet
EndChar

StartChar: minus
Encoding: 8722 8722 30
Width: 650
Flags: W
LayerCount: 2
Fore
SplineSet
0 364 m 256,0,1
 0 390 0 390 18 408 c 0,2,3
 37 427 37 427 62 427 c 2,4,-1
 404 427 l 1,5,-1
 536 427 l 2,6,7
 562 427 562 427 581 408 c 0,8,9
 599 390 599 390 599 364 c 256,10,11
 599 338 599 338 581 320 c 0,12,13
 561 302 561 302 536 302 c 2,14,-1
 404 302 l 1,15,-1
 62 302 l 2,16,17
 38 302 38 302 18 320 c 0,18,19
 0 338 0 338 0 364 c 256,0,1
EndSplineSet
EndChar

StartChar: multiply
Encoding: 215 215 31
Width: 511
Flags: W
LayerCount: 2
Fore
SplineSet
316 319 m 2,0,1
 311 314 311 314 311 309 c 0,2,3
 311 303 311 303 316 298 c 2,4,-1
 369 245 l 1,5,-1
 423 191 l 2,6,7
 439 173 439 173 441 149 c 0,8,9
 441 125 441 125 424 106 c 0,10,11
 416 98 416 98 404 93 c 256,12,13
 392 88 392 88 381 88 c 0,14,15
 371 88 371 88 359 93 c 0,16,17
 348 97 348 97 339 106 c 2,18,-1
 285 160 l 1,19,-1
 231 214 l 2,20,21
 227 218 227 218 220 218 c 0,22,23
 214 218 214 218 210 214 c 2,24,-1
 156 160 l 1,25,-1
 102 106 l 2,26,27
 84 88 84 88 60 88 c 0,28,29
 35 88 35 88 17 106 c 0,30,31
 0 123 0 123 0 148 c 256,32,33
 0 173 0 173 17 190 c 2,34,-1
 71 244 l 1,35,-1
 125 298 l 2,36,37
 130 303 130 303 130 309 c 0,38,39
 130 314 130 314 125 319 c 2,40,-1
 71 373 l 1,41,-1
 17 427 l 2,42,43
 0 446 0 446 0 470 c 0,44,45
 0 493 0 493 17 512 c 0,46,47
 36 529 36 529 60 529 c 0,48,49
 83 529 83 529 102 512 c 2,50,-1
 156 458 l 1,51,-1
 210 404 l 2,52,53
 214 400 214 400 220 400 c 0,54,55
 227 400 227 400 231 404 c 2,56,-1
 285 458 l 1,57,-1
 339 512 l 2,58,59
 356 529 356 529 382 529 c 0,60,61
 406 529 406 529 424 511 c 0,62,63
 441 492 441 492 441 469 c 0,64,65
 439 443 439 443 423 427 c 2,66,-1
 369 373 l 1,67,-1
 316 319 l 2,0,1
EndSplineSet
EndChar

StartChar: exclam
Encoding: 33 33 34
Width: 250
Flags: W
LayerCount: 2
Fore
SplineSet
154 256 m 2,0,1
 151 230 151 230 133 214 c 256,2,3
 115 198 115 198 90 198 c 256,4,5
 65 198 65 198 47 214 c 0,6,7
 39 222 39 222 33.5 233 c 128,-1,8
 28 244 28 244 27 256 c 2,9,-1
 14 432 l 1,10,-1
 0 608 l 2,11,12
 -3 648 -3 648 24 677 c 0,13,14
 50 706 50 706 90 706 c 256,15,16
 130 706 130 706 156 677 c 0,17,18
 183 648 183 648 180 608 c 2,19,-1
 167 432 l 1,20,-1
 154 256 l 2,0,1
152 138 m 256,21,22
 164 127 164 127 171 110 c 0,23,24
 177 95 177 95 177 77 c 0,25,26
 177 58 177 58 171 43 c 0,27,28
 164 26 164 26 152 15 c 0,29,30
 140 3 140 3 124 -4 c 0,31,32
 109 -10 109 -10 90 -10 c 256,33,34
 71 -10 71 -10 56 -4 c 0,35,36
 39 3 39 3 28 15 c 0,37,38
 15 28 15 28 9 43 c 256,39,40
 3 58 3 58 3 77 c 0,41,42
 3 95 3 95 9 110 c 256,43,44
 15 125 15 125 28 138 c 0,45,46
 39 149 39 149 56 157 c 0,47,48
 71 163 71 163 90 163 c 256,49,50
 109 163 109 163 124 157 c 0,51,52
 140 149 140 149 152 138 c 256,21,22
EndSplineSet
EndChar

StartChar: quotedbl
Encoding: 34 34 35
Width: 319
Flags: W
LayerCount: 2
Fore
SplineSet
263 682 m 0,0,1
 281 660 281 660 276 632 c 1,2,-1
 276 631 l 1,3,-1
 244 460 l 2,4,5
 241 443 241 443 227 430 c 0,6,7
 214 420 214 420 197 420 c 2,8,-1
 193 420 l 2,9,10
 174 422 174 422 162 435 c 0,11,12
 149 448 149 448 149 467 c 2,13,-1
 148 641 l 2,14,15
 148 669 148 669 169 688 c 0,16,17
 187 706 187 706 213 706 c 2,18,-1
 217 706 l 2,19,20
 245 703 245 703 263 682 c 0,0,1
111 682 m 0,21,22
 129 660 129 660 124 632 c 1,23,-1
 124 631 l 1,24,-1
 92 460 l 2,25,26
 89 443 89 443 75 430 c 0,27,28
 62 420 62 420 45 420 c 2,29,-1
 41 420 l 2,30,31
 22 422 22 422 10 435 c 0,32,33
 -3 448 -3 448 -3 467 c 2,34,-1
 -4 641 l 2,35,36
 -4 669 -4 669 17 688 c 0,37,38
 35 706 35 706 60 706 c 2,39,-1
 65 706 l 2,40,41
 93 703 93 703 111 682 c 0,21,22
EndSplineSet
EndChar

StartChar: numbersign
Encoding: 35 35 36
Width: 587
Flags: W
LayerCount: 2
Fore
SplineSet
516 483 m 0,0,1
 513 468 513 468 500 457 c 0,2,3
 487 447 487 447 471 447 c 2,4,-1
 450 447 l 1,5,-1
 430 447 l 2,6,7
 426 447 426 447 424 445 c 256,8,9
 422 443 422 443 420 439 c 2,10,-1
 404 356 l 1,11,-1
 387 273 l 2,12,13
 385 268 385 268 389 265 c 0,14,15
 392 261 392 261 397 261 c 2,16,-1
 407 261 l 1,17,-1
 417 261 l 2,18,19
 439 261 439 261 454 244 c 0,20,21
 467 226 467 226 463 205 c 0,22,23
 460 190 460 190 447 178 c 0,24,25
 436 168 436 168 417 168 c 2,26,-1
 396 168 l 1,27,-1
 374 168 l 2,28,29
 371 168 371 168 368 165 c 0,30,31
 366 164 366 164 364 160 c 2,32,-1
 352 100 l 1,33,-1
 340 41 l 2,34,35
 337 24 337 24 322 12 c 0,36,37
 308 0 308 0 290 0 c 0,38,39
 266 0 266 0 250 19 c 0,40,41
 235 37 235 37 240 61 c 2,42,-1
 250 108 l 1,43,-1
 259 156 l 2,44,45
 260 160 260 160 257 164 c 0,46,47
 253 168 253 168 249 168 c 2,48,-1
 220 168 l 1,49,-1
 191 168 l 2,50,51
 186 168 186 168 185 165 c 0,52,53
 183 164 183 164 181 160 c 2,54,-1
 169 100 l 1,55,-1
 157 41 l 2,56,57
 152 22 152 22 139 12 c 0,58,59
 125 0 125 0 107 0 c 0,60,61
 81 0 81 0 67 19 c 0,62,63
 60 27 60 27 57 38 c 128,-1,64
 54 49 54 49 57 61 c 2,65,-1
 66 108 l 1,66,-1
 76 156 l 2,67,68
 77 160 77 160 74 164 c 0,69,70
 70 168 70 168 66 168 c 2,71,-1
 56 168 l 1,72,-1
 47 168 l 2,73,74
 24 168 24 168 10 185 c 0,75,76
 -3 202 -3 202 1 224 c 0,77,78
 4 240 4 240 17 250 c 0,79,80
 30 261 30 261 47 261 c 2,81,-1
 68 261 l 1,82,-1
 89 261 l 2,83,84
 93 261 93 261 95 263 c 256,85,86
 97 265 97 265 99 269 c 2,87,-1
 115 352 l 1,88,-1
 132 435 l 2,89,90
 133 439 133 439 130 443 c 0,91,92
 126 447 126 447 122 447 c 2,93,-1
 111 447 l 1,94,-1
 100 447 l 2,95,96
 89 447 89 447 79.5 451.5 c 128,-1,97
 70 456 70 456 64 464 c 0,98,99
 49 482 49 482 55 504 c 0,100,101
 58 519 58 519 71 530 c 0,102,103
 84 540 84 540 100 540 c 2,104,-1
 123 540 l 1,105,-1
 146 540 l 2,106,107
 148 540 148 540 152 542 c 0,108,109
 154 544 154 544 156 548 c 2,110,-1
 167 606 l 1,111,-1
 179 665 l 2,112,113
 182 682 182 682 197 694 c 0,114,115
 210 706 210 706 229 706 c 0,116,117
 241 706 241 706 251 700.5 c 128,-1,118
 261 695 261 695 269 687 c 0,119,120
 284 669 284 669 279 645 c 2,121,-1
 270 598 l 1,122,-1
 261 552 l 2,123,124
 259 547 259 547 263 544 c 0,125,126
 267 540 267 540 270 540 c 2,127,-1
 300 540 l 1,128,-1
 329 540 l 2,129,130
 333 540 333 540 335 542 c 256,131,132
 337 544 337 544 339 548 c 2,133,-1
 351 606 l 1,134,-1
 362 665 l 2,135,136
 367 684 367 684 380 694 c 0,137,138
 393 706 393 706 412 706 c 0,139,140
 425 706 425 706 435 700.5 c 128,-1,141
 445 695 445 695 452 687 c 256,142,143
 459 679 459 679 462 667.5 c 128,-1,144
 465 656 465 656 463 645 c 2,145,-1
 453 598 l 1,146,-1
 444 552 l 2,147,148
 442 547 442 547 446 544 c 0,149,150
 450 540 450 540 454 540 c 2,151,-1
 462 540 l 1,152,-1
 471 540 l 2,153,154
 493 540 493 540 507 523 c 0,155,156
 522 505 522 505 516 483 c 0,0,1
315 435 m 2,157,158
 316 439 316 439 313 443 c 0,159,160
 309 447 309 447 305 447 c 2,161,-1
 276 447 l 1,162,-1
 247 447 l 2,163,164
 244 447 244 447 240 445 c 0,165,166
 239 443 239 443 238 442 c 128,-1,167
 237 441 237 441 237 439 c 2,168,-1
 220 356 l 1,169,-1
 204 273 l 2,170,171
 202 268 202 268 206 265 c 0,172,173
 209 261 209 261 214 261 c 2,174,-1
 243 261 l 1,175,-1
 272 261 l 2,176,177
 275 261 275 261 279 263 c 0,178,179
 280 265 280 265 281 266 c 128,-1,180
 282 267 282 267 282 269 c 2,181,-1
 299 352 l 1,182,-1
 315 435 l 2,157,158
EndSplineSet
EndChar

StartChar: dollar
Encoding: 36 36 37
Width: 523
Flags: W
LayerCount: 2
Fore
SplineSet
406 337 m 0,0,1
 442 296 442 296 450 240 c 0,2,3
 455 212 455 212 452 185 c 128,-1,4
 449 158 449 158 441 132 c 0,5,6
 426 83 426 83 389 48 c 0,7,8
 371 31 371 31 349.5 18.5 c 128,-1,9
 328 6 328 6 304 -2 c 0,10,11
 300 -4 300 -4 299 -5 c 0,12,13
 297 -9 297 -9 297 -11 c 2,14,-1
 297 -28 l 1,15,-1
 297 -44 l 2,16,17
 297 -74 297 -74 276 -95 c 0,18,19
 256 -117 256 -117 225 -117 c 0,20,21
 193 -117 193 -117 173 -95 c 0,22,23
 152 -74 152 -74 152 -44 c 2,24,-1
 152 -28 l 1,25,-1
 152 -12 l 2,26,27
 152 -10 152 -10 150 -6 c 0,28,29
 149 -4 149 -4 145 -2 c 0,30,31
 124 4 124 4 107 13 c 0,32,33
 87 23 87 23 72 34 c 0,34,35
 52 48 52 48 35 70 c 0,36,37
 19 91 19 91 9 112 c 0,38,39
 1 129 1 129 3 146.5 c 128,-1,40
 5 164 5 164 14 178 c 256,41,42
 23 192 23 192 38.5 201 c 128,-1,43
 54 210 54 210 73 210 c 0,44,45
 93 210 93 210 110 199 c 0,46,47
 128 188 128 188 135 170 c 0,48,49
 137 166 137 166 139.5 162.5 c 128,-1,50
 142 159 142 159 145 155 c 0,51,52
 147 150 147 150 150.5 146.5 c 128,-1,53
 154 143 154 143 158 139 c 0,54,55
 174 125 174 125 194.5 119 c 128,-1,56
 215 113 215 113 236 115 c 256,57,58
 257 117 257 117 275 128 c 128,-1,59
 293 139 293 139 303 159 c 0,60,61
 315 184 315 184 312.5 204 c 128,-1,62
 310 224 310 224 298 241 c 256,63,64
 286 258 286 258 266.5 269.5 c 128,-1,65
 247 281 247 281 226 288 c 0,66,67
 192 300 192 300 157 313 c 128,-1,68
 122 326 122 326 92 345 c 0,69,70
 61 365 61 365 38.5 391.5 c 128,-1,71
 16 418 16 418 6 458 c 0,72,73
 -4 501 -4 501 2 540.5 c 128,-1,74
 8 580 8 580 27 613 c 256,75,76
 46 646 46 646 76.5 670.5 c 128,-1,77
 107 695 107 695 145 708 c 0,78,79
 149 710 149 710 150 712 c 0,80,81
 152 714 152 714 152 717 c 2,82,-1
 152 735 l 1,83,-1
 152 753 l 2,84,85
 152 782 152 782 173 805 c 0,86,87
 194 826 194 826 225 826 c 0,88,89
 255 826 255 826 276 805 c 0,90,91
 297 782 297 782 297 753 c 2,92,-1
 297 735 l 1,93,-1
 297 716 l 2,94,95
 297 714 297 714 299 710 c 0,96,97
 300 708 300 708 304 706 c 0,98,99
 337 696 337 696 367 674 c 0,100,101
 396 653 396 653 414 624 c 0,102,103
 425 606 425 606 425 587 c 128,-1,104
 425 568 425 568 417 552 c 0,105,106
 408 536 408 536 392 525.5 c 128,-1,107
 376 515 376 515 355 515 c 2,108,-1
 354 515 l 2,109,110
 336 515 336 515 319 525 c 256,111,112
 302 535 302 535 294 550 c 0,113,114
 291 554 291 554 288 558 c 128,-1,115
 285 562 285 562 282 566 c 0,116,117
 278 570 278 570 274 573.5 c 128,-1,118
 270 577 270 577 265 581 c 0,119,120
 244 595 244 595 220 593.5 c 128,-1,121
 196 592 196 592 176 580 c 0,122,123
 157 568 157 568 146.5 547 c 128,-1,124
 136 526 136 526 143 500 c 0,125,126
 148 480 148 480 161 467.5 c 128,-1,127
 174 455 174 455 191 446 c 256,128,129
 208 437 208 437 227 431 c 128,-1,130
 246 425 246 425 263 419 c 0,131,132
 283 412 283 412 302.5 404.5 c 128,-1,133
 322 397 322 397 340 387 c 256,134,135
 358 377 358 377 375 365 c 128,-1,136
 392 353 392 353 406 337 c 0,0,1
EndSplineSet
EndChar

StartChar: percent
Encoding: 37 37 38
Width: 726
Flags: W
LayerCount: 2
Fore
SplineSet
456 677 m 2,0,1
 462 689 462 689 474 696 c 0,2,3
 485 703 485 703 500 703 c 0,4,5
 531 703 531 703 544 678 c 0,6,7
 551 667 551 667 551.5 653.5 c 128,-1,8
 552 640 552 640 545 627 c 2,9,-1
 376 325 l 1,10,-1
 207 24 l 2,11,12
 198 10 198 10 188 5 c 0,13,14
 177 -2 177 -2 162 -2 c 256,15,16
 147 -2 147 -2 136 5 c 128,-1,17
 125 12 125 12 118 23 c 256,18,19
 111 34 111 34 110.5 47.5 c 128,-1,20
 110 61 110 61 117 74 c 2,21,-1
 287 376 l 1,22,-1
 456 677 l 2,0,1
238 676 m 0,23,24
 247 671 247 671 255 665 c 128,-1,25
 263 659 263 659 271 652 c 0,26,27
 284 639 284 639 295 620 c 0,28,29
 300 611 300 611 304.5 601.5 c 128,-1,30
 309 592 309 592 311 581 c 0,31,32
 314 571 314 571 315 560 c 128,-1,33
 316 549 316 549 316 538 c 256,34,35
 316 527 316 527 315 516 c 128,-1,36
 314 505 314 505 311 494 c 0,37,38
 309 484 309 484 304.5 474.5 c 128,-1,39
 300 465 300 465 295 455 c 0,40,41
 284 436 284 436 271 423 c 0,42,43
 256 408 256 408 238 399 c 0,44,45
 220 389 220 389 200 384 c 0,46,47
 190 381 190 381 179.5 380 c 128,-1,48
 169 379 169 379 158 379 c 256,49,50
 147 379 147 379 136.5 380 c 128,-1,51
 126 381 126 381 115 384 c 0,52,53
 95 389 95 389 77 399 c 0,54,55
 68 404 68 404 60 410 c 128,-1,56
 52 416 52 416 45 423 c 0,57,58
 37 431 37 431 31 438.5 c 128,-1,59
 25 446 25 446 20 456 c 0,60,61
 11 474 11 474 5 495 c 0,62,63
 0 517 0 517 0 538 c 256,64,65
 0 559 0 559 5 581 c 0,66,67
 11 602 11 602 20 620 c 0,68,69
 32 640 32 640 45 652 c 0,70,71
 52 659 52 659 60 665 c 128,-1,72
 68 671 68 671 77 676 c 0,73,74
 93 685 93 685 115 692 c 0,75,76
 138 697 138 697 158 697 c 256,77,78
 178 697 178 697 200 692 c 0,79,80
 222 685 222 685 238 676 c 0,23,24
116 586 m 0,81,82
 108 577 108 577 104 565 c 0,83,84
 100 554 100 554 100 538 c 256,85,86
 100 522 100 522 104 511 c 0,87,88
 109 497 109 497 116 489 c 256,89,90
 123 481 123 481 134 476 c 0,91,92
 143 472 143 472 158 472 c 256,93,94
 173 472 173 472 182 476 c 0,95,96
 193 481 193 481 200 489 c 0,97,98
 209 498 209 498 212 511 c 0,99,100
 216 522 216 522 216 538 c 256,101,102
 216 554 216 554 212 565 c 0,103,104
 209 577 209 577 200 586 c 0,105,106
 192 596 192 596 182 600 c 0,107,108
 173 604 173 604 158 604 c 256,109,110
 143 604 143 604 134 600 c 0,111,112
 124 596 124 596 116 586 c 0,81,82
636 241 m 256,113,114
 641 232 641 232 645 223 c 128,-1,115
 649 214 649 214 651 203 c 0,116,117
 654 192 654 192 655 181.5 c 128,-1,118
 656 171 656 171 656 160 c 256,119,120
 656 149 656 149 655 138 c 128,-1,121
 654 127 654 127 651 116 c 0,122,123
 649 105 649 105 645 95.5 c 128,-1,124
 641 86 641 86 636 77 c 0,125,126
 626 60 626 60 611 45 c 0,127,128
 597 31 597 31 578 20 c 0,129,130
 559 10 559 10 540 5 c 0,131,132
 518 0 518 0 498 0 c 256,133,134
 478 0 478 0 456 5 c 0,135,136
 435 11 435 11 417 20 c 0,137,138
 400 30 400 30 385 45 c 0,139,140
 378 52 378 52 372 60 c 128,-1,141
 366 68 366 68 361 77 c 0,142,143
 351 93 351 93 345 116 c 0,144,145
 340 139 340 139 340 160 c 0,146,147
 340 180 340 180 345 203 c 0,148,149
 351 224 351 224 361 241 c 0,150,151
 366 250 366 250 372 258 c 128,-1,152
 378 266 378 266 385 274 c 0,153,154
 393 281 393 281 400.5 287 c 128,-1,155
 408 293 408 293 417 298 c 0,156,157
 435 308 435 308 456 313 c 0,158,159
 475 319 475 319 498 319 c 0,160,161
 520 319 520 319 540 313 c 0,162,163
 559 309 559 309 578 298 c 0,164,165
 596 287 596 287 611 274 c 0,166,167
 618 266 618 266 624.5 258 c 128,-1,168
 631 250 631 250 636 241 c 256,113,114
456 208 m 0,169,170
 448 199 448 199 444 187 c 0,171,172
 440 176 440 176 440 160 c 256,173,174
 440 144 440 144 444 132 c 256,175,176
 448 120 448 120 456 111 c 0,177,178
 463 103 463 103 474 98 c 0,179,180
 486 93 486 93 498 93 c 256,181,182
 510 93 510 93 522 98 c 0,183,184
 533 103 533 103 540 111 c 0,185,186
 549 120 549 120 552 132 c 0,187,188
 556 144 556 144 556 160 c 256,189,190
 556 176 556 176 552 187 c 0,191,192
 549 199 549 199 540 208 c 0,193,194
 533 216 533 216 522 221 c 0,195,196
 510 226 510 226 498 226 c 256,197,198
 486 226 486 226 474 221 c 0,199,200
 463 216 463 216 456 208 c 0,169,170
EndSplineSet
EndChar

StartChar: ampersand
Encoding: 38 38 39
Width: 609
Flags: W
LayerCount: 2
Fore
SplineSet
463 169 m 2,0,1
 461 165 461 165 461 162 c 256,2,3
 461 159 461 159 463 155 c 2,4,-1
 487 125 l 1,5,-1
 511 96 l 2,6,7
 519 85 519 85 521.5 73 c 128,-1,8
 524 61 524 61 522 49 c 0,9,10
 521 43 521 43 517.5 35.5 c 128,-1,11
 514 28 514 28 509 22 c 0,12,13
 504 15 504 15 497 8 c 0,14,15
 475 -8 475 -8 450 -3 c 0,16,17
 427 0 427 0 410 22 c 2,18,-1
 396 37 l 1,19,-1
 383 53 l 2,20,21
 380 56 380 56 378 56 c 0,22,23
 375 56 375 56 371 54 c 0,24,25
 363 46 363 46 354.5 39 c 128,-1,26
 346 32 346 32 338 26 c 0,27,28
 318 13 318 13 302 6 c 0,29,30
 281 -4 281 -4 255 -9 c 0,31,32
 243 -11 243 -11 229.5 -12.5 c 128,-1,33
 216 -14 216 -14 202 -14 c 0,34,35
 172 -14 172 -14 147 -8 c 0,36,37
 121 -2 121 -2 98 10 c 0,38,39
 86 16 86 16 76 23.5 c 128,-1,40
 66 31 66 31 57 39 c 0,41,42
 37 59 37 59 26 78 c 0,43,44
 19 89 19 89 14.5 101 c 128,-1,45
 10 113 10 113 6 125 c 0,46,47
 0 150 0 150 0 178 c 0,48,49
 0 210 0 210 8 242 c 0,50,51
 16 271 16 271 32 295 c 0,52,53
 39 306 39 306 48.5 317 c 128,-1,54
 58 328 58 328 69 340 c 256,55,56
 80 352 80 352 94 364.5 c 128,-1,57
 108 377 108 377 124 390 c 0,58,59
 127 392 127 392 129 398 c 0,60,61
 129 404 129 404 127 407 c 0,62,63
 118 422 118 422 109 439 c 0,64,65
 99 457 99 457 94 470 c 0,66,67
 86 491 86 491 82 508 c 0,68,69
 80 518 80 518 79 528 c 128,-1,70
 78 538 78 538 78 548 c 0,71,72
 78 571 78 571 84 594 c 0,73,74
 87 605 87 605 91.5 614.5 c 128,-1,75
 96 624 96 624 101 634 c 0,76,77
 113 652 113 652 128 667 c 0,78,79
 145 682 145 682 163 692 c 0,80,81
 182 701 182 701 205 707 c 0,82,83
 216 709 216 709 227.5 710.5 c 128,-1,84
 239 712 239 712 251 712 c 0,85,86
 276 712 276 712 299 706 c 0,87,88
 323 701 323 701 342 691 c 0,89,90
 352 686 352 686 360.5 680 c 128,-1,91
 369 674 369 674 377 666 c 0,92,93
 393 653 393 653 404 634 c 0,94,95
 410 625 410 625 414 615.5 c 128,-1,96
 418 606 418 606 421 596 c 0,97,98
 427 575 427 575 427 554 c 0,99,100
 427 526 427 526 419 500 c 0,101,102
 413 474 413 474 398 455 c 0,103,104
 392 446 392 446 383.5 436.5 c 128,-1,105
 375 427 375 427 364 416 c 0,106,107
 353 406 353 406 341 395 c 128,-1,108
 329 384 329 384 314 373 c 0,109,110
 311 371 311 371 311 367 c 0,111,112
 310 364 310 364 312 360 c 2,113,-1
 346 314 l 1,114,-1
 379 269 l 2,115,116
 381 267 381 267 384 267 c 256,117,118
 387 267 387 267 388 269 c 2,119,-1
 411 300 l 1,120,-1
 434 330 l 2,121,122
 448 350 448 350 472 353 c 0,123,124
 496 358 496 358 516 342 c 0,125,126
 526 335 526 335 531.5 325 c 128,-1,127
 537 315 537 315 539 304 c 256,128,129
 541 293 541 293 538.5 282 c 128,-1,130
 536 271 536 271 529 262 c 2,131,-1
 496 215 l 1,132,-1
 463 169 l 2,0,1
248 463 m 0,133,134
 256 469 256 469 262 474.5 c 128,-1,135
 268 480 268 480 273 485 c 256,136,137
 278 490 278 490 282.5 495 c 128,-1,138
 287 500 287 500 290 504 c 0,139,140
 298 516 298 516 301 526 c 0,141,142
 305 537 305 537 305 552 c 0,143,144
 305 566 305 566 301 574 c 0,145,146
 298 583 298 583 290 593 c 0,147,148
 282 601 282 601 274 605 c 0,149,150
 269 607 269 607 264 608 c 128,-1,151
 259 609 259 609 254 609 c 0,152,153
 248 609 248 609 243 608 c 128,-1,154
 238 607 238 607 233 605 c 0,155,156
 231 603 231 603 227.5 601.5 c 128,-1,157
 224 600 224 600 222 598 c 0,158,159
 218 595 218 595 216 593 c 0,160,161
 208 584 208 584 206 575 c 0,162,163
 202 566 202 566 202 551 c 0,164,165
 202 539 202 539 205 529 c 0,166,167
 207 523 207 523 208.5 517.5 c 128,-1,168
 210 512 210 512 213 506 c 0,169,170
 215 501 215 501 217.5 496 c 128,-1,171
 220 491 220 491 223 486 c 256,172,173
 226 481 226 481 229.5 475.5 c 128,-1,174
 233 470 233 470 236 465 c 0,175,176
 239 462 239 462 242 462 c 0,177,178
 244 461 244 461 248 463 c 0,133,134
265 114 m 0,179,180
 270 116 270 116 274.5 119.5 c 128,-1,181
 279 123 279 123 284 128 c 0,182,183
 293 135 293 135 303 147 c 0,184,185
 306 150 306 150 306 154 c 256,186,187
 306 158 306 158 304 162 c 2,188,-1
 256 228 l 1,189,-1
 208 295 l 2,190,191
 205 299 205 299 200 299 c 0,192,193
 194 300 194 300 191 296 c 0,194,195
 174 281 174 281 165 269 c 0,196,197
 160 263 160 263 156 257 c 128,-1,198
 152 251 152 251 148 246 c 0,199,200
 145 239 145 239 142 232.5 c 128,-1,201
 139 226 139 226 137 218 c 256,202,203
 135 210 135 210 134 201.5 c 128,-1,204
 133 193 133 193 133 184 c 0,205,206
 133 165 133 165 139 150 c 0,207,208
 143 137 143 137 155 123 c 0,209,210
 164 112 164 112 180 106 c 0,211,212
 193 100 193 100 213 100 c 0,213,214
 229 100 229 100 240 104 c 0,215,216
 254 107 254 107 265 114 c 0,179,180
EndSplineSet
EndChar

StartChar: quotesingle
Encoding: 39 39 40
Width: 169
Flags: W
LayerCount: 2
Fore
SplineSet
111 682 m 0,0,1
 129 660 129 660 124 632 c 1,2,-1
 124 631 l 1,3,-1
 92 460 l 2,4,5
 89 443 89 443 75 430 c 0,6,7
 62 420 62 420 45 420 c 2,8,-1
 41 420 l 2,9,10
 22 422 22 422 10 435 c 0,11,12
 -3 448 -3 448 -3 467 c 2,13,-1
 -4 641 l 2,14,15
 -4 669 -4 669 17 688 c 0,16,17
 35 706 35 706 60 706 c 2,18,-1
 65 706 l 2,19,20
 93 703 93 703 111 682 c 0,0,1
EndSplineSet
EndChar

StartChar: parenleft
Encoding: 40 40 41
Width: 291
Flags: W
LayerCount: 2
Fore
SplineSet
163 82 m 0,0,1
 168 67 168 67 173.5 51.5 c 128,-1,2
 179 36 179 36 186 20 c 256,3,4
 193 4 193 4 200 -11.5 c 128,-1,5
 207 -27 207 -27 215 -43 c 0,6,7
 229 -70 229 -70 214 -96 c 0,8,9
 210 -102 210 -102 203 -106.5 c 128,-1,10
 196 -111 196 -111 188 -115 c 0,11,12
 179 -119 179 -119 169 -123 c 0,13,14
 156 -124 156 -124 143 -118 c 256,15,16
 130 -112 130 -112 122 -101 c 0,17,18
 110 -85 110 -85 99.5 -67.5 c 128,-1,19
 89 -50 89 -50 78 -31 c 0,20,21
 68 -12 68 -12 58.5 8.5 c 128,-1,22
 49 29 49 29 41 51 c 0,23,24
 21 101 21 101 10 165 c 0,25,26
 5 196 5 196 2.5 228.5 c 128,-1,27
 0 261 0 261 0 296 c 256,28,29
 0 331 0 331 2.5 363.5 c 128,-1,30
 5 396 5 396 10 428 c 0,31,32
 21 492 21 492 41 542 c 0,33,34
 49 564 49 564 58.5 584.5 c 128,-1,35
 68 605 68 605 78 624 c 0,36,37
 89 643 89 643 99.5 660.5 c 128,-1,38
 110 678 110 678 122 694 c 0,39,40
 130 705 130 705 143 711 c 256,41,42
 156 717 156 717 169 716 c 0,43,44
 184 715 184 715 195.5 707.5 c 128,-1,45
 207 700 207 700 214 689 c 0,46,47
 220 677 220 677 221 663.5 c 128,-1,48
 222 650 222 650 215 636 c 0,49,50
 198 604 198 604 185 573 c 0,51,52
 179 558 179 558 173.5 542.5 c 128,-1,53
 168 527 168 527 163 512 c 0,54,55
 155 487 155 487 149.5 461.5 c 128,-1,56
 144 436 144 436 139 409 c 0,57,58
 135 382 135 382 133.5 354 c 128,-1,59
 132 326 132 326 132 297 c 256,60,61
 132 268 132 268 133.5 240 c 128,-1,62
 135 212 135 212 139 185 c 0,63,64
 148 132 148 132 163 82 c 0,0,1
EndSplineSet
EndChar

StartChar: asterisk
Encoding: 42 42 43
Width: 409
Flags: W
LayerCount: 2
Fore
SplineSet
337 583 m 256,0,1
 343 566 343 566 335 551 c 0,2,3
 327 535 327 535 310 529 c 2,4,-1
 277 518 l 1,5,-1
 243 507 l 2,6,7
 241 507 241 507 240 504 c 0,8,9
 240 502 240 502 241 501 c 2,10,-1
 263 473 l 1,11,-1
 286 445 l 2,12,13
 297 431 297 431 295 414 c 0,14,15
 292 396 292 396 279 385 c 1,16,-1
 278 385 l 1,17,-1
 277 384 l 2,18,19
 262 373 262 373 245 375 c 0,20,21
 227 378 227 378 217 392 c 2,22,-1
 194 422 l 1,23,-1
 172 452 l 2,24,25
 170 454 170 454 168 454 c 0,26,27
 167 454 167 454 165 452 c 2,28,-1
 144 423 l 1,29,-1
 123 395 l 2,30,31
 112 380 112 380 95 378 c 0,32,33
 79 375 79 375 63 386 c 1,34,-1
 63 387 l 1,35,-1
 62 387 l 1,36,37
 47 400 47 400 46 416 c 0,38,39
 44 433 44 433 55 447 c 2,40,-1
 77 474 l 1,41,-1
 98 501 l 2,42,43
 99 502 99 502 99 504 c 0,44,45
 99 507 99 507 97 507 c 2,46,-1
 63 518 l 1,47,-1
 29 529 l 2,48,49
 12 535 12 535 4 551 c 0,50,51
 1 558 1 558 0 566.5 c 128,-1,52
 -1 575 -1 575 2 583 c 0,53,54
 8 600 8 600 24 608 c 0,55,56
 41 615 41 615 57 609 c 2,57,-1
 87 598 l 1,58,-1
 118 587 l 2,59,60
 120 587 120 587 121 588 c 0,61,62
 123 590 123 590 123 591 c 2,63,-1
 123 627 l 1,64,-1
 123 663 l 2,65,66
 123 681 123 681 135 693 c 0,67,68
 148 706 148 706 165 706 c 2,69,-1
 169 706 l 1,70,-1
 172 706 l 2,71,72
 189 706 189 706 202 693 c 0,73,74
 214 682 214 682 214 663 c 2,75,-1
 214 627 l 1,76,-1
 214 591 l 2,77,78
 214 588 214 588 216 588 c 0,79,80
 217 587 217 587 220 587 c 2,81,-1
 251 598 l 1,82,-1
 283 610 l 2,83,84
 300 616 300 616 315 608 c 0,85,86
 331 600 331 600 337 583 c 256,0,1
EndSplineSet
EndChar

StartChar: plus
Encoding: 43 43 44
Width: 550
Flags: W
LayerCount: 2
Fore
SplineSet
301 379 m 2,0,1
 301 373 301 373 304 372 c 0,2,3
 307 369 307 369 311 369 c 2,4,-1
 366 369 l 1,5,-1
 421 369 l 2,6,7
 445 369 445 369 463 351 c 0,8,9
 480 334 480 334 480 309 c 0,10,11
 480 283 480 283 463 266 c 0,12,13
 455 258 455 258 444 253.5 c 128,-1,14
 433 249 433 249 421 249 c 2,15,-1
 366 249 l 1,16,-1
 311 249 l 2,17,18
 307 249 307 249 304 246 c 256,19,20
 301 243 301 243 301 239 c 2,21,-1
 301 184 l 1,22,-1
 301 128 l 2,23,24
 301 116 301 116 296.5 105 c 128,-1,25
 292 94 292 94 284 86 c 0,26,27
 267 69 267 69 241 69 c 2,28,-1
 240 69 l 1,29,-1
 239 69 l 2,30,31
 214 69 214 69 197 86 c 0,32,33
 179 104 179 104 179 128 c 2,34,-1
 179 184 l 1,35,-1
 179 239 l 2,36,37
 179 243 179 243 176 246 c 0,38,39
 174 249 174 249 169 249 c 2,40,-1
 115 249 l 1,41,-1
 60 249 l 2,42,43
 47 249 47 249 36.5 253.5 c 128,-1,44
 26 258 26 258 18 266 c 0,45,46
 0 284 0 284 0 309 c 0,47,48
 0 333 0 333 18 351 c 0,49,50
 34 369 34 369 60 369 c 2,51,-1
 115 369 l 1,52,-1
 169 369 l 2,53,54
 174 369 174 369 176 372 c 0,55,56
 179 373 179 373 179 379 c 2,57,-1
 179 434 l 1,58,-1
 179 489 l 2,59,60
 179 515 179 515 197 531 c 0,61,62
 215 549 215 549 239 549 c 2,63,-1
 240 549 l 1,64,-1
 241 549 l 2,65,66
 266 549 266 549 284 531 c 0,67,68
 292 523 292 523 296.5 512.5 c 128,-1,69
 301 502 301 502 301 489 c 2,70,-1
 301 434 l 1,71,-1
 301 379 l 2,0,1
EndSplineSet
EndChar

StartChar: comma
Encoding: 44 44 45
Width: 248
Flags: W
LayerCount: 2
Fore
SplineSet
152 136 m 0,0,1
 164 125 164 125 171 107 c 0,2,3
 174 99 174 99 176 90.5 c 128,-1,4
 178 82 178 82 178 73 c 0,5,6
 178 61 178 61 175 49 c 0,7,8
 173 37 173 37 169 25 c 0,9,10
 167 20 167 20 164.5 14 c 128,-1,11
 162 8 162 8 159 2 c 256,12,13
 156 -4 156 -4 152.5 -10.5 c 128,-1,14
 149 -17 149 -17 146 -24 c 2,15,-1
 124 -63 l 1,16,-1
 103 -102 l 2,17,18
 96 -113 96 -113 88 -118 c 0,19,20
 78 -123 78 -123 67 -123 c 0,21,22
 44 -123 44 -123 33 -104 c 0,23,24
 28 -96 28 -96 26.5 -86 c 128,-1,25
 25 -76 25 -76 30 -65 c 2,26,-1
 42 -40 l 1,27,-1
 54 -15 l 2,28,29
 56 -12 56 -12 54 -7 c 0,30,31
 54 -4 54 -4 49 -2 c 0,32,33
 41 2 41 2 32 8 c 0,34,35
 28 11 28 11 25 14.5 c 128,-1,36
 22 18 22 18 18 22 c 0,37,38
 10 33 10 33 5 47 c 0,39,40
 0 62 0 62 0 77 c 0,41,42
 0 95 0 95 6 110 c 0,43,44
 10 118 10 118 14.5 125 c 128,-1,45
 19 132 19 132 26 138 c 0,46,47
 37 149 37 149 54 157 c 0,48,49
 69 163 69 163 87 163 c 0,50,51
 108 163 108 163 123 156 c 0,52,53
 140 150 140 150 152 136 c 0,0,1
EndSplineSet
EndChar

StartChar: hyphen
Encoding: 45 45 46
Width: 399
Flags: W
LayerCount: 2
Fore
SplineSet
0 364 m 256,0,1
 0 390 0 390 18 408 c 0,2,3
 37 427 37 427 62 427 c 2,4,-1
 164 427 l 1,5,-1
 266 427 l 2,6,7
 292 427 292 427 311 408 c 0,8,9
 329 390 329 390 329 364 c 256,10,11
 329 338 329 338 311 320 c 0,12,13
 291 302 291 302 266 302 c 2,14,-1
 164 302 l 1,15,-1
 62 302 l 2,16,17
 38 302 38 302 18 320 c 0,18,19
 0 338 0 338 0 364 c 256,0,1
EndSplineSet
EndChar

StartChar: period
Encoding: 46 46 47
Width: 245
Flags: W
LayerCount: 2
Fore
SplineSet
150 138 m 0,0,1
 161 127 161 127 168 110 c 0,2,3
 175 96 175 96 175 77 c 0,4,5
 175 57 175 57 168 43 c 0,6,7
 161 26 161 26 150 15 c 0,8,9
 137 4 137 4 122 -4 c 0,10,11
 105 -10 105 -10 87 -10 c 0,12,13
 68 -10 68 -10 53 -4 c 0,14,15
 45 0 45 0 38 4.5 c 128,-1,16
 31 9 31 9 25 15 c 0,17,18
 12 28 12 28 6 43 c 256,19,20
 0 58 0 58 0 77 c 0,21,22
 0 95 0 95 6 110 c 256,23,24
 12 125 12 125 25 138 c 0,25,26
 31 144 31 144 38 148.5 c 128,-1,27
 45 153 45 153 53 157 c 0,28,29
 68 163 68 163 87 163 c 0,30,31
 105 163 105 163 122 157 c 0,32,33
 137 149 137 149 150 138 c 0,0,1
EndSplineSet
EndChar

StartChar: slash
Encoding: 47 47 48
Width: 449
Flags: W
LayerCount: 2
Fore
SplineSet
259 668 m 2,0,1
 266 685 266 685 282 696 c 0,2,3
 299 706 299 706 316 706 c 256,4,5
 333 706 333 706 347 698 c 128,-1,6
 361 690 361 690 369 677 c 0,7,8
 377 665 377 665 379 649 c 128,-1,9
 381 633 381 633 374 618 c 2,10,-1
 247 328 l 1,11,-1
 121 38 l 2,12,13
 114 21 114 21 97 10 c 0,14,15
 93 8 93 8 87 6.5 c 128,-1,16
 81 5 81 5 76 3 c 0,17,18
 70 1 70 1 63 0 c 0,19,20
 46 0 46 0 32 8 c 128,-1,21
 18 16 18 16 10 28 c 0,22,23
 2 41 2 41 0 56.5 c 128,-1,24
 -2 72 -2 72 5 88 c 2,25,-1
 132 378 l 1,26,-1
 259 668 l 2,0,1
EndSplineSet
EndChar

StartChar: zero
Encoding: 48 48 49
Width: 503
Flags: W
LayerCount: 2
Fore
SplineSet
407 618 m 0,0,1
 414 607 414 607 418.5 594.5 c 128,-1,2
 423 582 423 582 427 568 c 0,3,4
 433 541 433 541 433 511 c 2,5,-1
 433 353 l 1,6,-1
 433 195 l 2,7,8
 433 165 433 165 427 138 c 0,9,10
 423 124 423 124 418.5 111.5 c 128,-1,11
 414 99 414 99 407 87 c 0,12,13
 395 64 395 64 375 45 c 0,14,15
 366 35 366 35 355 27.5 c 128,-1,16
 344 20 344 20 332 13 c 0,17,18
 319 6 319 6 306 1 c 128,-1,19
 293 -4 293 -4 278 -7 c 0,20,21
 264 -10 264 -10 249 -12 c 128,-1,22
 234 -14 234 -14 217 -14 c 256,23,24
 200 -14 200 -14 184.5 -12 c 128,-1,25
 169 -10 169 -10 155 -7 c 0,26,27
 127 -1 127 -1 102 13 c 0,28,29
 76 26 76 26 58 45 c 0,30,31
 48 54 48 54 40.5 64.5 c 128,-1,32
 33 75 33 75 26 87 c 0,33,34
 13 110 13 110 7 138 c 0,35,36
 0 163 0 163 0 195 c 2,37,-1
 0 353 l 1,38,-1
 0 511 l 2,39,40
 0 543 0 543 7 568 c 0,41,42
 13 597 13 597 26 618 c 0,43,44
 33 630 33 630 40.5 641 c 128,-1,45
 48 652 48 652 58 661 c 256,46,47
 68 670 68 670 78.5 678 c 128,-1,48
 89 686 89 686 102 693 c 0,49,50
 114 700 114 700 127.5 704.5 c 128,-1,51
 141 709 141 709 155 713 c 0,52,53
 169 716 169 716 184.5 718 c 128,-1,54
 200 720 200 720 217 720 c 256,55,56
 234 720 234 720 249 718 c 128,-1,57
 264 716 264 716 278 713 c 0,58,59
 293 709 293 709 306 704.5 c 128,-1,60
 319 700 319 700 332 693 c 0,61,62
 357 679 357 679 375 661 c 0,63,64
 394 643 394 643 407 618 c 0,0,1
141 505 m 2,65,-1
 141 353 l 1,66,-1
 141 201 l 2,67,68
 141 183 141 183 146 165 c 0,69,70
 151 148 151 148 161 138 c 0,71,72
 170 126 170 126 184 120 c 0,73,74
 199 114 199 114 217 114 c 256,75,76
 235 114 235 114 249 120 c 0,77,78
 262 126 262 126 273 138 c 0,79,80
 282 149 282 149 287 165 c 0,81,82
 292 183 292 183 292 201 c 2,83,-1
 292 353 l 1,84,-1
 292 505 l 2,85,86
 292 523 292 523 287 540 c 0,87,88
 283 555 283 555 273 568 c 0,89,90
 262 580 262 580 249 586 c 0,91,92
 235 592 235 592 217 592 c 256,93,94
 199 592 199 592 184 586 c 0,95,96
 170 580 170 580 161 568 c 0,97,98
 150 556 150 556 146 540 c 0,99,100
 141 523 141 523 141 505 c 2,65,-1
EndSplineSet
EndChar

StartChar: one
Encoding: 49 49 50
Width: 320
Flags: W
LayerCount: 2
Fore
SplineSet
0 641 m 256,0,1
 0 668 0 668 19 687 c 256,2,3
 38 706 38 706 65 706 c 2,4,-1
 117 706 l 1,5,-1
 170 706 l 2,6,7
 197 706 197 706 216 687 c 0,8,9
 224 678 224 678 229.5 666.5 c 128,-1,10
 235 655 235 655 235 641 c 2,11,-1
 235 353 l 1,12,-1
 235 65 l 2,13,14
 235 51 235 51 229.5 39.5 c 128,-1,15
 224 28 224 28 216 19 c 0,16,17
 197 0 197 0 170 0 c 2,18,-1
 162 0 l 1,19,-1
 154 0 l 2,20,21
 127 0 127 0 108 19 c 0,22,23
 90 39 90 39 90 65 c 2,24,-1
 90 316 l 1,25,-1
 90 566 l 2,26,27
 90 570 90 570 87 573 c 256,28,29
 84 576 84 576 80 576 c 2,30,-1
 72 576 l 1,31,-1
 65 576 l 2,32,33
 38 576 38 576 19 595 c 256,34,35
 0 614 0 614 0 641 c 256,0,1
EndSplineSet
EndChar

StartChar: two
Encoding: 50 50 51
Width: 511
Flags: W
LayerCount: 2
Fore
SplineSet
422 108 m 0,0,1
 430 99 430 99 435.5 88 c 128,-1,2
 441 77 441 77 441 64 c 0,3,4
 441 37 441 37 423 19 c 0,5,6
 404 0 404 0 378 0 c 2,7,-1
 222 0 l 1,8,-1
 65 0 l 2,9,10
 45 0 45 0 30 10.5 c 128,-1,11
 15 21 15 21 7 37 c 256,12,13
 -1 53 -1 53 0 71 c 128,-1,14
 1 89 1 89 14 105 c 2,15,-1
 102 216 l 1,16,-1
 189 326 l 2,17,18
 200 340 200 340 210.5 354 c 128,-1,19
 221 368 221 368 231 381 c 0,20,21
 241 395 241 395 249 407.5 c 128,-1,22
 257 420 257 420 264 431 c 0,23,24
 278 456 278 456 285 477 c 0,25,26
 288 488 288 488 290 498.5 c 128,-1,27
 292 509 292 509 292 520 c 0,28,29
 292 529 292 529 290.5 536 c 128,-1,30
 289 543 289 543 287 550 c 0,31,32
 282 565 282 565 273 573 c 1,33,-1
 273 574 l 1,34,-1
 272 574 l 1,35,36
 265 583 265 583 253 586 c 0,37,38
 244 590 244 590 231 590 c 0,39,40
 202 590 202 590 183 577 c 0,41,42
 173 571 173 571 166 564 c 128,-1,43
 159 557 159 557 153 549 c 0,44,45
 143 536 143 536 129 529.5 c 128,-1,46
 115 523 115 523 100 521 c 0,47,48
 68 518 68 518 46 535 c 0,49,50
 23 553 23 553 21 581 c 0,51,52
 20 595 20 595 24 608.5 c 128,-1,53
 28 622 28 622 38 634 c 0,54,55
 51 652 51 652 67 665 c 0,56,57
 84 680 84 680 102 690 c 0,58,59
 127 704 127 704 159 712 c 0,60,61
 193 720 193 720 225 720 c 0,62,63
 241 720 241 720 256 718 c 128,-1,64
 271 716 271 716 285 713 c 256,65,66
 299 710 299 710 311.5 705 c 128,-1,67
 324 700 324 700 336 694 c 0,68,69
 347 687 347 687 357.5 679.5 c 128,-1,70
 368 672 368 672 377 663 c 0,71,72
 394 645 394 645 408 623 c 0,73,74
 419 603 419 603 427 575 c 0,75,76
 433 549 433 549 433 520 c 0,77,78
 433 509 433 509 432 498.5 c 128,-1,79
 431 488 431 488 429 477 c 256,80,81
 427 466 427 466 424 455.5 c 128,-1,82
 421 445 421 445 416 434 c 256,83,84
 411 423 411 423 406.5 413.5 c 128,-1,85
 402 404 402 404 397 394 c 0,86,87
 386 373 386 373 373 355 c 0,88,89
 370 350 370 350 361.5 338.5 c 128,-1,90
 353 327 353 327 342 311 c 128,-1,91
 331 295 331 295 317 276.5 c 128,-1,92
 303 258 303 258 290 239 c 0,93,94
 278 224 278 224 267 208 c 0,95,96
 256 194 256 194 244 176.5 c 128,-1,97
 232 159 232 159 219 142 c 0,98,99
 215 136 215 136 218 131 c 0,100,101
 220 126 220 126 227 126 c 2,102,-1
 302 126 l 1,103,-1
 377 126 l 2,104,105
 402 126 402 126 422 108 c 0,0,1
EndSplineSet
EndChar

StartChar: three
Encoding: 51 51 52
Width: 536
Flags: W
LayerCount: 2
Fore
SplineSet
419 337 m 0,0,1
 438 315 438 315 448 292 c 0,2,3
 459 266 459 266 463 240 c 0,4,5
 465 226 465 226 465.5 212.5 c 128,-1,6
 466 199 466 199 465 185 c 0,7,8
 463 171 463 171 461 158 c 128,-1,9
 459 145 459 145 454 132 c 0,10,11
 447 108 447 108 431 84 c 0,12,13
 416 62 416 62 397 44 c 0,14,15
 379 27 379 27 354 14 c 0,16,17
 342 7 342 7 329.5 2.5 c 128,-1,18
 317 -2 317 -2 304 -6 c 0,19,20
 290 -9 290 -9 275.5 -11 c 128,-1,21
 261 -13 261 -13 247 -14 c 256,22,23
 233 -15 233 -15 218.5 -13.5 c 128,-1,24
 204 -12 204 -12 190 -10 c 256,25,26
 176 -8 176 -8 162 -4 c 128,-1,27
 148 0 148 0 135 6 c 0,28,29
 106 17 106 17 85 34 c 0,30,31
 74 41 74 41 65 51 c 0,32,33
 60 56 60 56 56 60 c 128,-1,34
 52 64 52 64 48 69 c 256,35,36
 44 74 44 74 40.5 79.5 c 128,-1,37
 37 85 37 85 34 90 c 0,38,39
 30 95 30 95 27.5 100.5 c 128,-1,40
 25 106 25 106 22 112 c 0,41,42
 14 129 14 129 16 147 c 0,43,44
 18 164 18 164 27 178 c 0,45,46
 32 186 32 186 38 191 c 128,-1,47
 44 196 44 196 51 201 c 0,48,49
 66 210 66 210 86 210 c 0,50,51
 96 210 96 210 105 207 c 0,52,53
 110 205 110 205 114 203.5 c 128,-1,54
 118 202 118 202 123 199 c 0,55,56
 131 194 131 194 137 187 c 0,57,58
 141 183 141 183 143.5 179 c 128,-1,59
 146 175 146 175 148 170 c 0,60,61
 150 168 150 168 150.5 166.5 c 128,-1,62
 151 165 151 165 152 163 c 0,63,64
 156 157 156 157 157 155 c 0,65,66
 161 149 161 149 164 147 c 0,67,68
 166 144 166 144 171 139 c 0,69,70
 186 125 186 125 207 119 c 0,71,72
 227 113 227 113 249 115 c 0,73,74
 260 117 260 117 270 120 c 128,-1,75
 280 123 280 123 288 128 c 0,76,77
 308 141 308 141 316 159 c 0,78,79
 328 182 328 182 326 202 c 0,80,81
 325 213 325 213 321.5 221.5 c 128,-1,82
 318 230 318 230 313 238 c 0,83,84
 301 255 301 255 284 266 c 0,85,86
 267 279 267 279 246 286 c 2,87,-1
 244 287 l 1,88,-1
 242 287 l 1,89,-1
 240 288 l 1,90,-1
 239 288 l 1,91,-1
 226 294 l 1,92,-1
 213 299 l 1,93,-1
 199 304 l 1,94,-1
 186 310 l 2,95,96
 171 317 171 317 163 326 c 0,97,98
 153 337 153 337 149 350 c 0,99,100
 144 362 144 362 146 377 c 0,101,102
 149 392 149 392 156 404 c 2,103,-1
 164 417 l 1,104,-1
 172 430 l 1,105,-1
 180 442 l 1,106,-1
 188 455 l 1,107,-1
 206 484 l 1,108,-1
 223 512 l 1,109,-1
 241 540 l 1,110,-1
 259 569 l 1,111,-1
 259 571 l 1,112,-1
 259 574 l 1,113,114
 259 574 259 574 257 576 c 2,115,-1
 254 576 l 1,116,-1
 205 576 l 1,117,-1
 156 576 l 1,118,-1
 110 576 l 1,119,-1
 65 576 l 2,120,121
 52 576 52 576 40 581 c 0,122,123
 26 588 26 588 19 595 c 0,124,125
 9 605 9 605 5 616 c 0,126,127
 0 629 0 629 0 641 c 256,128,129
 0 653 0 653 5 666 c 0,130,131
 9 677 9 677 19 687 c 0,132,133
 24 692 24 692 29 695 c 128,-1,134
 34 698 34 698 40 701 c 0,135,136
 52 706 52 706 65 706 c 2,137,-1
 138 706 l 1,138,-1
 211 706 l 1,139,-1
 288 706 l 1,140,-1
 364 706 l 2,141,142
 386 706 386 706 405 695 c 0,143,144
 423 684 423 684 432 667 c 0,145,146
 443 648 443 648 443 629 c 0,147,148
 445 607 445 607 433 588 c 2,149,-1
 424 572 l 1,150,-1
 398 531 l 1,151,-1
 364 476 l 1,152,-1
 325 413 l 2,153,154
 322 409 322 409 324 405 c 0,155,156
 325 401 325 401 329 399 c 0,157,158
 335 396 335 396 340.5 393.5 c 128,-1,159
 346 391 346 391 351 388 c 256,160,161
 356 385 356 385 361.5 382 c 128,-1,162
 367 379 367 379 372 375 c 0,163,164
 379 371 379 371 385 367 c 128,-1,165
 391 363 391 363 397 358 c 0,166,167
 402 353 402 353 408 347.5 c 128,-1,168
 414 342 414 342 419 337 c 0,0,1
EndSplineSet
EndChar

StartChar: four
Encoding: 52 52 53
Width: 577
Flags: W
LayerCount: 2
Fore
SplineSet
431 265 m 2,0,1
 431 263 431 263 432 261.5 c 128,-1,2
 433 260 433 260 434 258 c 0,3,4
 437 255 437 255 441 255 c 2,5,-1
 443 255 l 1,6,-1
 445 255 l 2,7,8
 471 255 471 255 489 237 c 0,9,10
 507 217 507 217 507 192 c 0,11,12
 507 166 507 166 489 148 c 0,13,14
 472 129 472 129 445 129 c 2,15,-1
 443 129 l 1,16,-1
 441 129 l 2,17,18
 437 129 437 129 434 126 c 256,19,20
 431 123 431 123 431 119 c 2,21,-1
 431 95 l 1,22,-1
 431 71 l 2,23,24
 431 39 431 39 411 21 c 0,25,26
 390 0 390 0 361 0 c 256,27,28
 332 0 332 0 311 21 c 0,29,30
 290 40 290 40 290 71 c 2,31,-1
 290 95 l 1,32,-1
 290 119 l 2,33,34
 290 124 290 124 287 126 c 0,35,36
 284 129 284 129 280 129 c 2,37,-1
 173 129 l 1,38,-1
 65 128 l 2,39,40
 48 128 48 128 33.5 136 c 128,-1,41
 19 144 19 144 10 158 c 0,42,43
 2 172 2 172 0 188 c 128,-1,44
 -2 204 -2 204 6 221 c 2,45,-1
 112 444 l 1,46,-1
 217 667 l 2,47,48
 225 686 225 686 242 695 c 0,49,50
 258 706 258 706 278 706 c 0,51,52
 297 706 297 706 311.5 697 c 128,-1,53
 326 688 326 688 335 674 c 0,54,55
 343 660 343 660 345 643.5 c 128,-1,56
 347 627 347 627 339 610 c 2,57,-1
 258 439 l 1,58,-1
 177 269 l 2,59,60
 175 263 175 263 178 260 c 0,61,62
 181 255 181 255 187 255 c 2,63,-1
 233 255 l 1,64,-1
 280 255 l 2,65,66
 284 255 284 255 287 258 c 256,67,68
 290 261 290 261 290 265 c 2,69,-1
 290 295 l 1,70,-1
 290 325 l 2,71,72
 290 356 290 356 311 375 c 0,73,74
 332 396 332 396 361 396 c 256,75,76
 390 396 390 396 411 375 c 0,77,78
 431 357 431 357 431 325 c 2,79,-1
 431 295 l 1,80,-1
 431 265 l 2,0,1
EndSplineSet
EndChar

StartChar: five
Encoding: 53 53 54
Width: 518
Flags: W
LayerCount: 2
Fore
SplineSet
420 353 m 0,0,1
 428 339 428 339 432.5 325.5 c 128,-1,2
 437 312 437 312 441 297 c 0,3,4
 448 270 448 270 448 235 c 2,5,-1
 448 224 l 1,6,-1
 448 214 l 2,7,8
 448 179 448 179 441 151 c 0,9,10
 437 137 437 137 432.5 123 c 128,-1,11
 428 109 428 109 420 96 c 0,12,13
 407 72 407 72 387 50 c 0,14,15
 376 40 376 40 365 31.5 c 128,-1,16
 354 23 354 23 341 15 c 0,17,18
 327 8 327 8 313 2.5 c 128,-1,19
 299 -3 299 -3 284 -6 c 0,20,21
 250 -14 250 -14 218 -14 c 0,22,23
 200 -14 200 -14 183.5 -12 c 128,-1,24
 167 -10 167 -10 151 -6 c 0,25,26
 136 -3 136 -3 122 2.5 c 128,-1,27
 108 8 108 8 95 15 c 0,28,29
 83 22 83 22 73 29.5 c 128,-1,30
 63 37 63 37 54 45 c 0,31,32
 45 54 45 54 37 63.5 c 128,-1,33
 29 73 29 73 22 84 c 0,34,35
 17 91 17 91 14 98 c 0,36,37
 12 101 12 101 10 104.5 c 128,-1,38
 8 108 8 108 6 112 c 0,39,40
 -2 130 -2 130 0 148 c 128,-1,41
 2 166 2 166 13 180 c 0,42,43
 23 194 23 194 39 203 c 128,-1,44
 55 212 55 212 75 210 c 0,45,46
 92 209 92 209 109 197 c 0,47,48
 124 186 124 186 133 170 c 0,49,50
 136 162 136 162 140 157 c 0,51,52
 142 154 142 154 144.5 150.5 c 128,-1,53
 147 147 147 147 150 144 c 0,54,55
 166 129 166 129 182 123 c 0,56,57
 190 120 190 120 198.5 119 c 128,-1,58
 207 118 207 118 218 118 c 0,59,60
 240 118 240 118 255 125 c 0,61,62
 270 131 270 131 281 145 c 0,63,64
 286 153 286 153 290.5 160.5 c 128,-1,65
 295 168 295 168 297 178 c 0,66,67
 303 196 303 196 303 220 c 2,68,-1
 303 224 l 1,69,-1
 303 229 l 2,70,71
 303 251 303 251 297 271 c 0,72,73
 293 288 293 288 281 303 c 0,74,75
 271 318 271 318 255 324 c 0,76,77
 240 331 240 331 218 331 c 2,78,-1
 144 331 l 1,79,-1
 70 331 l 2,80,81
 43 331 43 331 24 350 c 256,82,83
 5 369 5 369 5 396 c 2,84,-1
 5 518 l 1,85,-1
 5 641 l 2,86,87
 5 668 5 668 24 687 c 256,88,89
 43 706 43 706 70 706 c 2,90,-1
 209 706 l 1,91,-1
 347 706 l 2,92,93
 361 706 361 706 373 700.5 c 128,-1,94
 385 695 385 695 394 687 c 0,95,96
 412 667 412 667 412 640 c 0,97,98
 412 626 412 626 406.5 614.5 c 128,-1,99
 401 603 401 603 393 595 c 0,100,101
 374 576 374 576 346 576 c 2,102,-1
 253 576 l 1,103,-1
 160 576 l 2,104,105
 156 576 156 576 153 573 c 0,106,107
 150 571 150 571 150 566 c 2,108,-1
 150 519 l 1,109,-1
 150 472 l 2,110,111
 150 468 150 468 153 465 c 0,112,113
 155 464 155 464 156.5 463 c 128,-1,114
 158 462 158 462 160 462 c 2,115,-1
 189 462 l 1,116,-1
 218 462 l 2,117,118
 255 462 255 462 284 455 c 0,119,120
 316 447 316 447 341 433 c 0,121,122
 354 426 354 426 365 417.5 c 128,-1,123
 376 409 376 409 387 399 c 0,124,125
 407 377 407 377 420 353 c 0,0,1
EndSplineSet
EndChar

StartChar: six
Encoding: 54 54 55
Width: 517
Flags: W
LayerCount: 2
Fore
SplineSet
420 367 m 0,0,1
 434 342 434 342 440 316 c 0,2,3
 447 289 447 289 447 258 c 2,4,-1
 447 227 l 1,5,-1
 447 197 l 2,6,7
 447 166 447 166 440 139 c 0,8,9
 434 113 434 113 420 88 c 0,10,11
 406 64 406 64 387 46 c 0,12,13
 367 26 367 26 342 13 c 0,14,15
 329 6 329 6 315.5 1.5 c 128,-1,16
 302 -3 302 -3 287 -7 c 0,17,18
 272 -10 272 -10 256.5 -12 c 128,-1,19
 241 -14 241 -14 224 -14 c 256,20,21
 207 -14 207 -14 191 -12 c 128,-1,22
 175 -10 175 -10 160 -7 c 0,23,24
 145 -3 145 -3 131.5 1.5 c 128,-1,25
 118 6 118 6 105 13 c 0,26,27
 79 26 79 26 60 46 c 0,28,29
 40 64 40 64 27 88 c 0,30,31
 13 113 13 113 7 139 c 0,32,33
 0 166 0 166 0 197 c 2,34,-1
 0 218 l 1,35,-1
 0 238 l 2,36,37
 0 249 0 249 0.5 258.5 c 128,-1,38
 1 268 1 268 2 277 c 256,39,40
 3 286 3 286 3.5 293.5 c 128,-1,41
 4 301 4 301 6 309 c 0,42,43
 8 316 8 316 10 323.5 c 128,-1,44
 12 331 12 331 15 339 c 256,45,46
 18 347 18 347 20.5 356 c 128,-1,47
 23 365 23 365 28 373 c 1,48,-1
 28 374 l 1,49,-1
 107 522 l 1,50,-1
 185 671 l 2,51,52
 194 687 194 687 210 696 c 0,53,54
 227 706 227 706 243 706 c 0,55,56
 262 706 262 706 276.5 697 c 128,-1,57
 291 688 291 688 300 674 c 0,58,59
 308 660 308 660 309 643 c 128,-1,60
 310 626 310 626 301 609 c 2,61,-1
 266 543 l 1,62,-1
 231 476 l 2,63,64
 229 473 229 473 231 471 c 256,65,66
 233 469 233 469 235 468 c 0,67,68
 250 468 250 468 264 466 c 128,-1,69
 278 464 278 464 292 461 c 0,70,71
 306 457 306 457 318.5 452.5 c 128,-1,72
 331 448 331 448 342 442 c 0,73,74
 367 428 367 428 387 409 c 0,75,76
 406 391 406 391 420 367 c 0,0,1
306 252 m 2,77,78
 306 270 306 270 301 288 c 0,79,80
 294 306 294 306 285 317 c 0,81,82
 274 330 274 330 259 335 c 0,83,84
 244 341 244 341 224 341 c 0,85,86
 203 341 203 341 188 335 c 0,87,88
 172 329 172 329 162 317 c 256,89,90
 152 305 152 305 147 288 c 0,91,92
 141 271 141 271 141 252 c 2,93,-1
 141 227 l 1,94,-1
 141 203 l 2,95,96
 141 182 141 182 147 167 c 0,97,98
 152 150 152 150 162 138 c 256,99,100
 172 126 172 126 188 120 c 0,101,102
 203 114 203 114 224 114 c 0,103,104
 244 114 244 114 259 120 c 0,105,106
 274 125 274 125 285 138 c 0,107,108
 294 149 294 149 301 167 c 0,109,110
 306 184 306 184 306 203 c 2,111,-1
 306 227 l 1,112,-1
 306 252 l 2,77,78
EndSplineSet
EndChar

StartChar: seven
Encoding: 55 55 56
Width: 497
Flags: W
LayerCount: 2
Fore
SplineSet
423 670 m 0,0,1
 434 654 434 654 437 632 c 0,2,3
 438 612 438 612 431 593 c 2,4,-1
 318 318 l 1,5,-1
 204 42 l 2,6,7
 196 23 196 23 179 12 c 0,8,9
 162 0 162 0 141 0 c 0,10,11
 124 0 124 0 108 8 c 0,12,13
 94 15 94 15 83 31 c 0,14,15
 73 47 73 47 72 63 c 0,16,17
 71 78 71 78 77 96 c 2,18,-1
 177 331 l 1,19,-1
 277 566 l 2,20,21
 279 572 279 572 276 576 c 0,22,23
 272 580 272 580 268 580 c 2,24,-1
 165 580 l 1,25,-1
 63 580 l 2,26,27
 37 580 37 580 18 599 c 0,28,29
 0 617 0 617 0 644 c 0,30,31
 0 657 0 657 5.5 668.5 c 128,-1,32
 11 680 11 680 19 688 c 0,33,34
 39 706 39 706 64 706 c 2,35,-1
 209 706 l 1,36,-1
 355 706 l 2,37,38
 374 706 374 706 394 696 c 0,39,40
 411 687 411 687 423 670 c 0,0,1
EndSplineSet
EndChar

StartChar: eight
Encoding: 56 56 57
Width: 515
Flags: W
LayerCount: 2
Fore
SplineSet
426 315 m 0,0,1
 435 296 435 296 440 275 c 0,2,3
 443 264 443 264 444 253 c 128,-1,4
 445 242 445 242 445 230 c 2,5,-1
 445 209 l 1,6,-1
 445 187 l 2,7,8
 445 157 445 157 438 133 c 0,9,10
 432 107 432 107 418 84 c 0,11,12
 404 60 404 60 385 43 c 0,13,14
 375 34 375 34 364 26.5 c 128,-1,15
 353 19 353 19 341 12 c 0,16,17
 328 6 328 6 314.5 1 c 128,-1,18
 301 -4 301 -4 286 -7 c 0,19,20
 258 -14 258 -14 223 -14 c 0,21,22
 187 -14 187 -14 159 -7 c 0,23,24
 144 -4 144 -4 130.5 1 c 128,-1,25
 117 6 117 6 105 12 c 0,26,27
 78 26 78 26 60 43 c 0,28,29
 41 60 41 60 27 84 c 0,30,31
 13 107 13 107 7 133 c 0,32,33
 0 157 0 157 0 187 c 2,34,-1
 0 209 l 1,35,-1
 0 230 l 2,36,37
 0 252 0 252 5 275 c 0,38,39
 9 296 9 296 19 315 c 0,40,41
 27 331 27 331 37 344 c 0,42,43
 48 359 48 359 60 369 c 0,44,45
 64 373 64 373 64 378 c 0,46,47
 64 384 64 384 60 387 c 0,48,49
 52 397 52 397 44 409 c 0,50,51
 40 415 40 415 37 421 c 128,-1,52
 34 427 34 427 31 433 c 0,53,54
 23 451 23 451 19 469 c 0,55,56
 16 487 16 487 16 508 c 2,57,-1
 16 519 l 1,58,-1
 16 529 l 2,59,60
 16 557 16 557 22 581 c 0,61,62
 28 604 28 604 41 627 c 0,63,64
 53 648 53 648 71 666 c 0,65,66
 81 674 81 674 91 681.5 c 128,-1,67
 101 689 101 689 113 695 c 0,68,69
 135 707 135 707 164 713 c 0,70,71
 178 716 178 716 192.5 718 c 128,-1,72
 207 720 207 720 223 720 c 0,73,74
 238 720 238 720 252.5 718 c 128,-1,75
 267 716 267 716 281 713 c 0,76,77
 309 707 309 707 332 695 c 0,78,79
 355 684 355 684 374 666 c 0,80,81
 392 648 392 648 404 627 c 0,82,83
 417 606 417 606 423 581 c 0,84,85
 429 555 429 555 429 529 c 2,86,-1
 429 519 l 1,87,-1
 429 508 l 2,88,89
 429 487 429 487 426 469 c 0,90,91
 421 451 421 451 414 433 c 0,92,93
 410 422 410 422 402 411 c 0,94,95
 396 401 396 401 388 391 c 0,96,97
 383 386 383 386 383 378 c 256,98,99
 383 370 383 370 389 366 c 0,100,101
 399 355 399 355 410 342 c 0,102,103
 415 336 415 336 418.5 329.5 c 128,-1,104
 422 323 422 323 426 315 c 0,0,1
288 499 m 2,105,-1
 288 511 l 1,106,-1
 288 523 l 2,107,108
 288 540 288 540 284 551 c 0,109,110
 279 565 279 565 271 573 c 0,111,112
 263 582 263 582 251 587 c 0,113,114
 238 592 238 592 223 592 c 0,115,116
 207 592 207 592 194 587 c 0,117,118
 182 582 182 582 174 573 c 0,119,120
 166 565 166 565 161 551 c 0,121,122
 157 540 157 540 157 523 c 2,123,-1
 157 511 l 1,124,-1
 157 499 l 2,125,126
 157 483 157 483 161 471 c 0,127,128
 166 457 166 457 174 449 c 0,129,130
 183 438 183 438 194 434 c 0,131,132
 207 429 207 429 223 429 c 0,133,134
 238 429 238 429 251 434 c 256,135,136
 264 439 264 439 271 449 c 0,137,138
 279 457 279 457 284 471 c 0,139,140
 288 483 288 483 288 499 c 2,105,-1
141 231 m 2,141,-1
 141 212 l 1,142,-1
 141 193 l 2,143,144
 141 176 141 176 147 161 c 0,145,146
 152 146 152 146 162 136 c 0,147,148
 174 124 174 124 187 119 c 0,149,150
 195 117 195 117 203.5 115.5 c 128,-1,151
 212 114 212 114 223 114 c 0,152,153
 241 114 241 114 258 119 c 0,154,155
 271 124 271 124 283 136 c 0,156,157
 292 145 292 145 299 161 c 0,158,159
 301 169 301 169 302.5 176.5 c 128,-1,160
 304 184 304 184 304 193 c 2,161,-1
 304 212 l 1,162,-1
 304 231 l 2,163,164
 304 248 304 248 299 263 c 0,165,166
 293 277 293 277 283 289 c 0,167,168
 273 299 273 299 258 305 c 256,169,170
 243 311 243 311 223 311 c 256,171,172
 203 311 203 311 187 305 c 0,173,174
 172 299 172 299 162 289 c 0,175,176
 151 276 151 276 147 263 c 0,177,178
 141 249 141 249 141 231 c 2,141,-1
EndSplineSet
EndChar

StartChar: nine
Encoding: 57 57 58
Width: 512
Flags: W
LayerCount: 2
Fore
SplineSet
27 339 m 0,0,1
 13 364 13 364 7 390 c 0,2,3
 3 404 3 404 1.5 418.5 c 128,-1,4
 0 433 0 433 0 448 c 2,5,-1
 0 478 l 1,6,-1
 0 509 l 2,7,8
 0 541 0 541 7 566 c 0,9,10
 13 592 13 592 27 618 c 0,11,12
 34 629 34 629 42 640 c 128,-1,13
 50 651 50 651 60 660 c 0,14,15
 70 670 70 670 81 677.5 c 128,-1,16
 92 685 92 685 105 692 c 0,17,18
 131 706 131 706 160 713 c 0,19,20
 175 716 175 716 191 718 c 128,-1,21
 207 720 207 720 224 720 c 256,22,23
 241 720 241 720 256.5 718 c 128,-1,24
 272 716 272 716 287 713 c 0,25,26
 316 706 316 706 342 692 c 0,27,28
 355 685 355 685 366 677.5 c 128,-1,29
 377 670 377 670 387 660 c 0,30,31
 397 651 397 651 405 640 c 128,-1,32
 413 629 413 629 420 618 c 0,33,34
 434 592 434 592 440 566 c 0,35,36
 447 541 447 541 447 509 c 2,37,-1
 447 488 l 1,38,-1
 447 468 l 2,39,40
 447 457 447 457 447 447.5 c 128,-1,41
 447 438 447 438 445 429 c 0,42,43
 444 420 444 420 443.5 412 c 128,-1,44
 443 404 443 404 441 397 c 0,45,46
 439 389 439 389 437 381.5 c 128,-1,47
 435 374 435 374 432 366 c 256,48,49
 429 358 429 358 426.5 349.5 c 128,-1,50
 424 341 424 341 419 332 c 2,51,-1
 340 183 l 1,52,-1
 262 35 l 2,53,54
 253 18 253 18 238 9 c 256,55,56
 223 0 223 0 204 0 c 256,57,58
 185 0 185 0 170.5 9 c 128,-1,59
 156 18 156 18 147 32 c 0,60,61
 139 46 139 46 138 62.5 c 128,-1,62
 137 79 137 79 146 96 c 2,63,-1
 181 163 l 1,64,-1
 216 230 l 2,65,66
 217 232 217 232 216 235 c 0,67,68
 214 237 214 237 212 237 c 0,69,70
 197 238 197 238 183 240 c 128,-1,71
 169 242 169 242 155 245 c 0,72,73
 141 249 141 249 128.5 253.5 c 128,-1,74
 116 258 116 258 105 264 c 0,75,76
 79 277 79 277 60 297 c 0,77,78
 40 315 40 315 27 339 c 0,0,1
141 454 m 2,79,80
 141 433 141 433 147 417 c 0,81,82
 152 400 152 400 162 389 c 0,83,84
 172 377 172 377 188 371 c 0,85,86
 203 365 203 365 224 365 c 0,87,88
 244 365 244 365 259 371 c 0,89,90
 274 376 274 376 285 389 c 0,91,92
 290 395 290 395 294 402 c 128,-1,93
 298 409 298 409 301 417 c 0,94,95
 306 435 306 435 306 454 c 2,96,-1
 306 478 l 1,97,-1
 306 503 l 2,98,99
 306 521 306 521 301 539 c 0,100,101
 294 557 294 557 285 568 c 0,102,103
 274 581 274 581 259 586 c 0,104,105
 244 592 244 592 224 592 c 0,106,107
 203 592 203 592 188 586 c 0,108,109
 172 580 172 580 162 568 c 256,110,111
 152 556 152 556 147 539 c 0,112,113
 141 522 141 522 141 503 c 2,114,-1
 141 478 l 1,115,-1
 141 454 l 2,79,80
EndSplineSet
EndChar

StartChar: colon
Encoding: 58 58 59
Width: 246
Flags: W
LayerCount: 2
Fore
SplineSet
89 349 m 256,0,1
 70 349 70 349 55 355 c 0,2,3
 47 358 47 358 40 363 c 128,-1,4
 33 368 33 368 26 374 c 0,5,6
 14 386 14 386 8 402 c 0,7,8
 1 419 1 419 1 435 c 0,9,10
 1 444 1 444 3 452.5 c 128,-1,11
 5 461 5 461 8 469 c 0,12,13
 14 483 14 483 26 497 c 0,14,15
 40 510 40 510 55 515 c 0,16,17
 72 522 72 522 89 522 c 0,18,19
 98 522 98 522 106.5 520 c 128,-1,20
 115 518 115 518 123 515 c 0,21,22
 140 508 140 508 151 497 c 0,23,24
 157 490 157 490 162 483.5 c 128,-1,25
 167 477 167 477 170 469 c 0,26,27
 176 452 176 452 176 435 c 0,28,29
 176 417 176 417 170 402 c 0,30,31
 165 388 165 388 151 374 c 0,32,33
 138 361 138 361 123 355 c 256,34,35
 108 349 108 349 89 349 c 256,0,1
150 138 m 0,36,37
 161 127 161 127 168 110 c 0,38,39
 175 96 175 96 175 77 c 0,40,41
 175 57 175 57 168 43 c 0,42,43
 161 26 161 26 150 15 c 0,44,45
 137 4 137 4 122 -4 c 0,46,47
 105 -10 105 -10 87 -10 c 0,48,49
 68 -10 68 -10 53 -4 c 0,50,51
 45 0 45 0 38 4.5 c 128,-1,52
 31 9 31 9 25 15 c 0,53,54
 12 28 12 28 6 43 c 256,55,56
 0 58 0 58 0 77 c 0,57,58
 0 95 0 95 6 110 c 256,59,60
 12 125 12 125 25 138 c 0,61,62
 31 144 31 144 38 148.5 c 128,-1,63
 45 153 45 153 53 157 c 0,64,65
 68 163 68 163 87 163 c 0,66,67
 105 163 105 163 122 157 c 0,68,69
 137 149 137 149 150 138 c 0,36,37
EndSplineSet
EndChar

StartChar: semicolon
Encoding: 59 59 60
Width: 248
Flags: W
LayerCount: 2
Fore
SplineSet
90 349 m 0,0,1
 71 349 71 349 56 355 c 256,2,3
 41 361 41 361 28 374 c 0,4,5
 14 388 14 388 9 402 c 0,6,7
 3 417 3 417 3 435 c 0,8,9
 3 452 3 452 9 469 c 0,10,11
 12 477 12 477 17 483.5 c 128,-1,12
 22 490 22 490 28 497 c 0,13,14
 39 508 39 508 56 515 c 256,15,16
 73 522 73 522 90 522 c 0,17,18
 100 522 100 522 108.5 520 c 128,-1,19
 117 518 117 518 125 515 c 0,20,21
 139 509 139 509 153 497 c 0,22,23
 165 483 165 483 171 469 c 0,24,25
 174 461 174 461 176 452.5 c 128,-1,26
 178 444 178 444 178 435 c 0,27,28
 178 419 178 419 171 402 c 0,29,30
 165 386 165 386 153 374 c 0,31,32
 146 368 146 368 139.5 363 c 128,-1,33
 133 358 133 358 125 355 c 0,34,35
 108 349 108 349 90 349 c 0,0,1
152 136 m 0,36,37
 164 125 164 125 171 107 c 0,38,39
 174 99 174 99 176 90.5 c 128,-1,40
 178 82 178 82 178 73 c 0,41,42
 178 61 178 61 175 49 c 0,43,44
 173 37 173 37 169 25 c 0,45,46
 167 20 167 20 164.5 14 c 128,-1,47
 162 8 162 8 159 2 c 256,48,49
 156 -4 156 -4 152.5 -10.5 c 128,-1,50
 149 -17 149 -17 146 -24 c 2,51,-1
 124 -63 l 1,52,-1
 103 -102 l 2,53,54
 96 -113 96 -113 88 -118 c 0,55,56
 78 -123 78 -123 67 -123 c 0,57,58
 44 -123 44 -123 33 -104 c 0,59,60
 28 -96 28 -96 26.5 -86 c 128,-1,61
 25 -76 25 -76 30 -65 c 2,62,-1
 42 -40 l 1,63,-1
 54 -15 l 2,64,65
 56 -12 56 -12 54 -7 c 0,66,67
 54 -4 54 -4 49 -2 c 0,68,69
 41 2 41 2 32 8 c 0,70,71
 28 11 28 11 25 14.5 c 128,-1,72
 22 18 22 18 18 22 c 0,73,74
 10 33 10 33 5 47 c 0,75,76
 0 62 0 62 0 77 c 0,77,78
 0 95 0 95 6 110 c 0,79,80
 10 118 10 118 14.5 125 c 128,-1,81
 19 132 19 132 26 138 c 0,82,83
 37 149 37 149 54 157 c 0,84,85
 69 163 69 163 87 163 c 0,86,87
 108 163 108 163 123 156 c 0,88,89
 140 150 140 150 152 136 c 0,36,37
EndSplineSet
EndChar

StartChar: equal
Encoding: 61 61 62
Width: 550
Flags: W
LayerCount: 2
Fore
SplineSet
60 151 m 2,0,1
 47 151 47 151 36.5 155.5 c 128,-1,2
 26 160 26 160 18 168 c 0,3,4
 0 186 0 186 0 211 c 0,5,6
 0 235 0 235 18 253 c 0,7,8
 34 271 34 271 60 271 c 2,9,-1
 240 271 l 1,10,-1
 421 271 l 2,11,12
 445 271 445 271 463 253 c 0,13,14
 480 236 480 236 480 211 c 0,15,16
 480 185 480 185 463 168 c 0,17,18
 455 160 455 160 444 155.5 c 128,-1,19
 433 151 433 151 421 151 c 2,20,-1
 240 151 l 1,21,-1
 60 151 l 2,0,1
0 407 m 0,22,23
 0 431 0 431 18 449 c 0,24,25
 34 467 34 467 60 467 c 2,26,-1
 240 467 l 1,27,-1
 421 467 l 2,28,29
 445 467 445 467 463 449 c 0,30,31
 480 432 480 432 480 407 c 0,32,33
 480 381 480 381 463 364 c 0,34,35
 455 356 455 356 444 351.5 c 128,-1,36
 433 347 433 347 421 347 c 2,37,-1
 240 347 l 1,38,-1
 60 347 l 2,39,40
 47 347 47 347 36.5 351.5 c 128,-1,41
 26 356 26 356 18 364 c 0,42,43
 0 382 0 382 0 407 c 0,22,23
EndSplineSet
EndChar

StartChar: question
Encoding: 63 63 64
Width: 519
Flags: W
LayerCount: 2
Fore
SplineSet
234 163 m 256,0,1
 253 163 253 163 268 157 c 0,2,3
 284 149 284 149 296 138 c 256,4,5
 308 127 308 127 315 110 c 0,6,7
 321 95 321 95 321 77 c 0,8,9
 321 58 321 58 315 43 c 0,10,11
 308 26 308 26 296 15 c 0,12,13
 284 3 284 3 268 -4 c 0,14,15
 253 -10 253 -10 234 -10 c 256,16,17
 215 -10 215 -10 200 -4 c 0,18,19
 183 3 183 3 172 15 c 0,20,21
 160 26 160 26 153 43 c 0,22,23
 147 58 147 58 147 77 c 0,24,25
 147 95 147 95 153 110 c 0,26,27
 160 127 160 127 172 138 c 0,28,29
 183 149 183 149 200 157 c 0,30,31
 215 163 215 163 234 163 c 256,0,1
438 573 m 0,32,33
 455 522 455 522 447 466 c 0,34,35
 442 439 442 439 431.5 414 c 128,-1,36
 421 389 421 389 402 369 c 0,37,38
 385 351 385 351 363 335 c 0,39,40
 352 327 352 327 341 321 c 128,-1,41
 330 315 330 315 318 309 c 2,42,-1
 314 307 l 1,43,-1
 309 304 l 2,44,45
 308 304 308 304 305 301 c 0,46,47
 304 299 304 299 304 296 c 2,48,-1
 304 278 l 1,49,-1
 304 260 l 2,50,51
 304 246 304 246 298.5 234.5 c 128,-1,52
 293 223 293 223 285 214 c 0,53,54
 265 196 265 196 239 196 c 2,55,-1
 231 196 l 1,56,-1
 223 196 l 2,57,58
 197 196 197 196 177 214 c 0,59,60
 169 223 169 223 163.5 234.5 c 128,-1,61
 158 246 158 246 158 260 c 2,62,-1
 158 304 l 1,63,-1
 158 347 l 2,64,65
 158 366 158 366 169 383 c 0,66,67
 181 400 181 400 198 407 c 2,68,-1
 220 416 l 1,69,-1
 230 420 l 2,70,71
 250 428 250 428 267.5 439.5 c 128,-1,72
 285 451 285 451 296 467 c 0,73,74
 307 484 307 484 309 503.5 c 128,-1,75
 311 523 311 523 300 547 c 0,76,77
 290 567 290 567 272 577.5 c 128,-1,78
 254 588 254 588 233 590 c 256,79,80
 212 592 212 592 191 586 c 128,-1,81
 170 580 170 580 155 566 c 0,82,83
 150 562 150 562 147 558.5 c 128,-1,84
 144 555 144 555 141 551 c 0,85,86
 136 544 136 544 132 535 c 0,87,88
 123 517 123 517 106 506 c 0,89,90
 88 495 88 495 68 496 c 0,91,92
 49 496 49 496 34 505 c 128,-1,93
 19 514 19 514 11 529 c 0,94,95
 2 543 2 543 0.5 560.5 c 128,-1,96
 -1 578 -1 578 7 595 c 0,97,98
 18 619 18 619 32 637 c 0,99,100
 47 655 47 655 69 672 c 0,101,102
 92 689 92 689 118.5 700 c 128,-1,103
 145 711 145 711 173 716 c 0,104,105
 202 721 202 721 231 720 c 128,-1,106
 260 719 260 719 287 711 c 0,107,108
 339 698 339 698 381 662 c 0,109,110
 401 644 401 644 415.5 621.5 c 128,-1,111
 430 599 430 599 438 573 c 0,32,33
EndSplineSet
EndChar

StartChar: at
Encoding: 64 64 65
Width: 846
Flags: W
LayerCount: 2
Fore
SplineSet
748 393 m 0,0,1
 761 361 761 361 769 323 c 0,2,3
 776 289 776 289 776 248 c 0,4,5
 776 190 776 190 763 147 c 0,6,7
 751 103 751 103 726 68 c 0,8,9
 713 50 713 50 699 39 c 0,10,11
 685 27 685 27 666 17 c 0,12,13
 649 8 649 8 629 3 c 0,14,15
 619 1 619 1 609 0 c 128,-1,16
 599 -1 599 -1 588 -1 c 0,17,18
 557 -1 557 -1 535 6 c 0,19,20
 511 14 511 14 493 29 c 0,21,22
 488 32 488 32 484 38 c 2,23,-1
 475 47 l 2,24,25
 472 52 472 52 466 52 c 0,26,27
 461 52 461 52 457 48 c 0,28,29
 446 37 446 37 432.5 27.5 c 128,-1,30
 419 18 419 18 404 12 c 0,31,32
 375 -1 375 -1 339 -1 c 256,33,34
 303 -1 303 -1 275 11 c 256,35,36
 247 23 247 23 226 45 c 0,37,38
 209 65 209 65 198 95 c 0,39,40
 189 123 189 123 189 159 c 0,41,42
 189 182 189 182 192 208 c 0,43,44
 194 220 194 220 196.5 231.5 c 128,-1,45
 199 243 199 243 202 255 c 0,46,47
 206 266 206 266 210 277 c 128,-1,48
 214 288 214 288 219 299 c 256,49,50
 224 310 224 310 230 319.5 c 128,-1,51
 236 329 236 329 242 338 c 0,52,53
 255 356 255 356 272 372 c 0,54,55
 280 380 280 380 288.5 386.5 c 128,-1,56
 297 393 297 393 307 398 c 0,57,58
 328 409 328 409 349 415 c 0,59,60
 360 418 360 418 371 419 c 128,-1,61
 382 420 382 420 394 420 c 2,62,-1
 416 420 l 2,63,64
 424 420 424 420 432 420 c 128,-1,65
 440 420 440 420 448 419 c 0,66,67
 477 418 477 418 501 405.5 c 128,-1,68
 525 393 525 393 542 372 c 256,69,70
 559 351 559 351 565.5 324.5 c 128,-1,71
 572 298 572 298 565 269 c 2,72,-1
 556 226 l 1,73,-1
 546 182 l 2,74,75
 543 167 543 167 542 154 c 128,-1,76
 541 141 541 141 542 130 c 0,77,78
 542 109 542 109 552 97 c 0,79,80
 559 89 559 89 567 86 c 0,81,82
 577 83 577 83 591 83 c 0,83,84
 615 83 615 83 631 97 c 0,85,86
 646 108 646 108 656 125 c 0,87,88
 663 136 663 136 667.5 149.5 c 128,-1,89
 672 163 672 163 676 178 c 0,90,91
 680 194 680 194 681.5 211 c 128,-1,92
 683 228 683 228 683 246 c 0,93,94
 683 278 683 278 677 308 c 0,95,96
 675 322 675 322 670.5 335.5 c 128,-1,97
 666 349 666 349 661 363 c 0,98,99
 651 386 651 386 636 407 c 0,100,101
 622 426 622 426 602 445 c 0,102,103
 563 478 563 478 513 494 c 0,104,105
 460 511 460 511 399 511 c 0,106,107
 328 511 328 511 274 489 c 0,108,109
 216 466 216 466 177 424 c 0,110,111
 159 405 159 405 143 379 c 0,112,113
 135 367 135 367 129 353.5 c 128,-1,114
 123 340 123 340 118 326 c 256,115,116
 113 312 113 312 109 297 c 128,-1,117
 105 282 105 282 103 266 c 256,118,119
 101 250 101 250 99.5 234 c 128,-1,120
 98 218 98 218 98 201 c 0,121,122
 98 134 98 134 117 84 c 0,123,124
 136 31 136 31 174 -6 c 0,125,126
 184 -16 184 -16 195 -24 c 128,-1,127
 206 -32 206 -32 218 -40 c 0,128,129
 241 -54 241 -54 270 -65 c 0,130,131
 302 -76 302 -76 335 -82 c 0,132,133
 353 -84 353 -84 371 -85.5 c 128,-1,134
 389 -87 389 -87 409 -87 c 0,135,136
 431 -87 431 -87 469 -84 c 0,137,138
 488 -82 488 -82 509 -77.5 c 128,-1,139
 530 -73 530 -73 551 -66 c 0,140,141
 569 -60 569 -60 586 -70 c 0,142,143
 601 -79 601 -79 606 -98 c 0,144,145
 609 -112 609 -112 602 -127 c 0,146,147
 595 -140 595 -140 580 -146 c 0,148,149
 557 -156 557 -156 532.5 -161.5 c 128,-1,150
 508 -167 508 -167 485 -170 c 256,151,152
 462 -173 462 -173 441 -174 c 128,-1,153
 420 -175 420 -175 404 -175 c 0,154,155
 312 -175 312 -175 237 -148 c 0,156,157
 163 -123 163 -123 108 -71 c 0,158,159
 56 -22 56 -22 27 49 c 0,160,161
 0 118 0 118 0 202 c 0,162,163
 0 223 0 223 1.5 243.5 c 128,-1,164
 3 264 3 264 7 284 c 0,165,166
 14 324 14 324 28 360 c 0,167,168
 41 397 41 397 62 428 c 0,169,170
 81 460 81 460 108 487 c 0,171,172
 121 501 121 501 135.5 512.5 c 128,-1,173
 150 524 150 524 166 535 c 0,174,175
 198 557 198 557 233 571 c 0,176,177
 269 585 269 585 312 593 c 256,178,179
 355 601 355 601 397 601 c 0,180,181
 438 601 438 601 476 595 c 0,182,183
 495 591 495 591 513.5 586.5 c 128,-1,184
 532 582 532 582 549 576 c 0,185,186
 585 564 585 564 614 546 c 0,187,188
 629 537 629 537 642.5 526.5 c 128,-1,189
 656 516 656 516 669 505 c 0,190,191
 694 481 694 481 715 453 c 0,192,193
 734 424 734 424 748 393 c 0,0,1
347 88 m 0,194,195
 372 88 372 88 394 105 c 0,196,197
 416 121 416 121 431 152 c 0,198,199
 435 160 435 160 439.5 173.5 c 128,-1,200
 444 187 444 187 449 204 c 256,201,202
 454 221 454 221 459 238 c 128,-1,203
 464 255 464 255 469 272 c 0,204,205
 475 294 475 294 462 312 c 0,206,207
 449 329 449 329 426 331 c 2,208,-1
 410 331 l 1,209,-1
 398 331 l 2,210,211
 390 331 390 331 380.5 329 c 128,-1,212
 371 327 371 327 360 321 c 0,213,214
 350 315 350 315 339.5 305 c 128,-1,215
 329 295 329 295 319 279 c 0,216,217
 311 266 311 266 306 252.5 c 128,-1,218
 301 239 301 239 296 224 c 0,219,220
 288 192 288 192 288 161 c 0,221,222
 288 152 288 152 289 144 c 128,-1,223
 290 136 290 136 292 129 c 0,224,225
 296 114 296 114 304 105 c 0,226,227
 311 97 311 97 322 93 c 0,228,229
 334 88 334 88 347 88 c 0,194,195
EndSplineSet
EndChar

StartChar: A
Encoding: 65 65 66
Width: 546
Flags: W
LayerCount: 2
Fore
SplineSet
433 610 m 0,0,1
 447 582 447 582 454 554 c 0,2,3
 457 540 457 540 459 524.5 c 128,-1,4
 461 509 461 509 461 492 c 2,5,-1
 461 282 l 1,6,-1
 461 73 l 2,7,8
 461 42 461 42 440 21 c 0,9,10
 417 0 417 0 388 0 c 0,11,12
 358 0 358 0 337 21 c 256,13,14
 316 42 316 42 316 73 c 2,15,-1
 316 144 l 1,16,-1
 316 215 l 2,17,18
 316 219 316 219 313 222 c 256,19,20
 310 225 310 225 306 225 c 2,21,-1
 230 225 l 1,22,-1
 155 225 l 2,23,24
 151 225 151 225 148 222 c 0,25,26
 145 220 145 220 145 215 c 2,27,-1
 145 144 l 1,28,-1
 145 73 l 2,29,30
 145 42 145 42 124 21 c 256,31,32
 103 0 103 0 73 0 c 0,33,34
 42 0 42 0 21 21 c 256,35,36
 0 42 0 42 0 73 c 2,37,-1
 0 282 l 1,38,-1
 0 492 l 2,39,40
 0 527 0 527 7 554 c 0,41,42
 11 569 11 569 15.5 582.5 c 128,-1,43
 20 596 20 596 28 610 c 0,44,45
 41 634 41 634 61 656 c 0,46,47
 72 666 72 666 83 674.5 c 128,-1,48
 94 683 94 683 107 690 c 0,49,50
 132 704 132 704 164 712 c 0,51,52
 198 720 198 720 230 720 c 0,53,54
 248 720 248 720 264.5 718 c 128,-1,55
 281 716 281 716 297 712 c 0,56,57
 329 704 329 704 353 690 c 0,58,59
 367 683 367 683 378 674.5 c 128,-1,60
 389 666 389 666 399 656 c 0,61,62
 419 635 419 635 433 610 c 0,0,1
155 353 m 2,63,-1
 230 353 l 1,64,-1
 306 353 l 2,65,66
 310 353 310 353 313 356 c 0,67,68
 314 358 314 358 315 359.5 c 128,-1,69
 316 361 316 361 316 363 c 2,70,-1
 316 425 l 1,71,-1
 316 486 l 2,72,73
 316 508 316 508 310 528 c 0,74,75
 306 544 306 544 294 561 c 0,76,77
 283 575 283 575 268 581 c 0,78,79
 253 588 253 588 230 588 c 0,80,81
 208 588 208 588 193 581 c 0,82,83
 178 575 178 575 167 561 c 0,84,85
 155 544 155 544 151 528 c 0,86,87
 145 508 145 508 145 486 c 2,88,-1
 145 425 l 1,89,-1
 145 363 l 2,90,91
 145 359 145 359 148 356 c 256,92,93
 151 353 151 353 155 353 c 2,63,-1
EndSplineSet
EndChar

StartChar: B
Encoding: 66 66 67
Width: 522
Flags: W
LayerCount: 2
Fore
SplineSet
428 307 m 0,0,1
 433 298 433 298 438 285 c 256,2,3
 443 272 443 272 446 262 c 0,4,5
 448 257 448 257 448.5 250.5 c 128,-1,6
 449 244 449 244 450 238 c 256,7,8
 451 232 451 232 451.5 225.5 c 128,-1,9
 452 219 452 219 452 213 c 0,10,11
 452 205 452 205 451.5 197.5 c 128,-1,12
 451 190 451 190 450 182 c 0,13,14
 448 166 448 166 444 153 c 0,15,16
 441 139 441 139 435 125 c 0,17,18
 432 119 432 119 429 112.5 c 128,-1,19
 426 106 426 106 422 100 c 256,20,21
 418 94 418 94 414 88.5 c 128,-1,22
 410 83 410 83 405 78 c 256,23,24
 400 73 400 73 395.5 68 c 128,-1,25
 391 63 391 63 386 58 c 256,26,27
 381 53 381 53 375.5 49 c 128,-1,28
 370 45 370 45 364 40 c 0,29,30
 358 36 358 36 352 32.5 c 128,-1,31
 346 29 346 29 340 26 c 0,32,33
 333 23 333 23 326.5 20 c 128,-1,34
 320 17 320 17 313 15 c 0,35,36
 306 12 306 12 299.5 10.5 c 128,-1,37
 293 9 293 9 286 7 c 0,38,39
 278 5 278 5 271 4 c 128,-1,40
 264 3 264 3 257 2 c 0,41,42
 249 1 249 1 241.5 0.5 c 128,-1,43
 234 0 234 0 226 0 c 2,44,-1
 186 0 l 1,45,-1
 146 0 l 1,46,-1
 105 0 l 1,47,-1
 65 0 l 2,48,49
 52 0 52 0 40 5 c 0,50,51
 29 9 29 9 19 19 c 256,52,53
 9 29 9 29 5 40 c 0,54,55
 0 52 0 52 0 65 c 2,56,-1
 0 209 l 1,57,-1
 0 353 l 1,58,-1
 0 497 l 1,59,-1
 0 641 l 2,60,61
 0 653 0 653 5 666 c 0,62,63
 9 677 9 677 19 687 c 0,64,65
 24 692 24 692 29 695 c 128,-1,66
 34 698 34 698 40 701 c 0,67,68
 52 706 52 706 65 706 c 2,69,-1
 105 706 l 1,70,-1
 146 706 l 1,71,-1
 186 706 l 1,72,-1
 226 706 l 2,73,74
 234 706 234 706 240.5 705.5 c 128,-1,75
 247 705 247 705 255 704 c 0,76,77
 262 703 262 703 268.5 702.5 c 128,-1,78
 275 702 275 702 282 700 c 256,79,80
 289 698 289 698 295 696.5 c 128,-1,81
 301 695 301 695 308 693 c 0,82,83
 320 688 320 688 333 682 c 0,84,85
 339 679 339 679 345 676 c 128,-1,86
 351 673 351 673 356 669 c 256,87,88
 361 665 361 665 366.5 661.5 c 128,-1,89
 372 658 372 658 377 653 c 0,90,91
 386 645 386 645 395 635 c 0,92,93
 399 630 399 630 403 625 c 128,-1,94
 407 620 407 620 410 614 c 0,95,96
 414 609 414 609 417 603 c 128,-1,97
 420 597 420 597 423 591 c 0,98,99
 425 585 425 585 427.5 579 c 128,-1,100
 430 573 430 573 432 566 c 0,101,102
 434 560 434 560 435 553.5 c 128,-1,103
 436 547 436 547 437 540 c 256,104,105
 438 533 438 533 438.5 526 c 128,-1,106
 439 519 439 519 439 512 c 0,107,108
 439 506 439 506 439 500.5 c 128,-1,109
 439 495 439 495 438 490 c 0,110,111
 436 476 436 476 434 468 c 0,112,113
 432 463 432 463 431 458 c 128,-1,114
 430 453 430 453 428 448 c 256,115,116
 426 443 426 443 423.5 438.5 c 128,-1,117
 421 434 421 434 419 429 c 0,118,119
 417 426 417 426 414.5 422.5 c 128,-1,120
 412 419 412 419 410 416 c 0,121,122
 408 412 408 412 405.5 409 c 128,-1,123
 403 406 403 406 401 403 c 0,124,125
 398 400 398 400 395.5 397 c 128,-1,126
 393 394 393 394 390 391 c 256,127,128
 387 388 387 388 384 385 c 128,-1,129
 381 382 381 382 378 380 c 0,130,131
 377 379 377 379 376.5 378 c 128,-1,132
 376 377 376 377 375 376 c 2,133,-1
 375 372 l 2,134,135
 375 369 375 369 376 368 c 0,136,137
 376 366 376 366 378 364 c 0,138,139
 382 361 382 361 385.5 358 c 128,-1,140
 389 355 389 355 393 351 c 0,141,142
 396 348 396 348 399.5 345 c 128,-1,143
 403 342 403 342 406 338 c 256,144,145
 409 334 409 334 412 330.5 c 128,-1,146
 415 327 415 327 417 323 c 0,147,148
 420 319 420 319 422.5 315 c 128,-1,149
 425 311 425 311 428 307 c 0,0,1
145 296 m 2,150,-1
 145 256 l 1,151,-1
 145 217 l 1,152,-1
 145 177 l 1,153,-1
 145 138 l 2,154,155
 145 136 145 136 145.5 135.5 c 128,-1,156
 146 135 146 135 146 134 c 0,157,158
 149 131 149 131 148 131 c 1,159,-1
 151 128 l 1,160,-1
 155 128 l 1,161,-1
 172 128 l 1,162,-1
 188 128 l 1,163,-1
 204 128 l 1,164,-1
 220 128 l 2,165,166
 225 128 225 128 229.5 128 c 128,-1,167
 234 128 234 128 239 129 c 0,168,169
 246 130 246 130 255 134 c 0,170,171
 265 137 265 137 270 141 c 0,172,173
 274 143 274 143 277 146 c 128,-1,174
 280 149 280 149 284 152 c 0,175,176
 289 157 289 157 294 165 c 0,177,178
 297 168 297 168 298.5 172 c 128,-1,179
 300 176 300 176 302 180 c 0,180,181
 306 189 306 189 307 197 c 0,182,183
 308 202 308 202 308 207 c 128,-1,184
 308 212 308 212 308 217 c 256,185,186
 308 222 308 222 308 226.5 c 128,-1,187
 308 231 308 231 307 236 c 0,188,189
 306 244 306 244 302 253 c 0,190,191
 299 263 299 263 294 269 c 0,192,193
 292 272 292 272 289.5 275.5 c 128,-1,194
 287 279 287 279 284 282 c 0,195,196
 276 288 276 288 270 292 c 0,197,198
 263 297 263 297 255 300 c 0,199,200
 251 302 251 302 247 302.5 c 128,-1,201
 243 303 243 303 239 304 c 0,202,203
 234 305 234 305 229.5 305.5 c 128,-1,204
 225 306 225 306 220 306 c 2,205,-1
 204 306 l 1,206,-1
 188 306 l 1,207,-1
 172 306 l 1,208,-1
 155 306 l 2,209,210
 154 306 154 306 153.5 305.5 c 128,-1,211
 153 305 153 305 151 305 c 0,212,213
 150 304 150 304 149.5 304 c 128,-1,214
 149 304 149 304 148 303 c 256,215,216
 147 302 147 302 147 301.5 c 128,-1,217
 147 301 147 301 146 300 c 0,218,219
 146 298 146 298 145.5 297.5 c 128,-1,220
 145 297 145 297 145 296 c 2,150,-1
274 451 m 0,221,222
 278 454 278 454 284 462 c 0,223,224
 286 465 286 465 287.5 468 c 128,-1,225
 289 471 289 471 290 474 c 0,226,227
 294 484 294 484 294 489 c 0,228,229
 295 493 295 493 295.5 496.5 c 128,-1,230
 296 500 296 500 296 505 c 256,231,232
 296 510 296 510 294 520 c 0,233,234
 294 526 294 526 290 534 c 0,235,236
 289 537 289 537 287.5 540.5 c 128,-1,237
 286 544 286 544 284 546 c 0,238,239
 278 554 278 554 274 558 c 0,240,241
 271 561 271 561 263 567 c 0,242,243
 260 569 260 569 256.5 570 c 128,-1,244
 253 571 253 571 250 573 c 0,245,246
 244 575 244 575 236 577 c 0,247,248
 231 578 231 578 220 578 c 2,249,-1
 204 578 l 1,250,-1
 188 578 l 1,251,-1
 172 578 l 1,252,-1
 155 578 l 2,253,254
 153 578 153 578 151 577 c 0,255,256
 150 577 150 577 148 575 c 0,257,258
 147 574 147 574 147 573.5 c 128,-1,259
 147 573 147 573 146 572 c 0,260,261
 146 571 146 571 145.5 570.5 c 128,-1,262
 145 570 145 570 145 568 c 2,263,-1
 145 537 l 1,264,-1
 145 505 l 1,265,-1
 145 473 l 1,266,-1
 145 441 l 2,267,268
 145 440 145 440 145.5 439.5 c 128,-1,269
 146 439 146 439 146 438 c 0,270,271
 148 434 148 434 148 434 c 2,272,273
 149 433 149 433 149.5 433 c 128,-1,274
 150 433 150 433 151 432 c 0,275,276
 153 432 153 432 153.5 431.5 c 128,-1,277
 154 431 154 431 155 431 c 2,278,-1
 172 431 l 1,279,-1
 188 431 l 1,280,-1
 204 431 l 1,281,-1
 220 431 l 2,282,283
 225 431 225 431 228.5 431.5 c 128,-1,284
 232 432 232 432 236 433 c 0,285,286
 240 433 240 433 243.5 434 c 128,-1,287
 247 435 247 435 250 436 c 0,288,289
 258 439 258 439 263 443 c 0,290,291
 269 446 269 446 274 451 c 0,221,222
EndSplineSet
EndChar

StartChar: C
Encoding: 67 67 68
Width: 531
Flags: W
LayerCount: 2
Fore
SplineSet
388 292 m 0,0,1
 418 294 418 294 439 271 c 0,2,3
 461 251 461 251 461 220 c 2,4,-1
 461 217 l 1,5,-1
 461 214 l 2,6,7
 461 197 461 197 459 181.5 c 128,-1,8
 457 166 457 166 454 151 c 0,9,10
 446 121 446 121 433 96 c 0,11,12
 419 70 419 70 399 50 c 0,13,14
 378 29 378 29 353 15 c 0,15,16
 340 8 340 8 326 2.5 c 128,-1,17
 312 -3 312 -3 297 -6 c 0,18,19
 281 -10 281 -10 264.5 -12 c 128,-1,20
 248 -14 248 -14 230 -14 c 0,21,22
 198 -14 198 -14 164 -6 c 0,23,24
 149 -3 149 -3 135 2.5 c 128,-1,25
 121 8 121 8 107 15 c 0,26,27
 94 23 94 23 83 31.5 c 128,-1,28
 72 40 72 40 61 50 c 0,29,30
 41 72 41 72 28 96 c 0,31,32
 20 109 20 109 15.5 123 c 128,-1,33
 11 137 11 137 7 151 c 0,34,35
 0 179 0 179 0 214 c 2,36,-1
 0 353 l 1,37,-1
 0 492 l 2,38,39
 0 527 0 527 7 554 c 0,40,41
 11 569 11 569 15.5 582.5 c 128,-1,42
 20 596 20 596 28 610 c 0,43,44
 41 634 41 634 61 656 c 0,45,46
 72 666 72 666 83 674.5 c 128,-1,47
 94 683 94 683 107 690 c 0,48,49
 132 704 132 704 164 712 c 0,50,51
 198 720 198 720 230 720 c 0,52,53
 248 720 248 720 264.5 718 c 128,-1,54
 281 716 281 716 297 712 c 0,55,56
 329 704 329 704 353 690 c 0,57,58
 374 679 374 679 389 665 c 0,59,60
 397 658 397 658 404 650 c 128,-1,61
 411 642 411 642 418 634 c 0,62,63
 437 609 437 609 435 581 c 256,64,65
 433 553 433 553 410 535 c 0,66,67
 388 518 388 518 356 521 c 0,68,69
 341 523 341 523 327 529.5 c 128,-1,70
 313 536 313 536 303 549 c 0,71,72
 288 567 288 567 272 578 c 0,73,74
 252 589 252 589 230 589 c 0,75,76
 196 589 196 589 172 565 c 0,77,78
 161 554 161 554 153 539.5 c 128,-1,79
 145 525 145 525 145 508 c 2,80,-1
 145 364 l 1,81,-1
 145 220 l 2,82,83
 145 196 145 196 151 178 c 0,84,85
 153 168 153 168 157.5 160.5 c 128,-1,86
 162 153 162 153 167 145 c 0,87,88
 178 131 178 131 193 125 c 0,89,90
 208 118 208 118 230 118 c 0,91,92
 253 118 253 118 268 125 c 0,93,94
 283 131 283 131 294 145 c 0,95,96
 299 153 299 153 303.5 160.5 c 128,-1,97
 308 168 308 168 310 178 c 0,98,99
 316 196 316 196 316 219 c 2,100,-1
 316 220 l 2,101,102
 316 248 316 248 337 271 c 0,103,104
 358 292 358 292 388 292 c 0,0,1
EndSplineSet
EndChar

StartChar: D
Encoding: 68 68 69
Width: 512
Flags: W
LayerCount: 2
Fore
SplineSet
415 593 m 0,0,1
 422 579 422 579 427 565.5 c 128,-1,2
 432 552 432 552 435 537 c 0,3,4
 442 509 442 509 442 474 c 2,5,-1
 442 353 l 1,6,-1
 442 231 l 2,7,8
 442 197 442 197 435 169 c 0,9,10
 429 140 429 140 415 113 c 0,11,12
 403 88 403 88 382 66 c 0,13,14
 362 45 362 45 337 30 c 0,15,16
 313 16 313 16 281 8 c 256,17,18
 249 0 249 0 216 0 c 2,19,-1
 141 0 l 1,20,-1
 65 0 l 2,21,22
 38 0 38 0 19 19 c 256,23,24
 0 38 0 38 0 65 c 2,25,-1
 0 353 l 1,26,-1
 0 641 l 2,27,28
 0 668 0 668 19 687 c 256,29,30
 38 706 38 706 65 706 c 2,31,-1
 141 706 l 1,32,-1
 216 706 l 2,33,34
 249 706 249 706 281 698 c 256,35,36
 313 690 313 690 337 676 c 0,37,38
 362 661 362 661 382 640 c 0,39,40
 401 620 401 620 415 593 c 0,0,1
145 564 m 2,41,-1
 145 353 l 1,42,-1
 145 142 l 2,43,44
 145 137 145 137 148 134 c 0,45,46
 152 132 152 132 155 132 c 2,47,-1
 182 132 l 1,48,-1
 209 132 l 2,49,50
 232 132 232 132 247 139 c 0,51,52
 263 145 263 145 274 160 c 0,53,54
 285 173 285 173 291 194 c 0,55,56
 297 213 297 213 297 237 c 2,57,-1
 297 353 l 1,58,-1
 297 469 l 2,59,60
 297 492 297 492 291 512 c 0,61,62
 285 533 285 533 274 546 c 0,63,64
 269 553 269 553 262 558.5 c 128,-1,65
 255 564 255 564 247 567 c 0,66,67
 232 574 232 574 209 574 c 2,68,-1
 182 574 l 1,69,-1
 155 574 l 2,70,71
 151 574 151 574 148 571 c 0,72,73
 145 569 145 569 145 564 c 2,41,-1
EndSplineSet
EndChar

StartChar: E
Encoding: 69 69 70
Width: 451
Flags: W
LayerCount: 2
Fore
SplineSet
145 140 m 2,0,1
 145 135 145 135 148 132 c 0,2,3
 152 130 152 130 155 130 c 2,4,-1
 236 130 l 1,5,-1
 316 130 l 2,6,7
 330 130 330 130 342 124.5 c 128,-1,8
 354 119 354 119 362 111 c 0,9,10
 367 106 367 106 370.5 98.5 c 128,-1,11
 374 91 374 91 376 83 c 0,12,13
 379 74 379 74 381 65 c 0,14,15
 381 38 381 38 362 19 c 0,16,17
 345 0 345 0 316 0 c 2,18,-1
 191 0 l 1,19,-1
 65 0 l 2,20,21
 38 0 38 0 19 19 c 256,22,23
 0 38 0 38 0 65 c 2,24,-1
 0 353 l 1,25,-1
 0 641 l 2,26,27
 0 668 0 668 19 687 c 256,28,29
 38 706 38 706 65 706 c 2,30,-1
 189 706 l 1,31,-1
 314 706 l 2,32,33
 342 706 342 706 359 687 c 0,34,35
 378 668 378 668 378 641 c 256,36,37
 378 614 378 614 359 595 c 0,38,39
 342 576 342 576 314 576 c 2,40,-1
 234 576 l 1,41,-1
 155 576 l 2,42,43
 151 576 151 576 148 573 c 0,44,45
 145 571 145 571 145 566 c 2,46,-1
 145 504 l 1,47,-1
 145 442 l 2,48,49
 145 438 145 438 148 435 c 256,50,51
 151 432 151 432 155 432 c 2,52,-1
 214 432 l 1,53,-1
 272 432 l 2,54,55
 299 432 299 432 318 413 c 0,56,57
 337 396 337 396 337 368 c 0,58,59
 337 341 337 341 318 322 c 256,60,61
 299 303 299 303 272 303 c 2,62,-1
 214 303 l 1,63,-1
 155 303 l 2,64,65
 151 303 151 303 148 300 c 256,66,67
 145 297 145 297 145 293 c 2,68,-1
 145 216 l 1,69,-1
 145 140 l 2,0,1
EndSplineSet
EndChar

StartChar: F
Encoding: 70 70 71
Width: 448
Flags: W
LayerCount: 2
Fore
SplineSet
378 641 m 256,0,1
 378 614 378 614 359 595 c 0,2,3
 342 576 342 576 314 576 c 2,4,-1
 234 576 l 1,5,-1
 155 576 l 2,6,7
 151 576 151 576 148 573 c 0,8,9
 145 571 145 571 145 566 c 2,10,-1
 145 504 l 1,11,-1
 145 442 l 2,12,13
 145 438 145 438 148 435 c 256,14,15
 151 432 151 432 155 432 c 2,16,-1
 211 432 l 1,17,-1
 267 432 l 2,18,19
 294 432 294 432 313 413 c 0,20,21
 332 396 332 396 332 368 c 0,22,23
 332 341 332 341 313 322 c 256,24,25
 294 303 294 303 267 303 c 2,26,-1
 211 303 l 1,27,-1
 155 303 l 2,28,29
 151 303 151 303 148 300 c 256,30,31
 145 297 145 297 145 293 c 2,32,-1
 145 183 l 1,33,-1
 145 73 l 2,34,35
 145 42 145 42 124 21 c 256,36,37
 103 0 103 0 73 0 c 0,38,39
 42 0 42 0 21 21 c 256,40,41
 0 42 0 42 0 73 c 2,42,-1
 0 357 l 1,43,-1
 0 641 l 2,44,45
 0 668 0 668 19 687 c 256,46,47
 38 706 38 706 65 706 c 2,48,-1
 189 706 l 1,49,-1
 314 706 l 2,50,51
 342 706 342 706 359 687 c 0,52,53
 378 668 378 668 378 641 c 256,0,1
EndSplineSet
EndChar

StartChar: G
Encoding: 71 71 72
Width: 531
Flags: W
LayerCount: 2
Fore
SplineSet
396 418 m 2,0,1
 423 418 423 418 442 399 c 256,2,3
 461 380 461 380 461 353 c 2,4,-1
 461 283 l 1,5,-1
 461 214 l 2,6,7
 461 197 461 197 459 181.5 c 128,-1,8
 457 166 457 166 454 151 c 0,9,10
 446 121 446 121 433 96 c 0,11,12
 419 70 419 70 399 50 c 0,13,14
 378 29 378 29 353 15 c 0,15,16
 340 8 340 8 326 2.5 c 128,-1,17
 312 -3 312 -3 297 -6 c 0,18,19
 281 -10 281 -10 264.5 -12 c 128,-1,20
 248 -14 248 -14 230 -14 c 0,21,22
 198 -14 198 -14 164 -6 c 0,23,24
 149 -3 149 -3 135 2.5 c 128,-1,25
 121 8 121 8 107 15 c 0,26,27
 94 23 94 23 83 31.5 c 128,-1,28
 72 40 72 40 61 50 c 0,29,30
 41 72 41 72 28 96 c 0,31,32
 20 109 20 109 15.5 123 c 128,-1,33
 11 137 11 137 7 151 c 0,34,35
 0 179 0 179 0 214 c 2,36,-1
 0 353 l 1,37,-1
 0 492 l 2,38,39
 0 527 0 527 7 554 c 0,40,41
 11 569 11 569 15.5 582.5 c 128,-1,42
 20 596 20 596 28 610 c 0,43,44
 41 634 41 634 61 656 c 0,45,46
 72 666 72 666 83 674.5 c 128,-1,47
 94 683 94 683 107 690 c 0,48,49
 132 704 132 704 164 712 c 0,50,51
 198 720 198 720 230 720 c 0,52,53
 248 720 248 720 264.5 718 c 128,-1,54
 281 716 281 716 297 712 c 0,55,56
 329 704 329 704 353 690 c 0,57,58
 374 679 374 679 389 665 c 0,59,60
 397 658 397 658 404 650 c 128,-1,61
 411 642 411 642 418 634 c 0,62,63
 437 609 437 609 435 581 c 256,64,65
 433 553 433 553 410 535 c 0,66,67
 388 518 388 518 356 521 c 0,68,69
 341 523 341 523 327 529.5 c 128,-1,70
 313 536 313 536 303 549 c 0,71,72
 288 567 288 567 272 578 c 0,73,74
 252 589 252 589 230 589 c 0,75,76
 196 589 196 589 172 565 c 0,77,78
 161 554 161 554 153 539.5 c 128,-1,79
 145 525 145 525 145 508 c 2,80,-1
 145 364 l 1,81,-1
 145 220 l 2,82,83
 145 196 145 196 151 178 c 0,84,85
 153 168 153 168 157.5 160.5 c 128,-1,86
 162 153 162 153 167 145 c 0,87,88
 178 131 178 131 193 125 c 0,89,90
 208 118 208 118 230 118 c 0,91,92
 253 118 253 118 268 125 c 0,93,94
 283 131 283 131 294 145 c 0,95,96
 299 153 299 153 303.5 160.5 c 128,-1,97
 308 168 308 168 310 178 c 0,98,99
 316 196 316 196 316 220 c 2,100,-1
 316 254 l 1,101,-1
 316 288 l 1,102,-1
 297 288 l 1,103,-1
 278 288 l 2,104,105
 250 288 250 288 233 307 c 0,106,107
 214 326 214 326 214 353 c 256,108,109
 214 380 214 380 233 399 c 0,110,111
 250 418 250 418 278 418 c 2,112,-1
 331 418 l 1,113,-1
 396 418 l 2,0,1
EndSplineSet
EndChar

StartChar: H
Encoding: 72 72 73
Width: 539
Flags: W
LayerCount: 2
Fore
SplineSet
309 633 m 2,0,1
 309 662 309 662 330 685 c 0,2,3
 351 706 351 706 381 706 c 256,4,5
 411 706 411 706 432 685 c 0,6,7
 454 663 454 663 454 633 c 2,8,-1
 454 353 l 1,9,-1
 454 73 l 2,10,11
 454 41 454 41 432 21 c 0,12,13
 411 0 411 0 381 0 c 256,14,15
 351 0 351 0 330 21 c 256,16,17
 309 42 309 42 309 73 c 2,18,-1
 309 183 l 1,19,-1
 309 293 l 2,20,21
 309 295 309 295 308 296.5 c 128,-1,22
 307 298 307 298 306 300 c 0,23,24
 303 303 303 303 299 303 c 2,25,-1
 227 303 l 1,26,-1
 155 303 l 2,27,28
 151 303 151 303 148 300 c 256,29,30
 145 297 145 297 145 293 c 2,31,-1
 145 183 l 1,32,-1
 145 73 l 2,33,34
 145 42 145 42 124 21 c 256,35,36
 103 0 103 0 73 0 c 0,37,38
 42 0 42 0 21 21 c 256,39,40
 0 42 0 42 0 73 c 2,41,-1
 0 353 l 1,42,-1
 0 633 l 2,43,44
 0 662 0 662 21 685 c 0,45,46
 42 706 42 706 73 706 c 0,47,48
 103 706 103 706 124 685 c 0,49,50
 145 662 145 662 145 633 c 2,51,-1
 145 538 l 1,52,-1
 145 442 l 2,53,54
 145 438 145 438 148 435 c 256,55,56
 151 432 151 432 155 432 c 2,57,-1
 227 432 l 1,58,-1
 299 432 l 2,59,60
 303 432 303 432 306 435 c 0,61,62
 307 437 307 437 308 438.5 c 128,-1,63
 309 440 309 440 309 442 c 2,64,-1
 309 538 l 1,65,-1
 309 633 l 2,0,1
EndSplineSet
EndChar

StartChar: I
Encoding: 73 73 74
Width: 230
Flags: W
LayerCount: 2
Fore
SplineSet
0 633 m 2,0,1
 0 662 0 662 21 685 c 0,2,3
 42 706 42 706 73 706 c 0,4,5
 103 706 103 706 124 685 c 0,6,7
 145 662 145 662 145 633 c 2,8,-1
 145 353 l 1,9,-1
 145 73 l 2,10,11
 145 42 145 42 124 21 c 256,12,13
 103 0 103 0 73 0 c 0,14,15
 42 0 42 0 21 21 c 256,16,17
 0 42 0 42 0 73 c 2,18,-1
 0 353 l 1,19,-1
 0 633 l 2,0,1
EndSplineSet
EndChar

StartChar: J
Encoding: 74 74 75
Width: 533
Flags: W
LayerCount: 2
Fore
SplineSet
448 633 m 2,0,-1
 448 423 l 1,1,-1
 448 214 l 2,2,3
 448 179 448 179 441 151 c 0,4,5
 437 137 437 137 432.5 123 c 128,-1,6
 428 109 428 109 420 96 c 0,7,8
 407 72 407 72 387 50 c 0,9,10
 376 40 376 40 365 31.5 c 128,-1,11
 354 23 354 23 341 15 c 0,12,13
 327 8 327 8 313 2.5 c 128,-1,14
 299 -3 299 -3 284 -6 c 0,15,16
 250 -14 250 -14 218 -14 c 0,17,18
 200 -14 200 -14 183.5 -12 c 128,-1,19
 167 -10 167 -10 151 -6 c 0,20,21
 136 -3 136 -3 122 2.5 c 128,-1,22
 108 8 108 8 95 15 c 0,23,24
 83 22 83 22 73 29.5 c 128,-1,25
 63 37 63 37 54 45 c 0,26,27
 45 54 45 54 37 63.5 c 128,-1,28
 29 73 29 73 22 84 c 0,29,30
 17 91 17 91 14 98 c 0,31,32
 12 101 12 101 10 104.5 c 128,-1,33
 8 108 8 108 6 112 c 0,34,35
 -2 130 -2 130 0 148 c 128,-1,36
 2 166 2 166 13 180 c 0,37,38
 23 194 23 194 39 203 c 128,-1,39
 55 212 55 212 75 210 c 0,40,41
 92 209 92 209 109 197 c 0,42,43
 124 186 124 186 133 170 c 0,44,45
 136 162 136 162 140 157 c 0,46,47
 142 154 142 154 144.5 150.5 c 128,-1,48
 147 147 147 147 150 144 c 0,49,50
 166 129 166 129 182 123 c 0,51,52
 190 120 190 120 198.5 119 c 128,-1,53
 207 118 207 118 218 118 c 0,54,55
 240 118 240 118 255 125 c 0,56,57
 270 131 270 131 281 145 c 0,58,59
 286 153 286 153 290.5 160.5 c 128,-1,60
 295 168 295 168 297 178 c 0,61,62
 303 196 303 196 303 220 c 2,63,-1
 303 426 l 1,64,-1
 303 633 l 2,65,66
 303 662 303 662 324 685 c 0,67,68
 345 706 345 706 375 706 c 0,69,70
 406 706 406 706 427 685 c 0,71,72
 448 662 448 662 448 633 c 2,0,-1
EndSplineSet
EndChar

StartChar: K
Encoding: 75 75 76
Width: 510
Flags: W
LayerCount: 2
Fore
SplineSet
429 111 m 2,0,1
 437 98 437 98 439 83.5 c 128,-1,2
 441 69 441 69 438 55 c 0,3,4
 434 41 434 41 426 29.5 c 128,-1,5
 418 18 418 18 404 10 c 0,6,7
 391 2 391 2 377 0.5 c 128,-1,8
 363 -1 363 -1 349 2 c 0,9,10
 320 10 320 10 305 35 c 2,11,-1
 230 161 l 1,12,-1
 155 286 l 2,13,14
 153 289 153 289 149 289 c 0,15,16
 145 287 145 287 145 284 c 2,17,-1
 145 178 l 1,18,-1
 145 73 l 2,19,20
 145 42 145 42 124 21 c 256,21,22
 103 0 103 0 72 0 c 0,23,24
 57 0 57 0 44 6 c 128,-1,25
 31 12 31 12 21 22 c 0,26,27
 0 43 0 43 0 74 c 2,28,-1
 0 353 l 1,29,-1
 0 633 l 2,30,31
 0 664 0 664 21 685 c 0,32,33
 44 706 44 706 73 706 c 0,34,35
 88 706 88 706 101 700 c 128,-1,36
 114 694 114 694 124 684 c 0,37,38
 145 663 145 663 145 632 c 2,39,-1
 145 533 l 1,40,-1
 145 433 l 2,41,42
 145 430 145 430 149 428 c 0,43,44
 153 428 153 428 154 430 c 2,45,-1
 232 552 l 1,46,-1
 309 673 l 2,47,48
 323 694 323 694 346 702 c 256,49,50
 369 710 369 710 393 701 c 0,51,52
 409 696 409 696 419.5 684 c 128,-1,53
 430 672 430 672 435 658 c 256,54,55
 440 644 440 644 438 628 c 128,-1,56
 436 612 436 612 427 598 c 2,57,-1
 354 487 l 1,58,-1
 281 377 l 2,59,60
 277 371 277 371 277 366 c 0,61,62
 277 360 277 360 280 356 c 2,63,-1
 355 234 l 1,64,-1
 429 111 l 2,0,1
EndSplineSet
EndChar

StartChar: L
Encoding: 76 76 77
Width: 436
Flags: W
LayerCount: 2
Fore
SplineSet
145 140 m 2,0,1
 145 135 145 135 148 132 c 0,2,3
 152 130 152 130 155 130 c 2,4,-1
 233 130 l 1,5,-1
 311 130 l 2,6,7
 325 130 325 130 336.5 124.5 c 128,-1,8
 348 119 348 119 357 111 c 0,9,10
 365 102 365 102 370.5 90.5 c 128,-1,11
 376 79 376 79 376 65 c 256,12,13
 376 51 376 51 370.5 39.5 c 128,-1,14
 365 28 365 28 357 19 c 0,15,16
 338 0 338 0 311 0 c 2,17,-1
 188 0 l 1,18,-1
 65 0 l 2,19,20
 38 0 38 0 19 19 c 256,21,22
 0 38 0 38 0 65 c 2,23,-1
 0 353 l 1,24,-1
 0 641 l 2,25,26
 0 668 0 668 19 687 c 256,27,28
 38 706 38 706 65 706 c 2,29,-1
 73 706 l 1,30,-1
 80 706 l 2,31,32
 109 706 109 706 126 687 c 0,33,34
 145 668 145 668 145 641 c 2,35,-1
 145 390 l 1,36,-1
 145 140 l 2,0,1
EndSplineSet
EndChar

StartChar: M
Encoding: 77 77 78
Width: 661
Flags: W
LayerCount: 2
Fore
SplineSet
408 654 m 2,0,1
 419 678 419 678 440 692 c 0,2,3
 462 706 462 706 488 706 c 0,4,5
 524 706 524 706 550 680 c 256,6,7
 576 654 576 654 576 618 c 2,8,-1
 576 343 l 1,9,-1
 576 68 l 2,10,11
 576 40 576 40 556 20 c 0,12,13
 547 11 547 11 534.5 5.5 c 128,-1,14
 522 0 522 0 508 0 c 0,15,16
 480 0 480 0 460 20 c 0,17,18
 451 29 451 29 445.5 41.5 c 128,-1,19
 440 54 440 54 440 68 c 2,20,-1
 440 237 l 1,21,-1
 440 407 l 2,22,23
 440 411 440 411 435 413 c 0,24,25
 430 413 430 413 429 409 c 2,26,-1
 379 299 l 1,27,-1
 329 189 l 2,28,29
 323 176 323 176 311.5 169.5 c 128,-1,30
 300 163 300 163 288 163 c 0,31,32
 275 163 275 163 264 169.5 c 128,-1,33
 253 176 253 176 247 189 c 2,34,-1
 197 299 l 1,35,-1
 147 409 l 2,36,37
 146 413 146 413 140 413 c 0,38,39
 135 410 135 410 135 407 c 2,40,-1
 135 237 l 1,41,-1
 135 68 l 2,42,43
 135 39 135 39 116 20 c 0,44,45
 106 11 106 11 94 5.5 c 128,-1,46
 82 0 82 0 68 0 c 0,47,48
 40 0 40 0 20 20 c 256,49,50
 0 40 0 40 0 68 c 2,51,-1
 0 343 l 1,52,-1
 0 618 l 2,53,54
 0 636 0 636 7 652 c 128,-1,55
 14 668 14 668 26 680 c 0,56,57
 52 706 52 706 88 706 c 0,58,59
 115 706 115 706 135 692 c 0,60,61
 158 677 158 677 168 654 c 2,62,-1
 226 527 l 1,63,-1
 283 401 l 2,64,65
 284 398 284 398 288 398 c 0,66,67
 290 398 290 398 292 401 c 2,68,-1
 350 527 l 1,69,-1
 408 654 l 2,0,1
EndSplineSet
EndChar

StartChar: N
Encoding: 78 78 79
Width: 541
Flags: W
LayerCount: 2
Fore
SplineSet
336 638 m 2,0,1
 336 652 336 652 341.5 664.5 c 128,-1,2
 347 677 347 677 356 686 c 0,3,4
 376 706 376 706 404 706 c 0,5,6
 418 706 418 706 430 700.5 c 128,-1,7
 442 695 442 695 452 686 c 0,8,9
 471 667 471 667 471 638 c 2,10,-1
 471 360 l 1,11,-1
 471 82 l 2,12,13
 471 48 471 48 447 24 c 0,14,15
 425 0 425 0 389 0 c 0,16,17
 367 0 367 0 346 13 c 0,18,19
 326 25 326 25 316 46 c 2,20,-1
 231 220 l 1,21,-1
 146 394 l 2,22,23
 143 398 143 398 139 397 c 0,24,25
 134 397 134 397 134 392 c 2,26,-1
 134 229 l 1,27,-1
 134 67 l 2,28,29
 134 39 134 39 115 20 c 0,30,31
 106 11 106 11 93.5 5.5 c 128,-1,32
 81 0 81 0 67 0 c 0,33,34
 40 0 40 0 20 20 c 256,35,36
 0 40 0 40 0 67 c 2,37,-1
 0 345 l 1,38,-1
 0 623 l 2,39,40
 0 658 0 658 24 682 c 256,41,42
 48 706 48 706 83 706 c 0,43,44
 106 706 106 706 127 693 c 0,45,46
 146 681 146 681 157 659 c 2,47,-1
 241 486 l 1,48,-1
 325 313 l 2,49,50
 326 310 326 310 331 310 c 0,51,52
 336 312 336 312 336 316 c 2,53,-1
 336 477 l 1,54,-1
 336 638 l 2,0,1
EndSplineSet
EndChar

StartChar: O
Encoding: 79 79 80
Width: 531
Flags: W
LayerCount: 2
Fore
SplineSet
433 610 m 0,0,1
 447 582 447 582 454 554 c 0,2,3
 457 540 457 540 459 524.5 c 128,-1,4
 461 509 461 509 461 492 c 2,5,-1
 461 353 l 1,6,-1
 461 214 l 2,7,8
 461 197 461 197 459 181.5 c 128,-1,9
 457 166 457 166 454 151 c 0,10,11
 446 121 446 121 433 96 c 0,12,13
 419 70 419 70 399 50 c 0,14,15
 378 29 378 29 353 15 c 0,16,17
 340 8 340 8 326 2.5 c 128,-1,18
 312 -3 312 -3 297 -6 c 0,19,20
 281 -10 281 -10 264.5 -12 c 128,-1,21
 248 -14 248 -14 230 -14 c 0,22,23
 198 -14 198 -14 164 -6 c 0,24,25
 149 -3 149 -3 135 2.5 c 128,-1,26
 121 8 121 8 107 15 c 0,27,28
 94 23 94 23 83 31.5 c 128,-1,29
 72 40 72 40 61 50 c 0,30,31
 41 72 41 72 28 96 c 0,32,33
 20 109 20 109 15.5 123 c 128,-1,34
 11 137 11 137 7 151 c 0,35,36
 0 179 0 179 0 214 c 2,37,-1
 0 353 l 1,38,-1
 0 492 l 2,39,40
 0 527 0 527 7 554 c 0,41,42
 11 569 11 569 15.5 582.5 c 128,-1,43
 20 596 20 596 28 610 c 0,44,45
 41 634 41 634 61 656 c 0,46,47
 72 666 72 666 83 674.5 c 128,-1,48
 94 683 94 683 107 690 c 0,49,50
 132 704 132 704 164 712 c 0,51,52
 198 720 198 720 230 720 c 0,53,54
 248 720 248 720 264.5 718 c 128,-1,55
 281 716 281 716 297 712 c 0,56,57
 329 704 329 704 353 690 c 0,58,59
 367 683 367 683 378 674.5 c 128,-1,60
 389 666 389 666 399 656 c 0,61,62
 419 635 419 635 433 610 c 0,0,1
145 486 m 2,63,-1
 145 353 l 1,64,-1
 145 220 l 2,65,66
 145 196 145 196 151 178 c 0,67,68
 153 168 153 168 157.5 160.5 c 128,-1,69
 162 153 162 153 167 145 c 0,70,71
 178 131 178 131 193 125 c 0,72,73
 208 118 208 118 230 118 c 0,74,75
 253 118 253 118 268 125 c 0,76,77
 283 131 283 131 294 145 c 0,78,79
 299 153 299 153 303.5 160.5 c 128,-1,80
 308 168 308 168 310 178 c 0,81,82
 316 196 316 196 316 220 c 2,83,-1
 316 353 l 1,84,-1
 316 486 l 2,85,86
 316 508 316 508 310 528 c 0,87,88
 306 544 306 544 294 561 c 0,89,90
 283 575 283 575 268 581 c 0,91,92
 253 588 253 588 230 588 c 0,93,94
 208 588 208 588 193 581 c 0,95,96
 178 575 178 575 167 561 c 0,97,98
 155 544 155 544 151 528 c 0,99,100
 145 508 145 508 145 486 c 2,63,-1
EndSplineSet
EndChar

StartChar: P
Encoding: 80 80 81
Width: 514
Flags: W
LayerCount: 2
Fore
SplineSet
414 606 m 0,0,1
 430 580 430 580 437 554 c 0,2,3
 444 529 444 529 444 495 c 256,4,5
 444 461 444 461 437 436 c 0,6,7
 430 410 430 410 414 384 c 0,8,9
 401 361 401 361 379 342 c 0,10,11
 369 332 369 332 358 324.5 c 128,-1,12
 347 317 347 317 334 310 c 0,13,14
 321 304 321 304 307.5 299 c 128,-1,15
 294 294 294 294 280 291 c 0,16,17
 253 284 253 284 220 284 c 2,18,-1
 188 284 l 1,19,-1
 155 284 l 2,20,21
 151 284 151 284 148 281 c 256,22,23
 145 278 145 278 145 274 c 2,24,-1
 145 173 l 1,25,-1
 145 73 l 2,26,27
 145 42 145 42 124 21 c 256,28,29
 103 0 103 0 73 0 c 0,30,31
 42 0 42 0 21 21 c 256,32,33
 0 42 0 42 0 73 c 2,34,-1
 0 357 l 1,35,-1
 0 641 l 2,36,37
 0 668 0 668 19 687 c 256,38,39
 38 706 38 706 65 706 c 2,40,-1
 143 706 l 1,41,-1
 220 706 l 2,42,43
 253 706 253 706 280 699 c 0,44,45
 294 696 294 696 307 691.5 c 128,-1,46
 320 687 320 687 334 680 c 0,47,48
 347 673 347 673 358 665.5 c 128,-1,49
 369 658 369 658 379 648 c 0,50,51
 401 629 401 629 414 606 c 0,0,1
145 566 m 2,52,-1
 145 495 l 1,53,-1
 145 424 l 2,54,55
 145 418 145 418 148 417 c 0,56,57
 151 414 151 414 155 414 c 2,58,-1
 184 414 l 1,59,-1
 213 414 l 2,60,61
 230 414 230 414 247 419 c 0,62,63
 261 423 261 423 275 435 c 0,64,65
 286 444 286 444 293 460 c 0,66,67
 299 475 299 475 299 495 c 256,68,69
 299 515 299 515 293 530 c 0,70,71
 286 546 286 546 275 555 c 0,72,73
 261 567 261 567 247 571 c 0,74,75
 230 576 230 576 213 576 c 2,76,-1
 184 576 l 1,77,-1
 155 576 l 2,78,79
 151 576 151 576 148 573 c 0,80,81
 145 571 145 571 145 566 c 2,52,-1
EndSplineSet
EndChar

StartChar: Q
Encoding: 81 81 82
Width: 531
Flags: W
LayerCount: 2
Fore
SplineSet
167 145 m 0,0,1
 178 131 178 131 193 125 c 0,2,3
 208 118 208 118 230 118 c 0,4,5
 253 118 253 118 268 125 c 0,6,7
 283 131 283 131 294 145 c 0,8,9
 299 153 299 153 303.5 160.5 c 128,-1,10
 308 168 308 168 310 178 c 0,11,12
 316 196 316 196 316 220 c 2,13,-1
 316 353 l 1,14,-1
 316 486 l 2,15,16
 316 508 316 508 310 528 c 0,17,18
 306 544 306 544 294 561 c 0,19,20
 283 575 283 575 268 581 c 0,21,22
 253 588 253 588 230 588 c 0,23,24
 208 588 208 588 193 581 c 0,25,26
 178 575 178 575 167 561 c 0,27,28
 155 544 155 544 151 528 c 0,29,30
 145 508 145 508 145 486 c 2,31,-1
 145 353 l 1,32,-1
 145 220 l 2,33,34
 145 196 145 196 151 178 c 0,35,36
 153 168 153 168 157.5 160.5 c 128,-1,37
 162 153 162 153 167 145 c 0,0,1
433 610 m 0,38,39
 447 582 447 582 454 554 c 0,40,41
 457 540 457 540 459 524.5 c 128,-1,42
 461 509 461 509 461 492 c 2,43,-1
 461 353 l 1,44,-1
 461 214 l 2,45,46
 461 197 461 197 459 181.5 c 128,-1,47
 457 166 457 166 454 151 c 0,48,49
 446 121 446 121 433 96 c 0,50,51
 422 76 422 76 408 59 c 0,52,53
 400 51 400 51 392.5 43.5 c 128,-1,54
 385 36 385 36 375 29 c 0,55,56
 374 28 374 28 371 23 c 0,57,58
 371 21 371 21 373 15 c 2,59,-1
 383 3 l 1,60,-1
 393 -10 l 2,61,62
 402 -22 402 -22 406 -36 c 128,-1,63
 410 -50 410 -50 408 -64 c 256,64,65
 406 -78 406 -78 399 -91 c 128,-1,66
 392 -104 392 -104 380 -113 c 0,67,68
 368 -123 368 -123 354 -126.5 c 128,-1,69
 340 -130 340 -130 326 -128 c 256,70,71
 312 -126 312 -126 299 -119 c 128,-1,72
 286 -112 286 -112 277 -100 c 2,73,-1
 252 -68 l 1,74,-1
 228 -35 l 2,75,76
 220 -25 220 -25 209 -19 c 0,77,78
 198 -12 198 -12 186 -11 c 0,79,80
 162 -6 162 -6 145 -1 c 0,81,82
 134 2 134 2 125 6 c 128,-1,83
 116 10 116 10 107 15 c 0,84,85
 94 23 94 23 83 31.5 c 128,-1,86
 72 40 72 40 61 50 c 0,87,88
 41 72 41 72 28 96 c 0,89,90
 20 109 20 109 15.5 123 c 128,-1,91
 11 137 11 137 7 151 c 0,92,93
 0 179 0 179 0 214 c 2,94,-1
 0 353 l 1,95,-1
 0 492 l 2,96,97
 0 527 0 527 7 554 c 0,98,99
 11 569 11 569 15.5 582.5 c 128,-1,100
 20 596 20 596 28 610 c 0,101,102
 41 634 41 634 61 656 c 0,103,104
 72 666 72 666 83 674.5 c 128,-1,105
 94 683 94 683 107 690 c 0,106,107
 132 704 132 704 164 712 c 0,108,109
 198 720 198 720 230 720 c 0,110,111
 248 720 248 720 264.5 718 c 128,-1,112
 281 716 281 716 297 712 c 0,113,114
 329 704 329 704 353 690 c 0,115,116
 367 683 367 683 378 674.5 c 128,-1,117
 389 666 389 666 399 656 c 0,118,119
 419 635 419 635 433 610 c 0,38,39
EndSplineSet
EndChar

StartChar: R
Encoding: 82 82 83
Width: 514
Flags: W
LayerCount: 2
Fore
SplineSet
333 299 m 2,0,-1
 382 202 l 1,1,-1
 431 105 l 2,2,3
 438 91 438 91 438.5 77 c 128,-1,4
 439 63 439 63 435 50 c 0,5,6
 426 22 426 22 398 8 c 0,7,8
 371 -6 371 -6 343 4 c 0,9,10
 314 14 314 14 301 40 c 2,11,-1
 242 157 l 1,12,-1
 184 273 l 2,13,14
 181 278 181 278 177 281 c 0,15,16
 172 284 172 284 166 284 c 2,17,-1
 161 284 l 1,18,-1
 155 284 l 2,19,20
 151 284 151 284 148 281 c 256,21,22
 145 278 145 278 145 274 c 2,23,-1
 145 173 l 1,24,-1
 145 73 l 2,25,26
 145 42 145 42 124 21 c 256,27,28
 103 0 103 0 73 0 c 0,29,30
 42 0 42 0 21 21 c 256,31,32
 0 42 0 42 0 73 c 2,33,-1
 0 357 l 1,34,-1
 0 641 l 2,35,36
 0 668 0 668 19 687 c 256,37,38
 38 706 38 706 65 706 c 2,39,-1
 143 706 l 1,40,-1
 220 706 l 2,41,42
 253 706 253 706 280 699 c 0,43,44
 294 696 294 696 307.5 691 c 128,-1,45
 321 686 321 686 334 680 c 0,46,47
 347 673 347 673 358 665.5 c 128,-1,48
 369 658 369 658 379 648 c 0,49,50
 401 629 401 629 414 606 c 0,51,52
 430 580 430 580 437 554 c 0,53,54
 444 529 444 529 444 495 c 256,55,56
 444 461 444 461 437 436 c 0,57,58
 430 410 430 410 414 384 c 0,59,60
 407 373 407 373 399 363 c 128,-1,61
 391 353 391 353 382 344 c 0,62,63
 364 327 364 327 340 313 c 1,64,-1
 339 313 l 1,65,-1
 338 312 l 2,66,67
 335 311 335 311 333 307 c 0,68,69
 332 303 332 303 333 299 c 2,0,-1
145 566 m 2,70,-1
 145 495 l 1,71,-1
 145 424 l 2,72,73
 145 418 145 418 148 417 c 0,74,75
 151 414 151 414 155 414 c 2,76,-1
 184 414 l 1,77,-1
 213 414 l 2,78,79
 230 414 230 414 247 419 c 0,80,81
 261 423 261 423 275 435 c 0,82,83
 286 444 286 444 293 460 c 0,84,85
 299 475 299 475 299 495 c 256,86,87
 299 515 299 515 293 530 c 0,88,89
 286 546 286 546 275 555 c 0,90,91
 261 567 261 567 247 571 c 0,92,93
 230 576 230 576 213 576 c 2,94,-1
 184 576 l 1,95,-1
 155 576 l 2,96,97
 151 576 151 576 148 573 c 0,98,99
 145 571 145 571 145 566 c 2,70,-1
EndSplineSet
EndChar

StartChar: S
Encoding: 83 83 84
Width: 523
Flags: W
LayerCount: 2
Fore
SplineSet
406 337 m 0,0,1
 442 296 442 296 450 240 c 0,2,3
 455 212 455 212 452 185 c 128,-1,4
 449 158 449 158 441 132 c 0,5,6
 425 80 425 80 384 44 c 0,7,8
 345 8 345 8 291 -6 c 0,9,10
 233 -20 233 -20 177 -10 c 0,11,12
 119 -1 119 -1 72 34 c 0,13,14
 52 48 52 48 35 70 c 0,15,16
 19 91 19 91 9 112 c 0,17,18
 1 129 1 129 3 146.5 c 128,-1,19
 5 164 5 164 14 178 c 256,20,21
 23 192 23 192 38.5 201 c 128,-1,22
 54 210 54 210 73 210 c 0,23,24
 93 210 93 210 110 199 c 0,25,26
 128 188 128 188 135 170 c 0,27,28
 137 166 137 166 139.5 162.5 c 128,-1,29
 142 159 142 159 145 155 c 0,30,31
 147 150 147 150 150.5 146.5 c 128,-1,32
 154 143 154 143 158 139 c 0,33,34
 174 125 174 125 194.5 119 c 128,-1,35
 215 113 215 113 236 115 c 256,36,37
 257 117 257 117 275 128 c 128,-1,38
 293 139 293 139 303 159 c 0,39,40
 315 184 315 184 312.5 204 c 128,-1,41
 310 224 310 224 298 241 c 256,42,43
 286 258 286 258 266.5 269.5 c 128,-1,44
 247 281 247 281 226 288 c 0,45,46
 192 300 192 300 157 313 c 128,-1,47
 122 326 122 326 92 345 c 0,48,49
 61 365 61 365 38.5 391.5 c 128,-1,50
 16 418 16 418 6 458 c 0,51,52
 -6 510 -6 510 4.5 556.5 c 128,-1,53
 15 603 15 603 44 639 c 0,54,55
 73 674 73 674 116 695.5 c 128,-1,56
 159 717 159 717 211 719 c 0,57,58
 275 722 275 722 329 696 c 0,59,60
 355 684 355 684 377 666 c 128,-1,61
 399 648 399 648 414 624 c 0,62,63
 425 606 425 606 425 587 c 128,-1,64
 425 568 425 568 417 552 c 0,65,66
 408 536 408 536 392 525.5 c 128,-1,67
 376 515 376 515 355 515 c 2,68,-1
 354 515 l 2,69,70
 336 515 336 515 319 525 c 0,71,72
 303 535 303 535 293 550 c 0,73,74
 288 559 288 559 282 566 c 0,75,76
 278 570 278 570 274 573.5 c 128,-1,77
 270 577 270 577 265 581 c 0,78,79
 244 595 244 595 220 593.5 c 128,-1,80
 196 592 196 592 176 580 c 0,81,82
 157 568 157 568 146.5 547 c 128,-1,83
 136 526 136 526 143 500 c 0,84,85
 148 480 148 480 161 467.5 c 128,-1,86
 174 455 174 455 191 446 c 256,87,88
 208 437 208 437 227 431 c 128,-1,89
 246 425 246 425 263 419 c 0,90,91
 283 412 283 412 302.5 404.5 c 128,-1,92
 322 397 322 397 340 387 c 256,93,94
 358 377 358 377 375 365 c 128,-1,95
 392 353 392 353 406 337 c 0,0,1
EndSplineSet
EndChar

StartChar: T
Encoding: 84 84 85
Width: 514
Flags: W
LayerCount: 2
Fore
SplineSet
0 641 m 256,0,1
 0 668 0 668 19 687 c 256,2,3
 38 706 38 706 65 706 c 2,4,-1
 227 706 l 1,5,-1
 389 706 l 2,6,7
 416 706 416 706 435 687 c 256,8,9
 454 668 454 668 454 641 c 256,10,11
 454 614 454 614 435 595 c 256,12,13
 416 576 416 576 389 576 c 2,14,-1
 350 576 l 1,15,-1
 310 576 l 2,16,17
 306 576 306 576 303 573 c 0,18,19
 300 571 300 571 300 566 c 2,20,-1
 300 316 l 1,21,-1
 300 65 l 2,22,23
 300 38 300 38 281 19 c 256,24,25
 262 0 262 0 235 0 c 2,26,-1
 227 0 l 1,27,-1
 220 0 l 2,28,29
 193 0 193 0 174 19 c 256,30,31
 155 38 155 38 155 65 c 2,32,-1
 155 316 l 1,33,-1
 155 566 l 2,34,35
 155 571 155 571 152 573 c 0,36,37
 149 576 149 576 145 576 c 2,38,-1
 105 576 l 1,39,-1
 65 576 l 2,40,41
 38 576 38 576 19 595 c 256,42,43
 0 614 0 614 0 641 c 256,0,1
EndSplineSet
EndChar

StartChar: U
Encoding: 85 85 86
Width: 546
Flags: W
LayerCount: 2
Fore
SplineSet
388 706 m 0,0,1
 417 706 417 706 440 685 c 0,2,3
 461 662 461 662 461 633 c 2,4,-1
 461 423 l 1,5,-1
 461 214 l 2,6,7
 461 197 461 197 459 181.5 c 128,-1,8
 457 166 457 166 454 151 c 0,9,10
 446 121 446 121 433 96 c 0,11,12
 419 70 419 70 399 50 c 0,13,14
 378 29 378 29 353 15 c 0,15,16
 340 8 340 8 326 2.5 c 128,-1,17
 312 -3 312 -3 297 -6 c 0,18,19
 281 -10 281 -10 264.5 -12 c 128,-1,20
 248 -14 248 -14 230 -14 c 0,21,22
 198 -14 198 -14 164 -6 c 0,23,24
 156 -4 156 -4 146.5 -1 c 128,-1,25
 137 2 137 2 128 6 c 0,26,27
 117 10 117 10 107 15 c 0,28,29
 94 23 94 23 83 31.5 c 128,-1,30
 72 40 72 40 61 50 c 0,31,32
 41 72 41 72 28 96 c 0,33,34
 20 109 20 109 15.5 123 c 128,-1,35
 11 137 11 137 7 151 c 0,36,37
 0 179 0 179 0 214 c 2,38,-1
 0 423 l 1,39,-1
 0 633 l 2,40,41
 0 662 0 662 21 685 c 0,42,43
 42 706 42 706 73 706 c 0,44,45
 103 706 103 706 124 685 c 0,46,47
 145 662 145 662 145 633 c 2,48,-1
 145 426 l 1,49,-1
 145 220 l 2,50,51
 145 196 145 196 151 178 c 0,52,53
 153 168 153 168 157.5 160.5 c 128,-1,54
 162 153 162 153 167 145 c 0,55,56
 178 131 178 131 193 125 c 0,57,58
 208 118 208 118 230 118 c 0,59,60
 253 118 253 118 268 125 c 0,61,62
 283 131 283 131 294 145 c 0,63,64
 299 153 299 153 303.5 160.5 c 128,-1,65
 308 168 308 168 310 178 c 0,66,67
 316 196 316 196 316 220 c 2,68,-1
 316 426 l 1,69,-1
 316 633 l 2,70,71
 316 662 316 662 337 685 c 0,72,73
 358 706 358 706 388 706 c 0,0,1
EndSplineSet
EndChar

StartChar: V
Encoding: 86 86 87
Width: 560
Flags: W
LayerCount: 2
Fore
SplineSet
367 654 m 2,0,1
 375 677 375 677 393 691 c 0,2,3
 411 706 411 706 435 706 c 0,4,5
 452 706 452 706 467 698.5 c 128,-1,6
 482 691 482 691 491 678 c 0,7,8
 512 651 512 651 503 616 c 2,9,-1
 425 345 l 1,10,-1
 348 73 l 2,11,12
 339 41 339 41 312 20 c 0,13,14
 286 0 286 0 252 0 c 0,15,16
 217 0 217 0 191 20 c 0,17,18
 164 41 164 41 155 73 c 2,19,-1
 79 344 l 1,20,-1
 3 614 l 2,21,22
 -2 631 -2 631 1.5 647.5 c 128,-1,23
 5 664 5 664 15 677 c 256,24,25
 25 690 25 690 39.5 698 c 128,-1,26
 54 706 54 706 72 706 c 0,27,28
 96 706 96 706 116 691 c 0,29,30
 125 683 125 683 132 673.5 c 128,-1,31
 139 664 139 664 142 652 c 2,32,-1
 194 456 l 1,33,-1
 246 259 l 2,34,35
 247 254 247 254 253 254 c 256,36,37
 259 254 259 254 260 259 c 2,38,-1
 314 456 l 1,39,-1
 367 654 l 2,0,1
EndSplineSet
EndChar

StartChar: W
Encoding: 87 87 88
Width: 767
Flags: W
LayerCount: 2
Fore
SplineSet
609 706 m 0,0,1
 638 706 638 706 661 685 c 0,2,3
 682 662 682 662 682 633 c 2,4,-1
 682 423 l 1,5,-1
 682 214 l 2,6,7
 682 179 682 179 675 151 c 0,8,9
 667 121 667 121 654 96 c 0,10,11
 640 70 640 70 620 50 c 0,12,13
 599 29 599 29 574 15 c 0,14,15
 561 8 561 8 547 2.5 c 128,-1,16
 533 -3 533 -3 518 -6 c 0,17,18
 502 -10 502 -10 485.5 -12 c 128,-1,19
 469 -14 469 -14 451 -14 c 0,20,21
 425 -14 425 -14 399 -6 c 256,22,23
 373 2 373 2 352 15 c 0,24,25
 347 19 347 19 341 19 c 0,26,27
 334 19 334 19 330 15 c 0,28,29
 309 2 309 2 283 -6 c 0,30,31
 256 -14 256 -14 230 -14 c 0,32,33
 198 -14 198 -14 164 -6 c 0,34,35
 149 -3 149 -3 135 2.5 c 128,-1,36
 121 8 121 8 107 15 c 0,37,38
 94 23 94 23 83 31.5 c 128,-1,39
 72 40 72 40 61 50 c 0,40,41
 41 72 41 72 28 96 c 0,42,43
 20 109 20 109 15.5 123 c 128,-1,44
 11 137 11 137 7 151 c 0,45,46
 0 179 0 179 0 214 c 2,47,-1
 0 423 l 1,48,-1
 0 633 l 2,49,50
 0 662 0 662 21 685 c 0,51,52
 26 690 26 690 35 693.5 c 128,-1,53
 44 697 44 697 52 700 c 0,54,55
 62 704 62 704 73 706 c 0,56,57
 103 706 103 706 124 685 c 0,58,59
 145 662 145 662 145 633 c 2,60,-1
 145 407 l 1,61,-1
 145 181 l 2,62,63
 145 155 145 155 163 137 c 256,64,65
 181 119 181 119 206 119 c 0,66,67
 230 118 230 118 248 134 c 0,68,69
 267 150 267 150 267 174 c 2,70,-1
 267 403 l 1,71,-1
 267 632 l 2,72,73
 267 664 267 664 289 684 c 0,74,75
 309 706 309 706 341 706 c 256,76,77
 373 706 373 706 393 684 c 0,78,79
 415 664 415 664 415 632 c 2,80,-1
 415 403 l 1,81,-1
 415 174 l 2,82,83
 415 162 415 162 420.5 152 c 128,-1,84
 426 142 426 142 434 134 c 0,85,86
 452 118 452 118 477 119 c 0,87,88
 501 119 501 119 519 137 c 256,89,90
 537 155 537 155 537 180 c 2,91,-1
 537 407 l 1,92,-1
 537 633 l 2,93,94
 537 662 537 662 558 685 c 0,95,96
 579 706 579 706 609 706 c 0,0,1
EndSplineSet
EndChar

StartChar: X
Encoding: 88 88 89
Width: 524
Flags: W
LayerCount: 2
Fore
SplineSet
317 371 m 2,0,1
 314 366 314 366 314 362 c 0,2,3
 314 356 314 356 317 353 c 2,4,-1
 382 226 l 1,5,-1
 447 98 l 2,6,7
 455 81 455 81 454 63.5 c 128,-1,8
 453 46 453 46 444 32 c 256,9,10
 435 18 435 18 420.5 9 c 128,-1,11
 406 0 406 0 386 0 c 0,12,13
 368 0 368 0 351 10 c 0,14,15
 333 21 333 21 326 37 c 2,16,-1
 281 127 l 1,17,-1
 236 216 l 2,18,19
 233 222 233 222 227 222 c 256,20,21
 221 222 221 222 218 216 c 2,22,-1
 173 127 l 1,23,-1
 128 37 l 2,24,25
 121 21 121 21 103 10 c 0,26,27
 86 0 86 0 68 0 c 0,28,29
 48 0 48 0 33.5 9 c 128,-1,30
 19 18 19 18 10 32 c 256,31,32
 1 46 1 46 0 63.5 c 128,-1,33
 -1 81 -1 81 8 98 c 2,34,-1
 72 226 l 1,35,-1
 137 353 l 2,36,37
 140 356 140 356 140 362 c 0,38,39
 140 366 140 366 137 371 c 2,40,-1
 77 489 l 1,41,-1
 17 607 l 2,42,43
 9 624 9 624 10 641.5 c 128,-1,44
 11 659 11 659 20 673 c 0,45,46
 28 687 28 687 43 696.5 c 128,-1,47
 58 706 58 706 77 706 c 256,48,49
 96 706 96 706 113 696 c 0,50,51
 129 686 129 686 138 668 c 2,52,-1
 178 588 l 1,53,-1
 218 508 l 2,54,55
 221 502 221 502 227 502 c 256,56,57
 233 502 233 502 236 508 c 2,58,-1
 276 588 l 1,59,-1
 316 668 l 2,60,61
 325 686 325 686 341 696 c 0,62,63
 358 706 358 706 377 706 c 256,64,65
 396 706 396 706 411 696.5 c 128,-1,66
 426 687 426 687 434 673 c 0,67,68
 443 659 443 659 444 641.5 c 128,-1,69
 445 624 445 624 437 607 c 2,70,-1
 377 489 l 1,71,-1
 317 371 l 2,0,1
EndSplineSet
EndChar

StartChar: Y
Encoding: 89 89 90
Width: 522
Flags: W
LayerCount: 2
Fore
SplineSet
324 669 m 2,0,1
 331 685 331 685 349 696 c 0,2,3
 366 706 366 706 384 706 c 0,4,5
 404 706 404 706 419 696.5 c 128,-1,6
 434 687 434 687 442 673 c 0,7,8
 451 659 451 659 452 641.5 c 128,-1,9
 453 624 453 624 444 607 c 2,10,-1
 373 469 l 1,11,-1
 301 332 l 2,12,13
 300 330 300 330 300 329.5 c 128,-1,14
 300 329 300 329 299 327 c 2,15,-1
 299 322 l 1,16,-1
 299 197 l 1,17,-1
 299 73 l 2,18,19
 299 58 299 58 293 44.5 c 128,-1,20
 287 31 287 31 277 21 c 0,21,22
 256 0 256 0 226 0 c 256,23,24
 196 0 196 0 175 21 c 0,25,26
 153 41 153 41 153 73 c 2,27,-1
 153 198 l 1,28,-1
 153 323 l 1,29,-1
 153 328 l 2,30,31
 152 330 152 330 152 330.5 c 128,-1,32
 152 331 152 331 151 333 c 2,33,-1
 79 470 l 1,34,-1
 8 607 l 2,35,36
 -1 624 -1 624 0 641.5 c 128,-1,37
 1 659 1 659 10 673 c 0,38,39
 18 687 18 687 33 696.5 c 128,-1,40
 48 706 48 706 68 706 c 0,41,42
 86 706 86 706 103 696 c 0,43,44
 119 686 119 686 128 669 c 2,45,-1
 173 581 l 1,46,-1
 217 492 l 2,47,48
 220 487 220 487 226 487 c 256,49,50
 232 487 232 487 235 492 c 2,51,-1
 279 581 l 1,52,-1
 324 669 l 2,0,1
EndSplineSet
EndChar

StartChar: Z
Encoding: 90 90 91
Width: 536
Flags: W
LayerCount: 2
Fore
SplineSet
15 641 m 256,0,1
 15 668 15 668 34 687 c 256,2,3
 53 706 53 706 80 706 c 2,4,-1
 233 706 l 1,5,-1
 386 706 l 2,6,7
 409 706 409 706 426.5 695 c 128,-1,8
 444 684 444 684 454 667 c 0,9,10
 465 650 465 650 466 629 c 128,-1,11
 467 608 467 608 455 588 c 2,12,-1
 315 362 l 1,13,-1
 176 137 l 2,14,15
 174 135 174 135 176 132 c 0,16,17
 176 130 176 130 180 130 c 2,18,-1
 285 130 l 1,19,-1
 389 130 l 2,20,21
 403 130 403 130 414.5 124.5 c 128,-1,22
 426 119 426 119 435 111 c 0,23,24
 454 92 454 92 454 65 c 256,25,26
 454 38 454 38 435 19 c 256,27,28
 416 0 416 0 389 0 c 2,29,-1
 240 0 l 1,30,-1
 90 0 l 2,31,32
 64 0 64 0 43 13.5 c 128,-1,33
 22 27 22 27 11 47 c 256,34,35
 0 67 0 67 0 91 c 128,-1,36
 0 115 0 115 14 138 c 1,37,-1
 14 139 l 1,38,-1
 147 354 l 1,39,-1
 281 569 l 1,40,41
 281 569 281 569 281 574 c 0,42,43
 279 576 279 576 276 576 c 2,44,-1
 178 576 l 1,45,-1
 80 576 l 2,46,47
 53 576 53 576 34 595 c 256,48,49
 15 614 15 614 15 641 c 256,0,1
EndSplineSet
EndChar

StartChar: bracketleft
Encoding: 91 91 92
Width: 278
Flags: W
LayerCount: 2
Fore
SplineSet
208 717 m 256,0,1
 208 696 208 696 193 681 c 0,2,3
 179 665 179 665 156 665 c 2,4,-1
 147 665 l 1,5,-1
 139 665 l 2,6,7
 133 665 133 665 132 662 c 0,8,9
 129 660 129 660 129 655 c 2,10,-1
 129 307 l 1,11,-1
 129 -42 l 2,12,13
 129 -46 129 -46 132 -49 c 0,14,15
 133 -52 133 -52 139 -52 c 2,16,-1
 148 -52 l 1,17,-1
 157 -52 l 2,18,19
 179 -52 179 -52 193 -67 c 0,20,21
 208 -82 208 -82 208 -103 c 256,22,23
 208 -124 208 -124 193 -139 c 256,24,25
 178 -154 178 -154 157 -154 c 2,26,-1
 111 -154 l 1,27,-1
 65 -154 l 2,28,29
 38 -154 38 -154 19 -135 c 256,30,31
 0 -116 0 -116 0 -89 c 2,32,-1
 0 307 l 1,33,-1
 0 704 l 2,34,35
 0 732 0 732 19 749 c 0,36,37
 39 769 39 769 65 769 c 2,38,-1
 111 769 l 1,39,-1
 156 769 l 2,40,41
 179 769 179 769 193 753 c 0,42,43
 208 738 208 738 208 717 c 256,0,1
EndSplineSet
EndChar

StartChar: asciicircum
Encoding: 94 94 95
Width: 514
Flags: W
LayerCount: 2
Fore
SplineSet
232 706 m 2,0,1
 249 706 249 706 267 696 c 0,2,3
 282 685 282 685 291 668 c 2,4,-1
 365 507 l 1,5,-1
 439 346 l 2,6,7
 445 334 445 334 444 321.5 c 128,-1,8
 443 309 443 309 436 298 c 256,9,10
 429 287 429 287 418 280.5 c 128,-1,11
 407 274 407 274 393 274 c 256,12,13
 379 274 379 274 366 282 c 0,14,15
 352 292 352 292 347 304 c 2,16,-1
 290 430 l 1,17,-1
 232 555 l 2,18,19
 229 561 229 561 223 561 c 256,20,21
 217 561 217 561 214 555 c 2,22,-1
 156 430 l 1,23,-1
 98 304 l 2,24,25
 91 291 91 291 79 282 c 0,26,27
 66 274 66 274 51 274 c 0,28,29
 37 274 37 274 26 280.5 c 128,-1,30
 15 287 15 287 8 298 c 0,31,32
 -7 321 -7 321 5 347 c 2,33,-1
 79 508 l 1,34,-1
 154 668 l 2,35,36
 161 684 161 684 178 696 c 0,37,38
 195 706 195 706 213 706 c 2,39,-1
 222 706 l 1,40,-1
 232 706 l 2,0,1
EndSplineSet
EndChar

StartChar: a
Encoding: 97 97 98
Width: 546
Flags: W
LayerCount: 2
Fore
SplineSet
433 610 m 0,0,1
 447 582 447 582 454 554 c 0,2,3
 457 540 457 540 459 524.5 c 128,-1,4
 461 509 461 509 461 492 c 2,5,-1
 461 282 l 1,6,-1
 461 73 l 2,7,8
 461 42 461 42 440 21 c 0,9,10
 417 0 417 0 388 0 c 0,11,12
 358 0 358 0 337 21 c 256,13,14
 316 42 316 42 316 73 c 2,15,-1
 316 144 l 1,16,-1
 316 215 l 2,17,18
 316 219 316 219 313 222 c 256,19,20
 310 225 310 225 306 225 c 2,21,-1
 230 225 l 1,22,-1
 155 225 l 2,23,24
 151 225 151 225 148 222 c 0,25,26
 145 220 145 220 145 215 c 2,27,-1
 145 144 l 1,28,-1
 145 73 l 2,29,30
 145 42 145 42 124 21 c 256,31,32
 103 0 103 0 73 0 c 0,33,34
 42 0 42 0 21 21 c 256,35,36
 0 42 0 42 0 73 c 2,37,-1
 0 282 l 1,38,-1
 0 492 l 2,39,40
 0 527 0 527 7 554 c 0,41,42
 11 569 11 569 15.5 582.5 c 128,-1,43
 20 596 20 596 28 610 c 0,44,45
 41 634 41 634 61 656 c 0,46,47
 72 666 72 666 83 674.5 c 128,-1,48
 94 683 94 683 107 690 c 0,49,50
 132 704 132 704 164 712 c 0,51,52
 198 720 198 720 230 720 c 0,53,54
 248 720 248 720 264.5 718 c 128,-1,55
 281 716 281 716 297 712 c 0,56,57
 329 704 329 704 353 690 c 0,58,59
 367 683 367 683 378 674.5 c 128,-1,60
 389 666 389 666 399 656 c 0,61,62
 419 635 419 635 433 610 c 0,0,1
155 353 m 2,63,-1
 230 353 l 1,64,-1
 306 353 l 2,65,66
 310 353 310 353 313 356 c 0,67,68
 314 358 314 358 315 359.5 c 128,-1,69
 316 361 316 361 316 363 c 2,70,-1
 316 425 l 1,71,-1
 316 486 l 2,72,73
 316 508 316 508 310 528 c 0,74,75
 306 544 306 544 294 561 c 0,76,77
 283 575 283 575 268 581 c 0,78,79
 253 588 253 588 230 588 c 0,80,81
 208 588 208 588 193 581 c 0,82,83
 178 575 178 575 167 561 c 0,84,85
 155 544 155 544 151 528 c 0,86,87
 145 508 145 508 145 486 c 2,88,-1
 145 425 l 1,89,-1
 145 363 l 2,90,91
 145 359 145 359 148 356 c 256,92,93
 151 353 151 353 155 353 c 2,63,-1
EndSplineSet
EndChar

StartChar: b
Encoding: 98 98 99
Width: 522
Flags: W
LayerCount: 2
Fore
SplineSet
428 307 m 0,0,1
 433 298 433 298 438 285 c 256,2,3
 443 272 443 272 446 262 c 0,4,5
 448 257 448 257 448.5 250.5 c 128,-1,6
 449 244 449 244 450 238 c 256,7,8
 451 232 451 232 451.5 225.5 c 128,-1,9
 452 219 452 219 452 213 c 0,10,11
 452 205 452 205 451.5 197.5 c 128,-1,12
 451 190 451 190 450 182 c 0,13,14
 448 166 448 166 444 153 c 0,15,16
 441 139 441 139 435 125 c 0,17,18
 432 119 432 119 429 112.5 c 128,-1,19
 426 106 426 106 422 100 c 256,20,21
 418 94 418 94 414 88.5 c 128,-1,22
 410 83 410 83 405 78 c 256,23,24
 400 73 400 73 395.5 68 c 128,-1,25
 391 63 391 63 386 58 c 256,26,27
 381 53 381 53 375.5 49 c 128,-1,28
 370 45 370 45 364 40 c 0,29,30
 358 36 358 36 352 32.5 c 128,-1,31
 346 29 346 29 340 26 c 0,32,33
 333 23 333 23 326.5 20 c 128,-1,34
 320 17 320 17 313 15 c 0,35,36
 306 12 306 12 299.5 10.5 c 128,-1,37
 293 9 293 9 286 7 c 0,38,39
 278 5 278 5 271 4 c 128,-1,40
 264 3 264 3 257 2 c 0,41,42
 249 1 249 1 241.5 0.5 c 128,-1,43
 234 0 234 0 226 0 c 2,44,-1
 186 0 l 1,45,-1
 146 0 l 1,46,-1
 105 0 l 1,47,-1
 65 0 l 2,48,49
 52 0 52 0 40 5 c 0,50,51
 29 9 29 9 19 19 c 256,52,53
 9 29 9 29 5 40 c 0,54,55
 0 52 0 52 0 65 c 2,56,-1
 0 209 l 1,57,-1
 0 353 l 1,58,-1
 0 497 l 1,59,-1
 0 641 l 2,60,61
 0 653 0 653 5 666 c 0,62,63
 9 677 9 677 19 687 c 0,64,65
 24 692 24 692 29 695 c 128,-1,66
 34 698 34 698 40 701 c 0,67,68
 52 706 52 706 65 706 c 2,69,-1
 105 706 l 1,70,-1
 146 706 l 1,71,-1
 186 706 l 1,72,-1
 226 706 l 2,73,74
 234 706 234 706 240.5 705.5 c 128,-1,75
 247 705 247 705 255 704 c 0,76,77
 262 703 262 703 268.5 702.5 c 128,-1,78
 275 702 275 702 282 700 c 256,79,80
 289 698 289 698 295 696.5 c 128,-1,81
 301 695 301 695 308 693 c 0,82,83
 320 688 320 688 333 682 c 0,84,85
 339 679 339 679 345 676 c 128,-1,86
 351 673 351 673 356 669 c 256,87,88
 361 665 361 665 366.5 661.5 c 128,-1,89
 372 658 372 658 377 653 c 0,90,91
 386 645 386 645 395 635 c 0,92,93
 399 630 399 630 403 625 c 128,-1,94
 407 620 407 620 410 614 c 0,95,96
 414 609 414 609 417 603 c 128,-1,97
 420 597 420 597 423 591 c 0,98,99
 425 585 425 585 427.5 579 c 128,-1,100
 430 573 430 573 432 566 c 0,101,102
 434 560 434 560 435 553.5 c 128,-1,103
 436 547 436 547 437 540 c 256,104,105
 438 533 438 533 438.5 526 c 128,-1,106
 439 519 439 519 439 512 c 0,107,108
 439 506 439 506 439 500.5 c 128,-1,109
 439 495 439 495 438 490 c 0,110,111
 436 476 436 476 434 468 c 0,112,113
 432 463 432 463 431 458 c 128,-1,114
 430 453 430 453 428 448 c 256,115,116
 426 443 426 443 423.5 438.5 c 128,-1,117
 421 434 421 434 419 429 c 0,118,119
 417 426 417 426 414.5 422.5 c 128,-1,120
 412 419 412 419 410 416 c 0,121,122
 408 412 408 412 405.5 409 c 128,-1,123
 403 406 403 406 401 403 c 0,124,125
 398 400 398 400 395.5 397 c 128,-1,126
 393 394 393 394 390 391 c 256,127,128
 387 388 387 388 384 385 c 128,-1,129
 381 382 381 382 378 380 c 0,130,131
 377 379 377 379 376.5 378 c 128,-1,132
 376 377 376 377 375 376 c 2,133,-1
 375 372 l 2,134,135
 375 369 375 369 376 368 c 0,136,137
 376 366 376 366 378 364 c 0,138,139
 382 361 382 361 385.5 358 c 128,-1,140
 389 355 389 355 393 351 c 0,141,142
 396 348 396 348 399.5 345 c 128,-1,143
 403 342 403 342 406 338 c 256,144,145
 409 334 409 334 412 330.5 c 128,-1,146
 415 327 415 327 417 323 c 0,147,148
 420 319 420 319 422.5 315 c 128,-1,149
 425 311 425 311 428 307 c 0,0,1
145 296 m 2,150,-1
 145 256 l 1,151,-1
 145 217 l 1,152,-1
 145 177 l 1,153,-1
 145 138 l 2,154,155
 145 136 145 136 145.5 135.5 c 128,-1,156
 146 135 146 135 146 134 c 0,157,158
 149 131 149 131 148 131 c 1,159,-1
 151 128 l 1,160,-1
 155 128 l 1,161,-1
 172 128 l 1,162,-1
 188 128 l 1,163,-1
 204 128 l 1,164,-1
 220 128 l 2,165,166
 225 128 225 128 229.5 128 c 128,-1,167
 234 128 234 128 239 129 c 0,168,169
 246 130 246 130 255 134 c 0,170,171
 265 137 265 137 270 141 c 0,172,173
 274 143 274 143 277 146 c 128,-1,174
 280 149 280 149 284 152 c 0,175,176
 289 157 289 157 294 165 c 0,177,178
 297 168 297 168 298.5 172 c 128,-1,179
 300 176 300 176 302 180 c 0,180,181
 306 189 306 189 307 197 c 0,182,183
 308 202 308 202 308 207 c 128,-1,184
 308 212 308 212 308 217 c 256,185,186
 308 222 308 222 308 226.5 c 128,-1,187
 308 231 308 231 307 236 c 0,188,189
 306 244 306 244 302 253 c 0,190,191
 299 263 299 263 294 269 c 0,192,193
 292 272 292 272 289.5 275.5 c 128,-1,194
 287 279 287 279 284 282 c 0,195,196
 276 288 276 288 270 292 c 0,197,198
 263 297 263 297 255 300 c 0,199,200
 251 302 251 302 247 302.5 c 128,-1,201
 243 303 243 303 239 304 c 0,202,203
 234 305 234 305 229.5 305.5 c 128,-1,204
 225 306 225 306 220 306 c 2,205,-1
 204 306 l 1,206,-1
 188 306 l 1,207,-1
 172 306 l 1,208,-1
 155 306 l 2,209,210
 154 306 154 306 153.5 305.5 c 128,-1,211
 153 305 153 305 151 305 c 0,212,213
 150 304 150 304 149.5 304 c 128,-1,214
 149 304 149 304 148 303 c 256,215,216
 147 302 147 302 147 301.5 c 128,-1,217
 147 301 147 301 146 300 c 0,218,219
 146 298 146 298 145.5 297.5 c 128,-1,220
 145 297 145 297 145 296 c 2,150,-1
274 451 m 0,221,222
 278 454 278 454 284 462 c 0,223,224
 286 465 286 465 287.5 468 c 128,-1,225
 289 471 289 471 290 474 c 0,226,227
 294 484 294 484 294 489 c 0,228,229
 295 493 295 493 295.5 496.5 c 128,-1,230
 296 500 296 500 296 505 c 256,231,232
 296 510 296 510 294 520 c 0,233,234
 294 526 294 526 290 534 c 0,235,236
 289 537 289 537 287.5 540.5 c 128,-1,237
 286 544 286 544 284 546 c 0,238,239
 278 554 278 554 274 558 c 0,240,241
 271 561 271 561 263 567 c 0,242,243
 260 569 260 569 256.5 570 c 128,-1,244
 253 571 253 571 250 573 c 0,245,246
 244 575 244 575 236 577 c 0,247,248
 231 578 231 578 220 578 c 2,249,-1
 204 578 l 1,250,-1
 188 578 l 1,251,-1
 172 578 l 1,252,-1
 155 578 l 2,253,254
 153 578 153 578 151 577 c 0,255,256
 150 577 150 577 148 575 c 0,257,258
 147 574 147 574 147 573.5 c 128,-1,259
 147 573 147 573 146 572 c 0,260,261
 146 571 146 571 145.5 570.5 c 128,-1,262
 145 570 145 570 145 568 c 2,263,-1
 145 537 l 1,264,-1
 145 505 l 1,265,-1
 145 473 l 1,266,-1
 145 441 l 2,267,268
 145 440 145 440 145.5 439.5 c 128,-1,269
 146 439 146 439 146 438 c 0,270,271
 148 434 148 434 148 434 c 2,272,273
 149 433 149 433 149.5 433 c 128,-1,274
 150 433 150 433 151 432 c 0,275,276
 153 432 153 432 153.5 431.5 c 128,-1,277
 154 431 154 431 155 431 c 2,278,-1
 172 431 l 1,279,-1
 188 431 l 1,280,-1
 204 431 l 1,281,-1
 220 431 l 2,282,283
 225 431 225 431 228.5 431.5 c 128,-1,284
 232 432 232 432 236 433 c 0,285,286
 240 433 240 433 243.5 434 c 128,-1,287
 247 435 247 435 250 436 c 0,288,289
 258 439 258 439 263 443 c 0,290,291
 269 446 269 446 274 451 c 0,221,222
EndSplineSet
EndChar

StartChar: c
Encoding: 99 99 100
Width: 531
Flags: W
LayerCount: 2
Fore
SplineSet
388 292 m 0,0,1
 418 294 418 294 439 271 c 0,2,3
 461 251 461 251 461 220 c 2,4,-1
 461 217 l 1,5,-1
 461 214 l 2,6,7
 461 197 461 197 459 181.5 c 128,-1,8
 457 166 457 166 454 151 c 0,9,10
 446 121 446 121 433 96 c 0,11,12
 419 70 419 70 399 50 c 0,13,14
 378 29 378 29 353 15 c 0,15,16
 340 8 340 8 326 2.5 c 128,-1,17
 312 -3 312 -3 297 -6 c 0,18,19
 281 -10 281 -10 264.5 -12 c 128,-1,20
 248 -14 248 -14 230 -14 c 0,21,22
 198 -14 198 -14 164 -6 c 0,23,24
 149 -3 149 -3 135 2.5 c 128,-1,25
 121 8 121 8 107 15 c 0,26,27
 94 23 94 23 83 31.5 c 128,-1,28
 72 40 72 40 61 50 c 0,29,30
 41 72 41 72 28 96 c 0,31,32
 20 109 20 109 15.5 123 c 128,-1,33
 11 137 11 137 7 151 c 0,34,35
 0 179 0 179 0 214 c 2,36,-1
 0 353 l 1,37,-1
 0 492 l 2,38,39
 0 527 0 527 7 554 c 0,40,41
 11 569 11 569 15.5 582.5 c 128,-1,42
 20 596 20 596 28 610 c 0,43,44
 41 634 41 634 61 656 c 0,45,46
 72 666 72 666 83 674.5 c 128,-1,47
 94 683 94 683 107 690 c 0,48,49
 132 704 132 704 164 712 c 0,50,51
 198 720 198 720 230 720 c 0,52,53
 248 720 248 720 264.5 718 c 128,-1,54
 281 716 281 716 297 712 c 0,55,56
 329 704 329 704 353 690 c 0,57,58
 374 679 374 679 389 665 c 0,59,60
 397 658 397 658 404 650 c 128,-1,61
 411 642 411 642 418 634 c 0,62,63
 437 609 437 609 435 581 c 256,64,65
 433 553 433 553 410 535 c 0,66,67
 388 518 388 518 356 521 c 0,68,69
 341 523 341 523 327 529.5 c 128,-1,70
 313 536 313 536 303 549 c 0,71,72
 288 567 288 567 272 578 c 0,73,74
 252 589 252 589 230 589 c 0,75,76
 196 589 196 589 172 565 c 0,77,78
 161 554 161 554 153 539.5 c 128,-1,79
 145 525 145 525 145 508 c 2,80,-1
 145 364 l 1,81,-1
 145 220 l 2,82,83
 145 196 145 196 151 178 c 0,84,85
 153 168 153 168 157.5 160.5 c 128,-1,86
 162 153 162 153 167 145 c 0,87,88
 178 131 178 131 193 125 c 0,89,90
 208 118 208 118 230 118 c 0,91,92
 253 118 253 118 268 125 c 0,93,94
 283 131 283 131 294 145 c 0,95,96
 299 153 299 153 303.5 160.5 c 128,-1,97
 308 168 308 168 310 178 c 0,98,99
 316 196 316 196 316 219 c 2,100,-1
 316 220 l 2,101,102
 316 248 316 248 337 271 c 0,103,104
 358 292 358 292 388 292 c 0,0,1
EndSplineSet
EndChar

StartChar: d
Encoding: 100 100 101
Width: 512
Flags: W
LayerCount: 2
Fore
SplineSet
415 593 m 0,0,1
 422 579 422 579 427 565.5 c 128,-1,2
 432 552 432 552 435 537 c 0,3,4
 442 509 442 509 442 474 c 2,5,-1
 442 353 l 1,6,-1
 442 231 l 2,7,8
 442 197 442 197 435 169 c 0,9,10
 429 140 429 140 415 113 c 0,11,12
 403 88 403 88 382 66 c 0,13,14
 362 45 362 45 337 30 c 0,15,16
 313 16 313 16 281 8 c 256,17,18
 249 0 249 0 216 0 c 2,19,-1
 141 0 l 1,20,-1
 65 0 l 2,21,22
 38 0 38 0 19 19 c 256,23,24
 0 38 0 38 0 65 c 2,25,-1
 0 353 l 1,26,-1
 0 641 l 2,27,28
 0 668 0 668 19 687 c 256,29,30
 38 706 38 706 65 706 c 2,31,-1
 141 706 l 1,32,-1
 216 706 l 2,33,34
 249 706 249 706 281 698 c 256,35,36
 313 690 313 690 337 676 c 0,37,38
 362 661 362 661 382 640 c 0,39,40
 401 620 401 620 415 593 c 0,0,1
145 564 m 2,41,-1
 145 353 l 1,42,-1
 145 142 l 2,43,44
 145 137 145 137 148 134 c 0,45,46
 152 132 152 132 155 132 c 2,47,-1
 182 132 l 1,48,-1
 209 132 l 2,49,50
 232 132 232 132 247 139 c 0,51,52
 263 145 263 145 274 160 c 0,53,54
 285 173 285 173 291 194 c 0,55,56
 297 213 297 213 297 237 c 2,57,-1
 297 353 l 1,58,-1
 297 469 l 2,59,60
 297 492 297 492 291 512 c 0,61,62
 285 533 285 533 274 546 c 0,63,64
 269 553 269 553 262 558.5 c 128,-1,65
 255 564 255 564 247 567 c 0,66,67
 232 574 232 574 209 574 c 2,68,-1
 182 574 l 1,69,-1
 155 574 l 2,70,71
 151 574 151 574 148 571 c 0,72,73
 145 569 145 569 145 564 c 2,41,-1
EndSplineSet
EndChar

StartChar: e
Encoding: 101 101 102
Width: 451
Flags: W
LayerCount: 2
Fore
SplineSet
145 140 m 2,0,1
 145 135 145 135 148 132 c 0,2,3
 152 130 152 130 155 130 c 2,4,-1
 236 130 l 1,5,-1
 316 130 l 2,6,7
 330 130 330 130 342 124.5 c 128,-1,8
 354 119 354 119 362 111 c 0,9,10
 367 106 367 106 370.5 98.5 c 128,-1,11
 374 91 374 91 376 83 c 0,12,13
 379 74 379 74 381 65 c 0,14,15
 381 38 381 38 362 19 c 0,16,17
 345 0 345 0 316 0 c 2,18,-1
 191 0 l 1,19,-1
 65 0 l 2,20,21
 38 0 38 0 19 19 c 256,22,23
 0 38 0 38 0 65 c 2,24,-1
 0 353 l 1,25,-1
 0 641 l 2,26,27
 0 668 0 668 19 687 c 256,28,29
 38 706 38 706 65 706 c 2,30,-1
 189 706 l 1,31,-1
 314 706 l 2,32,33
 342 706 342 706 359 687 c 0,34,35
 378 668 378 668 378 641 c 256,36,37
 378 614 378 614 359 595 c 0,38,39
 342 576 342 576 314 576 c 2,40,-1
 234 576 l 1,41,-1
 155 576 l 2,42,43
 151 576 151 576 148 573 c 0,44,45
 145 571 145 571 145 566 c 2,46,-1
 145 504 l 1,47,-1
 145 442 l 2,48,49
 145 438 145 438 148 435 c 256,50,51
 151 432 151 432 155 432 c 2,52,-1
 214 432 l 1,53,-1
 272 432 l 2,54,55
 299 432 299 432 318 413 c 0,56,57
 337 396 337 396 337 368 c 0,58,59
 337 341 337 341 318 322 c 256,60,61
 299 303 299 303 272 303 c 2,62,-1
 214 303 l 1,63,-1
 155 303 l 2,64,65
 151 303 151 303 148 300 c 256,66,67
 145 297 145 297 145 293 c 2,68,-1
 145 216 l 1,69,-1
 145 140 l 2,0,1
EndSplineSet
EndChar

StartChar: f
Encoding: 102 102 103
Width: 448
Flags: W
LayerCount: 2
Fore
SplineSet
378 641 m 256,0,1
 378 614 378 614 359 595 c 0,2,3
 342 576 342 576 314 576 c 2,4,-1
 234 576 l 1,5,-1
 155 576 l 2,6,7
 151 576 151 576 148 573 c 0,8,9
 145 571 145 571 145 566 c 2,10,-1
 145 504 l 1,11,-1
 145 442 l 2,12,13
 145 438 145 438 148 435 c 256,14,15
 151 432 151 432 155 432 c 2,16,-1
 211 432 l 1,17,-1
 267 432 l 2,18,19
 294 432 294 432 313 413 c 0,20,21
 332 396 332 396 332 368 c 0,22,23
 332 341 332 341 313 322 c 256,24,25
 294 303 294 303 267 303 c 2,26,-1
 211 303 l 1,27,-1
 155 303 l 2,28,29
 151 303 151 303 148 300 c 256,30,31
 145 297 145 297 145 293 c 2,32,-1
 145 183 l 1,33,-1
 145 73 l 2,34,35
 145 42 145 42 124 21 c 256,36,37
 103 0 103 0 73 0 c 0,38,39
 42 0 42 0 21 21 c 256,40,41
 0 42 0 42 0 73 c 2,42,-1
 0 357 l 1,43,-1
 0 641 l 2,44,45
 0 668 0 668 19 687 c 256,46,47
 38 706 38 706 65 706 c 2,48,-1
 189 706 l 1,49,-1
 314 706 l 2,50,51
 342 706 342 706 359 687 c 0,52,53
 378 668 378 668 378 641 c 256,0,1
EndSplineSet
EndChar

StartChar: g
Encoding: 103 103 104
Width: 531
Flags: W
LayerCount: 2
Fore
SplineSet
396 418 m 2,0,1
 423 418 423 418 442 399 c 256,2,3
 461 380 461 380 461 353 c 2,4,-1
 461 283 l 1,5,-1
 461 214 l 2,6,7
 461 197 461 197 459 181.5 c 128,-1,8
 457 166 457 166 454 151 c 0,9,10
 446 121 446 121 433 96 c 0,11,12
 419 70 419 70 399 50 c 0,13,14
 378 29 378 29 353 15 c 0,15,16
 340 8 340 8 326 2.5 c 128,-1,17
 312 -3 312 -3 297 -6 c 0,18,19
 281 -10 281 -10 264.5 -12 c 128,-1,20
 248 -14 248 -14 230 -14 c 0,21,22
 198 -14 198 -14 164 -6 c 0,23,24
 149 -3 149 -3 135 2.5 c 128,-1,25
 121 8 121 8 107 15 c 0,26,27
 94 23 94 23 83 31.5 c 128,-1,28
 72 40 72 40 61 50 c 0,29,30
 41 72 41 72 28 96 c 0,31,32
 20 109 20 109 15.5 123 c 128,-1,33
 11 137 11 137 7 151 c 0,34,35
 0 179 0 179 0 214 c 2,36,-1
 0 353 l 1,37,-1
 0 492 l 2,38,39
 0 527 0 527 7 554 c 0,40,41
 11 569 11 569 15.5 582.5 c 128,-1,42
 20 596 20 596 28 610 c 0,43,44
 41 634 41 634 61 656 c 0,45,46
 72 666 72 666 83 674.5 c 128,-1,47
 94 683 94 683 107 690 c 0,48,49
 132 704 132 704 164 712 c 0,50,51
 198 720 198 720 230 720 c 0,52,53
 248 720 248 720 264.5 718 c 128,-1,54
 281 716 281 716 297 712 c 0,55,56
 329 704 329 704 353 690 c 0,57,58
 374 679 374 679 389 665 c 0,59,60
 397 658 397 658 404 650 c 128,-1,61
 411 642 411 642 418 634 c 0,62,63
 437 609 437 609 435 581 c 256,64,65
 433 553 433 553 410 535 c 0,66,67
 388 518 388 518 356 521 c 0,68,69
 341 523 341 523 327 529.5 c 128,-1,70
 313 536 313 536 303 549 c 0,71,72
 288 567 288 567 272 578 c 0,73,74
 252 589 252 589 230 589 c 0,75,76
 196 589 196 589 172 565 c 0,77,78
 161 554 161 554 153 539.5 c 128,-1,79
 145 525 145 525 145 508 c 2,80,-1
 145 364 l 1,81,-1
 145 220 l 2,82,83
 145 196 145 196 151 178 c 0,84,85
 153 168 153 168 157.5 160.5 c 128,-1,86
 162 153 162 153 167 145 c 0,87,88
 178 131 178 131 193 125 c 0,89,90
 208 118 208 118 230 118 c 0,91,92
 253 118 253 118 268 125 c 0,93,94
 283 131 283 131 294 145 c 0,95,96
 299 153 299 153 303.5 160.5 c 128,-1,97
 308 168 308 168 310 178 c 0,98,99
 316 196 316 196 316 220 c 2,100,-1
 316 254 l 1,101,-1
 316 288 l 1,102,-1
 297 288 l 1,103,-1
 278 288 l 2,104,105
 250 288 250 288 233 307 c 0,106,107
 214 326 214 326 214 353 c 256,108,109
 214 380 214 380 233 399 c 0,110,111
 250 418 250 418 278 418 c 2,112,-1
 331 418 l 1,113,-1
 396 418 l 2,0,1
EndSplineSet
EndChar

StartChar: h
Encoding: 104 104 105
Width: 539
Flags: W
LayerCount: 2
Fore
SplineSet
309 633 m 2,0,1
 309 662 309 662 330 685 c 0,2,3
 351 706 351 706 381 706 c 256,4,5
 411 706 411 706 432 685 c 0,6,7
 454 663 454 663 454 633 c 2,8,-1
 454 353 l 1,9,-1
 454 73 l 2,10,11
 454 41 454 41 432 21 c 0,12,13
 411 0 411 0 381 0 c 256,14,15
 351 0 351 0 330 21 c 256,16,17
 309 42 309 42 309 73 c 2,18,-1
 309 183 l 1,19,-1
 309 293 l 2,20,21
 309 295 309 295 308 296.5 c 128,-1,22
 307 298 307 298 306 300 c 0,23,24
 303 303 303 303 299 303 c 2,25,-1
 227 303 l 1,26,-1
 155 303 l 2,27,28
 151 303 151 303 148 300 c 256,29,30
 145 297 145 297 145 293 c 2,31,-1
 145 183 l 1,32,-1
 145 73 l 2,33,34
 145 42 145 42 124 21 c 256,35,36
 103 0 103 0 73 0 c 0,37,38
 42 0 42 0 21 21 c 256,39,40
 0 42 0 42 0 73 c 2,41,-1
 0 353 l 1,42,-1
 0 633 l 2,43,44
 0 662 0 662 21 685 c 0,45,46
 42 706 42 706 73 706 c 0,47,48
 103 706 103 706 124 685 c 0,49,50
 145 662 145 662 145 633 c 2,51,-1
 145 538 l 1,52,-1
 145 442 l 2,53,54
 145 438 145 438 148 435 c 256,55,56
 151 432 151 432 155 432 c 2,57,-1
 227 432 l 1,58,-1
 299 432 l 2,59,60
 303 432 303 432 306 435 c 0,61,62
 307 437 307 437 308 438.5 c 128,-1,63
 309 440 309 440 309 442 c 2,64,-1
 309 538 l 1,65,-1
 309 633 l 2,0,1
EndSplineSet
EndChar

StartChar: i
Encoding: 105 105 106
Width: 230
Flags: W
LayerCount: 2
Fore
SplineSet
0 633 m 2,0,1
 0 662 0 662 21 685 c 0,2,3
 42 706 42 706 73 706 c 0,4,5
 103 706 103 706 124 685 c 0,6,7
 145 662 145 662 145 633 c 2,8,-1
 145 353 l 1,9,-1
 145 73 l 2,10,11
 145 42 145 42 124 21 c 256,12,13
 103 0 103 0 73 0 c 0,14,15
 42 0 42 0 21 21 c 256,16,17
 0 42 0 42 0 73 c 2,18,-1
 0 353 l 1,19,-1
 0 633 l 2,0,1
EndSplineSet
EndChar

StartChar: j
Encoding: 106 106 107
Width: 533
Flags: WO
LayerCount: 2
Fore
SplineSet
448 633 m 2,0,-1
 448 423 l 1,1,-1
 448 214 l 2,2,3
 448 179 448 179 441 151 c 0,4,5
 437 137 437 137 432.5 123 c 128,-1,6
 428 109 428 109 420 96 c 0,7,8
 407 72 407 72 387 50 c 0,9,10
 376 40 376 40 365 31.5 c 128,-1,11
 354 23 354 23 341 15 c 0,12,13
 327 8 327 8 313 2.5 c 128,-1,14
 299 -3 299 -3 284 -6 c 0,15,16
 250 -14 250 -14 218 -14 c 0,17,18
 200 -14 200 -14 183.5 -12 c 128,-1,19
 167 -10 167 -10 151 -6 c 0,20,21
 136 -3 136 -3 122 2.5 c 128,-1,22
 108 8 108 8 95 15 c 0,23,24
 83 22 83 22 73 29.5 c 128,-1,25
 63 37 63 37 54 45 c 0,26,27
 45 54 45 54 37 63.5 c 128,-1,28
 29 73 29 73 22 84 c 0,29,30
 17 91 17 91 14 98 c 0,31,32
 12 101 12 101 10 104.5 c 128,-1,33
 8 108 8 108 6 112 c 0,34,35
 -2 130 -2 130 0 148 c 128,-1,36
 2 166 2 166 13 180 c 0,37,38
 23 194 23 194 39 203 c 128,-1,39
 55 212 55 212 75 210 c 0,40,41
 92 209 92 209 109 197 c 0,42,43
 124 186 124 186 133 170 c 0,44,45
 136 162 136 162 140 157 c 0,46,47
 142 154 142 154 144.5 150.5 c 128,-1,48
 147 147 147 147 150 144 c 0,49,50
 166 129 166 129 182 123 c 0,51,52
 190 120 190 120 198.5 119 c 128,-1,53
 207 118 207 118 218 118 c 0,54,55
 240 118 240 118 255 125 c 0,56,57
 270 131 270 131 281 145 c 0,58,59
 286 153 286 153 290.5 160.5 c 128,-1,60
 295 168 295 168 297 178 c 0,61,62
 303 196 303 196 303 220 c 2,63,-1
 303 426 l 1,64,-1
 303 633 l 2,65,66
 303 662 303 662 324 685 c 0,67,68
 345 706 345 706 375 706 c 0,69,70
 406 706 406 706 427 685 c 0,71,72
 448 662 448 662 448 633 c 2,0,-1
EndSplineSet
EndChar

StartChar: k
Encoding: 107 107 108
Width: 510
Flags: W
LayerCount: 2
Fore
SplineSet
429 111 m 2,0,1
 437 98 437 98 439 83.5 c 128,-1,2
 441 69 441 69 438 55 c 0,3,4
 434 41 434 41 426 29.5 c 128,-1,5
 418 18 418 18 404 10 c 0,6,7
 391 2 391 2 377 0.5 c 128,-1,8
 363 -1 363 -1 349 2 c 0,9,10
 320 10 320 10 305 35 c 2,11,-1
 230 161 l 1,12,-1
 155 286 l 2,13,14
 153 289 153 289 149 289 c 0,15,16
 145 287 145 287 145 284 c 2,17,-1
 145 178 l 1,18,-1
 145 73 l 2,19,20
 145 42 145 42 124 21 c 256,21,22
 103 0 103 0 72 0 c 0,23,24
 57 0 57 0 44 6 c 128,-1,25
 31 12 31 12 21 22 c 0,26,27
 0 43 0 43 0 74 c 2,28,-1
 0 353 l 1,29,-1
 0 633 l 2,30,31
 0 664 0 664 21 685 c 0,32,33
 44 706 44 706 73 706 c 0,34,35
 88 706 88 706 101 700 c 128,-1,36
 114 694 114 694 124 684 c 0,37,38
 145 663 145 663 145 632 c 2,39,-1
 145 533 l 1,40,-1
 145 433 l 2,41,42
 145 430 145 430 149 428 c 0,43,44
 153 428 153 428 154 430 c 2,45,-1
 232 552 l 1,46,-1
 309 673 l 2,47,48
 323 694 323 694 346 702 c 256,49,50
 369 710 369 710 393 701 c 0,51,52
 409 696 409 696 419.5 684 c 128,-1,53
 430 672 430 672 435 658 c 256,54,55
 440 644 440 644 438 628 c 128,-1,56
 436 612 436 612 427 598 c 2,57,-1
 354 487 l 1,58,-1
 281 377 l 2,59,60
 277 371 277 371 277 366 c 0,61,62
 277 360 277 360 280 356 c 2,63,-1
 355 234 l 1,64,-1
 429 111 l 2,0,1
EndSplineSet
EndChar

StartChar: l
Encoding: 108 108 109
Width: 436
Flags: W
LayerCount: 2
Fore
SplineSet
145 140 m 2,0,1
 145 135 145 135 148 132 c 0,2,3
 152 130 152 130 155 130 c 2,4,-1
 233 130 l 1,5,-1
 311 130 l 2,6,7
 325 130 325 130 336.5 124.5 c 128,-1,8
 348 119 348 119 357 111 c 0,9,10
 365 102 365 102 370.5 90.5 c 128,-1,11
 376 79 376 79 376 65 c 256,12,13
 376 51 376 51 370.5 39.5 c 128,-1,14
 365 28 365 28 357 19 c 0,15,16
 338 0 338 0 311 0 c 2,17,-1
 188 0 l 1,18,-1
 65 0 l 2,19,20
 38 0 38 0 19 19 c 256,21,22
 0 38 0 38 0 65 c 2,23,-1
 0 353 l 1,24,-1
 0 641 l 2,25,26
 0 668 0 668 19 687 c 256,27,28
 38 706 38 706 65 706 c 2,29,-1
 73 706 l 1,30,-1
 80 706 l 2,31,32
 109 706 109 706 126 687 c 0,33,34
 145 668 145 668 145 641 c 2,35,-1
 145 390 l 1,36,-1
 145 140 l 2,0,1
EndSplineSet
EndChar

StartChar: m
Encoding: 109 109 110
Width: 661
Flags: W
LayerCount: 2
Fore
SplineSet
408 654 m 2,0,1
 419 678 419 678 440 692 c 0,2,3
 462 706 462 706 488 706 c 0,4,5
 524 706 524 706 550 680 c 256,6,7
 576 654 576 654 576 618 c 2,8,-1
 576 343 l 1,9,-1
 576 68 l 2,10,11
 576 40 576 40 556 20 c 0,12,13
 547 11 547 11 534.5 5.5 c 128,-1,14
 522 0 522 0 508 0 c 0,15,16
 480 0 480 0 460 20 c 0,17,18
 451 29 451 29 445.5 41.5 c 128,-1,19
 440 54 440 54 440 68 c 2,20,-1
 440 237 l 1,21,-1
 440 407 l 2,22,23
 440 411 440 411 435 413 c 0,24,25
 430 413 430 413 429 409 c 2,26,-1
 379 299 l 1,27,-1
 329 189 l 2,28,29
 323 176 323 176 311.5 169.5 c 128,-1,30
 300 163 300 163 288 163 c 0,31,32
 275 163 275 163 264 169.5 c 128,-1,33
 253 176 253 176 247 189 c 2,34,-1
 197 299 l 1,35,-1
 147 409 l 2,36,37
 146 413 146 413 140 413 c 0,38,39
 135 410 135 410 135 407 c 2,40,-1
 135 237 l 1,41,-1
 135 68 l 2,42,43
 135 39 135 39 116 20 c 0,44,45
 106 11 106 11 94 5.5 c 128,-1,46
 82 0 82 0 68 0 c 0,47,48
 40 0 40 0 20 20 c 256,49,50
 0 40 0 40 0 68 c 2,51,-1
 0 343 l 1,52,-1
 0 618 l 2,53,54
 0 636 0 636 7 652 c 128,-1,55
 14 668 14 668 26 680 c 0,56,57
 52 706 52 706 88 706 c 0,58,59
 115 706 115 706 135 692 c 0,60,61
 158 677 158 677 168 654 c 2,62,-1
 226 527 l 1,63,-1
 283 401 l 2,64,65
 284 398 284 398 288 398 c 0,66,67
 290 398 290 398 292 401 c 2,68,-1
 350 527 l 1,69,-1
 408 654 l 2,0,1
EndSplineSet
EndChar

StartChar: n
Encoding: 110 110 111
Width: 546
Flags: W
LayerCount: 2
Fore
SplineSet
73 0 m 0,0,1
 42 0 42 0 21 21 c 256,2,3
 0 42 0 42 0 73 c 2,4,-1
 0 282 l 1,5,-1
 0 492 l 2,6,7
 0 527 0 527 7 554 c 0,8,9
 11 569 11 569 15.5 582.5 c 128,-1,10
 20 596 20 596 28 610 c 0,11,12
 41 634 41 634 61 656 c 0,13,14
 72 666 72 666 83 674.5 c 128,-1,15
 94 683 94 683 107 690 c 0,16,17
 132 704 132 704 164 712 c 0,18,19
 198 720 198 720 230 720 c 0,20,21
 248 720 248 720 264.5 718 c 128,-1,22
 281 716 281 716 297 712 c 0,23,24
 305 710 305 710 314 706.5 c 128,-1,25
 323 703 323 703 332 699 c 0,26,27
 342 695 342 695 353 690 c 0,28,29
 367 683 367 683 378 674.5 c 128,-1,30
 389 666 389 666 399 656 c 0,31,32
 419 635 419 635 433 610 c 0,33,34
 447 582 447 582 454 554 c 0,35,36
 457 540 457 540 459 524.5 c 128,-1,37
 461 509 461 509 461 492 c 2,38,-1
 461 282 l 1,39,-1
 461 73 l 2,40,41
 461 42 461 42 440 21 c 0,42,43
 417 0 417 0 388 0 c 0,44,45
 358 0 358 0 337 21 c 256,46,47
 316 42 316 42 316 73 c 2,48,-1
 316 279 l 1,49,-1
 316 486 l 2,50,51
 316 508 316 508 310 528 c 0,52,53
 306 544 306 544 294 561 c 0,54,55
 283 575 283 575 268 581 c 0,56,57
 253 588 253 588 230 588 c 0,58,59
 208 588 208 588 193 581 c 0,60,61
 178 575 178 575 167 561 c 0,62,63
 155 544 155 544 151 528 c 0,64,65
 145 508 145 508 145 486 c 2,66,-1
 145 279 l 1,67,-1
 145 73 l 2,68,69
 145 42 145 42 124 21 c 256,70,71
 103 0 103 0 73 0 c 0,0,1
EndSplineSet
EndChar

StartChar: o
Encoding: 111 111 112
Width: 531
Flags: W
LayerCount: 2
Fore
SplineSet
433 610 m 0,0,1
 447 582 447 582 454 554 c 0,2,3
 457 540 457 540 459 524.5 c 128,-1,4
 461 509 461 509 461 492 c 2,5,-1
 461 353 l 1,6,-1
 461 214 l 2,7,8
 461 197 461 197 459 181.5 c 128,-1,9
 457 166 457 166 454 151 c 0,10,11
 446 121 446 121 433 96 c 0,12,13
 419 70 419 70 399 50 c 0,14,15
 378 29 378 29 353 15 c 0,16,17
 340 8 340 8 326 2.5 c 128,-1,18
 312 -3 312 -3 297 -6 c 0,19,20
 281 -10 281 -10 264.5 -12 c 128,-1,21
 248 -14 248 -14 230 -14 c 0,22,23
 198 -14 198 -14 164 -6 c 0,24,25
 149 -3 149 -3 135 2.5 c 128,-1,26
 121 8 121 8 107 15 c 0,27,28
 94 23 94 23 83 31.5 c 128,-1,29
 72 40 72 40 61 50 c 0,30,31
 41 72 41 72 28 96 c 0,32,33
 20 109 20 109 15.5 123 c 128,-1,34
 11 137 11 137 7 151 c 0,35,36
 0 179 0 179 0 214 c 2,37,-1
 0 353 l 1,38,-1
 0 492 l 2,39,40
 0 527 0 527 7 554 c 0,41,42
 11 569 11 569 15.5 582.5 c 128,-1,43
 20 596 20 596 28 610 c 0,44,45
 41 634 41 634 61 656 c 0,46,47
 72 666 72 666 83 674.5 c 128,-1,48
 94 683 94 683 107 690 c 0,49,50
 132 704 132 704 164 712 c 0,51,52
 198 720 198 720 230 720 c 0,53,54
 248 720 248 720 264.5 718 c 128,-1,55
 281 716 281 716 297 712 c 0,56,57
 329 704 329 704 353 690 c 0,58,59
 367 683 367 683 378 674.5 c 128,-1,60
 389 666 389 666 399 656 c 0,61,62
 419 635 419 635 433 610 c 0,0,1
145 486 m 2,63,-1
 145 353 l 1,64,-1
 145 220 l 2,65,66
 145 196 145 196 151 178 c 0,67,68
 153 168 153 168 157.5 160.5 c 128,-1,69
 162 153 162 153 167 145 c 0,70,71
 178 131 178 131 193 125 c 0,72,73
 208 118 208 118 230 118 c 0,74,75
 253 118 253 118 268 125 c 0,76,77
 283 131 283 131 294 145 c 0,78,79
 299 153 299 153 303.5 160.5 c 128,-1,80
 308 168 308 168 310 178 c 0,81,82
 316 196 316 196 316 220 c 2,83,-1
 316 353 l 1,84,-1
 316 486 l 2,85,86
 316 508 316 508 310 528 c 0,87,88
 306 544 306 544 294 561 c 0,89,90
 283 575 283 575 268 581 c 0,91,92
 253 588 253 588 230 588 c 0,93,94
 208 588 208 588 193 581 c 0,95,96
 178 575 178 575 167 561 c 0,97,98
 155 544 155 544 151 528 c 0,99,100
 145 508 145 508 145 486 c 2,63,-1
EndSplineSet
EndChar

StartChar: p
Encoding: 112 112 113
Width: 514
Flags: W
LayerCount: 2
Fore
SplineSet
414 606 m 0,0,1
 430 580 430 580 437 554 c 0,2,3
 444 529 444 529 444 495 c 256,4,5
 444 461 444 461 437 436 c 0,6,7
 430 410 430 410 414 384 c 0,8,9
 401 361 401 361 379 342 c 0,10,11
 369 332 369 332 358 324.5 c 128,-1,12
 347 317 347 317 334 310 c 0,13,14
 321 304 321 304 307.5 299 c 128,-1,15
 294 294 294 294 280 291 c 0,16,17
 253 284 253 284 220 284 c 2,18,-1
 188 284 l 1,19,-1
 155 284 l 2,20,21
 151 284 151 284 148 281 c 256,22,23
 145 278 145 278 145 274 c 2,24,-1
 145 173 l 1,25,-1
 145 73 l 2,26,27
 145 42 145 42 124 21 c 256,28,29
 103 0 103 0 73 0 c 0,30,31
 42 0 42 0 21 21 c 256,32,33
 0 42 0 42 0 73 c 2,34,-1
 0 357 l 1,35,-1
 0 641 l 2,36,37
 0 668 0 668 19 687 c 256,38,39
 38 706 38 706 65 706 c 2,40,-1
 143 706 l 1,41,-1
 220 706 l 2,42,43
 253 706 253 706 280 699 c 0,44,45
 294 696 294 696 306.5 692 c 128,-1,46
 319 688 319 688 334 680 c 0,47,48
 347 673 347 673 358 665.5 c 128,-1,49
 369 658 369 658 379 648 c 0,50,51
 401 629 401 629 414 606 c 0,0,1
145 566 m 2,52,-1
 145 495 l 1,53,-1
 145 424 l 2,54,55
 145 418 145 418 148 417 c 0,56,57
 151 414 151 414 155 414 c 2,58,-1
 184 414 l 1,59,-1
 213 414 l 2,60,61
 230 414 230 414 247 419 c 0,62,63
 261 423 261 423 275 435 c 0,64,65
 286 444 286 444 293 460 c 0,66,67
 299 475 299 475 299 495 c 256,68,69
 299 515 299 515 293 530 c 0,70,71
 286 546 286 546 275 555 c 0,72,73
 261 567 261 567 247 571 c 0,74,75
 230 576 230 576 213 576 c 2,76,-1
 184 576 l 1,77,-1
 155 576 l 2,78,79
 151 576 151 576 148 573 c 0,80,81
 145 571 145 571 145 566 c 2,52,-1
EndSplineSet
EndChar

StartChar: q
Encoding: 113 113 114
Width: 531
Flags: W
LayerCount: 2
Fore
SplineSet
167 145 m 0,0,1
 178 131 178 131 193 125 c 0,2,3
 208 118 208 118 230 118 c 0,4,5
 253 118 253 118 268 125 c 0,6,7
 283 131 283 131 294 145 c 0,8,9
 299 153 299 153 303.5 160.5 c 128,-1,10
 308 168 308 168 310 178 c 0,11,12
 316 196 316 196 316 220 c 2,13,-1
 316 353 l 1,14,-1
 316 486 l 2,15,16
 316 508 316 508 310 528 c 0,17,18
 306 544 306 544 294 561 c 0,19,20
 283 575 283 575 268 581 c 0,21,22
 253 588 253 588 230 588 c 0,23,24
 208 588 208 588 193 581 c 0,25,26
 178 575 178 575 167 561 c 0,27,28
 155 544 155 544 151 528 c 0,29,30
 145 508 145 508 145 486 c 2,31,-1
 145 353 l 1,32,-1
 145 220 l 2,33,34
 145 196 145 196 151 178 c 0,35,36
 153 168 153 168 157.5 160.5 c 128,-1,37
 162 153 162 153 167 145 c 0,0,1
433 610 m 0,38,39
 447 582 447 582 454 554 c 0,40,41
 457 540 457 540 459 524.5 c 128,-1,42
 461 509 461 509 461 492 c 2,43,-1
 461 353 l 1,44,-1
 461 214 l 2,45,46
 461 197 461 197 459 181.5 c 128,-1,47
 457 166 457 166 454 151 c 0,48,49
 446 121 446 121 433 96 c 0,50,51
 422 76 422 76 408 59 c 0,52,53
 400 51 400 51 392.5 43.5 c 128,-1,54
 385 36 385 36 375 29 c 0,55,56
 374 28 374 28 371 23 c 0,57,58
 371 21 371 21 373 15 c 2,59,-1
 383 3 l 1,60,-1
 393 -10 l 2,61,62
 402 -22 402 -22 406 -36 c 128,-1,63
 410 -50 410 -50 408 -64 c 256,64,65
 406 -78 406 -78 399 -91 c 128,-1,66
 392 -104 392 -104 380 -113 c 0,67,68
 368 -123 368 -123 354 -126.5 c 128,-1,69
 340 -130 340 -130 326 -128 c 256,70,71
 312 -126 312 -126 299 -119 c 128,-1,72
 286 -112 286 -112 277 -100 c 2,73,-1
 252 -68 l 1,74,-1
 228 -35 l 2,75,76
 220 -25 220 -25 209 -19 c 0,77,78
 198 -12 198 -12 186 -11 c 0,79,80
 162 -6 162 -6 145 -1 c 0,81,82
 134 2 134 2 125 6 c 128,-1,83
 116 10 116 10 107 15 c 0,84,85
 94 23 94 23 83 31.5 c 128,-1,86
 72 40 72 40 61 50 c 0,87,88
 41 72 41 72 28 96 c 0,89,90
 20 109 20 109 15.5 123 c 128,-1,91
 11 137 11 137 7 151 c 0,92,93
 0 179 0 179 0 214 c 2,94,-1
 0 353 l 1,95,-1
 0 492 l 2,96,97
 0 527 0 527 7 554 c 0,98,99
 11 569 11 569 15.5 582.5 c 128,-1,100
 20 596 20 596 28 610 c 0,101,102
 41 634 41 634 61 656 c 0,103,104
 72 666 72 666 83 674.5 c 128,-1,105
 94 683 94 683 107 690 c 0,106,107
 132 704 132 704 164 712 c 0,108,109
 198 720 198 720 230 720 c 0,110,111
 248 720 248 720 264.5 718 c 128,-1,112
 281 716 281 716 297 712 c 0,113,114
 329 704 329 704 353 690 c 0,115,116
 367 683 367 683 378 674.5 c 128,-1,117
 389 666 389 666 399 656 c 0,118,119
 419 635 419 635 433 610 c 0,38,39
EndSplineSet
EndChar

StartChar: r
Encoding: 114 114 115
Width: 514
Flags: W
LayerCount: 2
Fore
SplineSet
333 299 m 2,0,-1
 382 202 l 1,1,-1
 431 105 l 2,2,3
 438 91 438 91 438.5 77 c 128,-1,4
 439 63 439 63 435 50 c 0,5,6
 426 22 426 22 398 8 c 0,7,8
 371 -6 371 -6 343 4 c 0,9,10
 314 14 314 14 301 40 c 2,11,-1
 242 157 l 1,12,-1
 184 273 l 2,13,14
 181 278 181 278 177 281 c 0,15,16
 172 284 172 284 166 284 c 2,17,-1
 161 284 l 1,18,-1
 155 284 l 2,19,20
 151 284 151 284 148 281 c 256,21,22
 145 278 145 278 145 274 c 2,23,-1
 145 173 l 1,24,-1
 145 73 l 2,25,26
 145 42 145 42 124 21 c 256,27,28
 103 0 103 0 73 0 c 0,29,30
 42 0 42 0 21 21 c 256,31,32
 0 42 0 42 0 73 c 2,33,-1
 0 357 l 1,34,-1
 0 641 l 2,35,36
 0 668 0 668 19 687 c 256,37,38
 38 706 38 706 65 706 c 2,39,-1
 143 706 l 1,40,-1
 220 706 l 2,41,42
 253 706 253 706 280 699 c 0,43,44
 294 696 294 696 307.5 691 c 128,-1,45
 321 686 321 686 334 680 c 0,46,47
 347 673 347 673 358 665.5 c 128,-1,48
 369 658 369 658 379 648 c 0,49,50
 401 629 401 629 414 606 c 0,51,52
 430 580 430 580 437 554 c 0,53,54
 444 529 444 529 444 495 c 256,55,56
 444 461 444 461 437 436 c 0,57,58
 430 410 430 410 414 384 c 0,59,60
 407 373 407 373 399 363 c 128,-1,61
 391 353 391 353 382 344 c 0,62,63
 364 327 364 327 340 313 c 1,64,-1
 339 313 l 1,65,-1
 338 312 l 2,66,67
 335 311 335 311 333 307 c 0,68,69
 332 303 332 303 333 299 c 2,0,-1
145 566 m 2,70,-1
 145 495 l 1,71,-1
 145 424 l 2,72,73
 145 418 145 418 148 417 c 0,74,75
 151 414 151 414 155 414 c 2,76,-1
 184 414 l 1,77,-1
 213 414 l 2,78,79
 230 414 230 414 247 419 c 0,80,81
 261 423 261 423 275 435 c 0,82,83
 286 444 286 444 293 460 c 0,84,85
 299 475 299 475 299 495 c 256,86,87
 299 515 299 515 293 530 c 0,88,89
 286 546 286 546 275 555 c 0,90,91
 261 567 261 567 247 571 c 0,92,93
 230 576 230 576 213 576 c 2,94,-1
 184 576 l 1,95,-1
 155 576 l 2,96,97
 151 576 151 576 148 573 c 0,98,99
 145 571 145 571 145 566 c 2,70,-1
EndSplineSet
EndChar

StartChar: s
Encoding: 115 115 116
Width: 523
Flags: W
LayerCount: 2
Fore
SplineSet
406 337 m 0,0,1
 442 296 442 296 450 240 c 0,2,3
 455 212 455 212 452 185 c 128,-1,4
 449 158 449 158 441 132 c 0,5,6
 425 80 425 80 384 44 c 0,7,8
 345 8 345 8 291 -6 c 0,9,10
 233 -20 233 -20 177 -10 c 0,11,12
 119 -1 119 -1 72 34 c 0,13,14
 52 48 52 48 35 70 c 0,15,16
 19 91 19 91 9 112 c 0,17,18
 1 129 1 129 3 146.5 c 128,-1,19
 5 164 5 164 14 178 c 256,20,21
 23 192 23 192 38.5 201 c 128,-1,22
 54 210 54 210 73 210 c 0,23,24
 93 210 93 210 110 199 c 0,25,26
 128 188 128 188 135 170 c 0,27,28
 137 166 137 166 139.5 162.5 c 128,-1,29
 142 159 142 159 145 155 c 0,30,31
 147 150 147 150 150.5 146.5 c 128,-1,32
 154 143 154 143 158 139 c 0,33,34
 174 125 174 125 194.5 119 c 128,-1,35
 215 113 215 113 236 115 c 256,36,37
 257 117 257 117 275 128 c 128,-1,38
 293 139 293 139 303 159 c 0,39,40
 315 184 315 184 312.5 204 c 128,-1,41
 310 224 310 224 298 241 c 256,42,43
 286 258 286 258 266.5 269.5 c 128,-1,44
 247 281 247 281 226 288 c 0,45,46
 192 300 192 300 157 313 c 128,-1,47
 122 326 122 326 92 345 c 0,48,49
 61 365 61 365 38.5 391.5 c 128,-1,50
 16 418 16 418 6 458 c 0,51,52
 -6 510 -6 510 4.5 556.5 c 128,-1,53
 15 603 15 603 44 639 c 0,54,55
 73 674 73 674 116 695.5 c 128,-1,56
 159 717 159 717 211 719 c 0,57,58
 275 722 275 722 329 696 c 0,59,60
 355 684 355 684 377 666 c 128,-1,61
 399 648 399 648 414 624 c 0,62,63
 425 606 425 606 425 587 c 128,-1,64
 425 568 425 568 417 552 c 0,65,66
 408 536 408 536 392 525.5 c 128,-1,67
 376 515 376 515 355 515 c 2,68,-1
 354 515 l 2,69,70
 336 515 336 515 319 525 c 0,71,72
 303 535 303 535 293 550 c 0,73,74
 288 559 288 559 282 566 c 0,75,76
 278 570 278 570 274 573.5 c 128,-1,77
 270 577 270 577 265 581 c 0,78,79
 244 595 244 595 220 593.5 c 128,-1,80
 196 592 196 592 176 580 c 0,81,82
 157 568 157 568 146.5 547 c 128,-1,83
 136 526 136 526 143 500 c 0,84,85
 148 480 148 480 161 467.5 c 128,-1,86
 174 455 174 455 191 446 c 256,87,88
 208 437 208 437 227 431 c 128,-1,89
 246 425 246 425 263 419 c 0,90,91
 283 412 283 412 302.5 404.5 c 128,-1,92
 322 397 322 397 340 387 c 256,93,94
 358 377 358 377 375 365 c 128,-1,95
 392 353 392 353 406 337 c 0,0,1
EndSplineSet
EndChar

StartChar: t
Encoding: 116 116 117
Width: 524
Flags: W
LayerCount: 2
Fore
SplineSet
0 641 m 256,0,1
 0 668 0 668 19 687 c 256,2,3
 38 706 38 706 65 706 c 2,4,-1
 227 706 l 1,5,-1
 389 706 l 2,6,7
 416 706 416 706 435 687 c 256,8,9
 454 668 454 668 454 641 c 256,10,11
 454 614 454 614 435 595 c 256,12,13
 416 576 416 576 389 576 c 2,14,-1
 350 576 l 1,15,-1
 310 576 l 2,16,17
 306 576 306 576 303 573 c 0,18,19
 300 571 300 571 300 566 c 2,20,-1
 300 316 l 1,21,-1
 300 65 l 2,22,23
 300 38 300 38 281 19 c 256,24,25
 262 0 262 0 235 0 c 2,26,-1
 227 0 l 1,27,-1
 220 0 l 2,28,29
 193 0 193 0 174 19 c 256,30,31
 155 38 155 38 155 65 c 2,32,-1
 155 316 l 1,33,-1
 155 566 l 2,34,35
 155 571 155 571 152 573 c 0,36,37
 149 576 149 576 145 576 c 2,38,-1
 105 576 l 1,39,-1
 65 576 l 2,40,41
 38 576 38 576 19 595 c 256,42,43
 0 614 0 614 0 641 c 256,0,1
EndSplineSet
EndChar

StartChar: u
Encoding: 117 117 118
Width: 546
Flags: W
LayerCount: 2
Fore
SplineSet
388 706 m 0,0,1
 417 706 417 706 440 685 c 0,2,3
 461 662 461 662 461 633 c 2,4,-1
 461 423 l 1,5,-1
 461 214 l 2,6,7
 461 197 461 197 459 181.5 c 128,-1,8
 457 166 457 166 454 151 c 0,9,10
 446 121 446 121 433 96 c 0,11,12
 419 70 419 70 399 50 c 0,13,14
 378 29 378 29 353 15 c 0,15,16
 340 8 340 8 326 2.5 c 128,-1,17
 312 -3 312 -3 297 -6 c 0,18,19
 281 -10 281 -10 264.5 -12 c 128,-1,20
 248 -14 248 -14 230 -14 c 0,21,22
 198 -14 198 -14 164 -6 c 0,23,24
 156 -4 156 -4 146.5 -1 c 128,-1,25
 137 2 137 2 128 6 c 0,26,27
 117 10 117 10 107 15 c 0,28,29
 94 23 94 23 83 31.5 c 128,-1,30
 72 40 72 40 61 50 c 0,31,32
 41 72 41 72 28 96 c 0,33,34
 20 109 20 109 15.5 123 c 128,-1,35
 11 137 11 137 7 151 c 0,36,37
 0 179 0 179 0 214 c 2,38,-1
 0 423 l 1,39,-1
 0 633 l 2,40,41
 0 662 0 662 21 685 c 0,42,43
 42 706 42 706 73 706 c 0,44,45
 103 706 103 706 124 685 c 0,46,47
 145 662 145 662 145 633 c 2,48,-1
 145 426 l 1,49,-1
 145 220 l 2,50,51
 145 196 145 196 151 178 c 0,52,53
 153 168 153 168 157.5 160.5 c 128,-1,54
 162 153 162 153 167 145 c 0,55,56
 178 131 178 131 193 125 c 0,57,58
 208 118 208 118 230 118 c 0,59,60
 253 118 253 118 268 125 c 0,61,62
 283 131 283 131 294 145 c 0,63,64
 299 153 299 153 303.5 160.5 c 128,-1,65
 308 168 308 168 310 178 c 0,66,67
 316 196 316 196 316 220 c 2,68,-1
 316 426 l 1,69,-1
 316 633 l 2,70,71
 316 662 316 662 337 685 c 0,72,73
 358 706 358 706 388 706 c 0,0,1
EndSplineSet
EndChar

StartChar: v
Encoding: 118 118 119
Width: 575
Flags: W
LayerCount: 2
Fore
SplineSet
367 654 m 2,0,1
 375 677 375 677 393 691 c 0,2,3
 411 706 411 706 435 706 c 0,4,5
 452 706 452 706 467 698.5 c 128,-1,6
 482 691 482 691 491 678 c 0,7,8
 512 651 512 651 503 616 c 2,9,-1
 425 345 l 1,10,-1
 348 73 l 2,11,12
 339 41 339 41 312 20 c 0,13,14
 286 0 286 0 252 0 c 0,15,16
 217 0 217 0 191 20 c 0,17,18
 164 41 164 41 155 73 c 2,19,-1
 79 344 l 1,20,-1
 3 614 l 2,21,22
 -2 631 -2 631 1.5 647.5 c 128,-1,23
 5 664 5 664 15 677 c 256,24,25
 25 690 25 690 39.5 698 c 128,-1,26
 54 706 54 706 72 706 c 0,27,28
 96 706 96 706 116 691 c 0,29,30
 125 683 125 683 132 673.5 c 128,-1,31
 139 664 139 664 142 652 c 2,32,-1
 194 456 l 1,33,-1
 246 259 l 2,34,35
 247 254 247 254 253 254 c 256,36,37
 259 254 259 254 260 259 c 2,38,-1
 314 456 l 1,39,-1
 367 654 l 2,0,1
EndSplineSet
EndChar

StartChar: w
Encoding: 119 119 120
Width: 767
Flags: W
LayerCount: 2
Fore
SplineSet
609 706 m 0,0,1
 638 706 638 706 661 685 c 0,2,3
 682 662 682 662 682 633 c 2,4,-1
 682 423 l 1,5,-1
 682 214 l 2,6,7
 682 179 682 179 675 151 c 0,8,9
 667 121 667 121 654 96 c 0,10,11
 640 70 640 70 620 50 c 0,12,13
 599 29 599 29 574 15 c 0,14,15
 561 8 561 8 547 2.5 c 128,-1,16
 533 -3 533 -3 518 -6 c 0,17,18
 502 -10 502 -10 485.5 -12 c 128,-1,19
 469 -14 469 -14 451 -14 c 0,20,21
 425 -14 425 -14 399 -6 c 256,22,23
 373 2 373 2 352 15 c 0,24,25
 347 19 347 19 341 19 c 0,26,27
 334 19 334 19 330 15 c 0,28,29
 309 2 309 2 283 -6 c 0,30,31
 256 -14 256 -14 230 -14 c 0,32,33
 198 -14 198 -14 164 -6 c 0,34,35
 149 -3 149 -3 135 2.5 c 128,-1,36
 121 8 121 8 107 15 c 0,37,38
 94 23 94 23 83 31.5 c 128,-1,39
 72 40 72 40 61 50 c 0,40,41
 41 72 41 72 28 96 c 0,42,43
 20 109 20 109 15.5 123 c 128,-1,44
 11 137 11 137 7 151 c 0,45,46
 0 179 0 179 0 214 c 2,47,-1
 0 423 l 1,48,-1
 0 633 l 2,49,50
 0 662 0 662 21 685 c 0,51,52
 26 690 26 690 35 693.5 c 128,-1,53
 44 697 44 697 52 700 c 0,54,55
 62 704 62 704 73 706 c 0,56,57
 103 706 103 706 124 685 c 0,58,59
 145 662 145 662 145 633 c 2,60,-1
 145 407 l 1,61,-1
 145 181 l 2,62,63
 145 155 145 155 163 137 c 256,64,65
 181 119 181 119 206 119 c 0,66,67
 230 118 230 118 248 134 c 0,68,69
 267 150 267 150 267 174 c 2,70,-1
 267 403 l 1,71,-1
 267 632 l 2,72,73
 267 664 267 664 289 684 c 0,74,75
 309 706 309 706 341 706 c 256,76,77
 373 706 373 706 393 684 c 0,78,79
 415 664 415 664 415 632 c 2,80,-1
 415 403 l 1,81,-1
 415 174 l 2,82,83
 415 162 415 162 420.5 152 c 128,-1,84
 426 142 426 142 434 134 c 0,85,86
 452 118 452 118 477 119 c 0,87,88
 501 119 501 119 519 137 c 256,89,90
 537 155 537 155 537 180 c 2,91,-1
 537 407 l 1,92,-1
 537 633 l 2,93,94
 537 662 537 662 558 685 c 0,95,96
 579 706 579 706 609 706 c 0,0,1
EndSplineSet
EndChar

StartChar: x
Encoding: 120 120 121
Width: 528
Flags: W
LayerCount: 2
Fore
SplineSet
439 438 m 0,0,1
 435 430 435 430 430 422.5 c 128,-1,2
 425 415 425 415 420 408 c 0,3,4
 414 400 414 400 408 393.5 c 128,-1,5
 402 387 402 387 394 381 c 0,6,7
 392 379 392 379 392 377 c 256,8,9
 392 375 392 375 394 373 c 0,10,11
 409 359 409 359 420 346 c 0,12,13
 432 331 432 331 439 315 c 0,14,15
 448 296 448 296 453 275 c 0,16,17
 456 264 456 264 457 253 c 128,-1,18
 458 242 458 242 458 230 c 2,19,-1
 458 152 l 1,20,-1
 458 74 l 2,21,22
 458 43 458 43 436 21 c 0,23,24
 415 0 415 0 384 0 c 0,25,26
 369 0 369 0 355.5 6 c 128,-1,27
 342 12 342 12 332 22 c 0,28,29
 311 45 311 45 311 75 c 2,30,-1
 311 153 l 1,31,-1
 311 231 l 2,32,33
 311 248 311 248 306 263 c 0,34,35
 300 277 300 277 290 289 c 0,36,37
 280 299 280 299 265 305 c 256,38,39
 250 311 250 311 230 311 c 256,40,41
 210 311 210 311 194 305 c 0,42,43
 179 299 179 299 169 289 c 0,44,45
 158 276 158 276 154 263 c 0,46,47
 148 249 148 249 148 231 c 2,48,-1
 148 153 l 1,49,-1
 148 74 l 2,50,51
 148 43 148 43 127 22 c 0,52,53
 105 0 105 0 74 0 c 0,54,55
 42 0 42 0 22 22 c 0,56,57
 0 42 0 42 0 74 c 2,58,-1
 0 152 l 1,59,-1
 0 230 l 2,60,61
 0 252 0 252 5 275 c 0,62,63
 9 296 9 296 19 315 c 0,64,65
 27 332 27 332 39 346 c 0,66,67
 44 354 44 354 50.5 360.5 c 128,-1,68
 57 367 57 367 64 373 c 0,69,70
 66 375 66 375 66 377 c 256,71,72
 66 379 66 379 64 381 c 0,73,74
 56 387 56 387 50 393.5 c 128,-1,75
 44 400 44 400 38 407 c 0,76,77
 29 421 29 421 19 438 c 0,78,79
 9 459 9 459 5 479 c 0,80,81
 0 502 0 502 0 523 c 2,82,-1
 0 578 l 1,83,-1
 0 632 l 2,84,85
 0 664 0 664 22 684 c 0,86,87
 42 706 42 706 74 706 c 0,88,89
 90 706 90 706 103 700 c 128,-1,90
 116 694 116 694 126 684 c 0,91,92
 147 661 147 661 147 631 c 2,93,-1
 147 577 l 1,94,-1
 147 522 l 2,95,96
 147 505 147 505 153 490 c 0,97,98
 158 475 158 475 168 465 c 0,99,100
 180 453 180 453 193 449 c 0,101,102
 209 443 209 443 229 443 c 256,103,104
 249 443 249 443 264 449 c 0,105,106
 277 453 277 453 289 465 c 0,107,108
 298 474 298 474 305 490 c 0,109,110
 310 507 310 507 310 522 c 2,111,-1
 310 577 l 1,112,-1
 310 632 l 2,113,114
 310 664 310 664 332 684 c 0,115,116
 342 694 342 694 355 700 c 128,-1,117
 368 706 368 706 384 706 c 0,118,119
 399 706 399 706 412.5 700 c 128,-1,120
 426 694 426 694 436 684 c 0,121,122
 458 664 458 664 458 632 c 2,123,-1
 458 578 l 1,124,-1
 458 523 l 2,125,126
 458 512 458 512 457 501 c 128,-1,127
 456 490 456 490 453 479 c 0,128,129
 449 459 449 459 439 438 c 0,0,1
EndSplineSet
EndChar

StartChar: y
Encoding: 121 121 122
Width: 531
Flags: W
LayerCount: 2
Fore
SplineSet
388 706 m 0,0,1
 417 706 417 706 440 685 c 0,2,3
 461 662 461 662 461 633 c 2,4,-1
 461 556 l 1,5,-1
 461 479 l 2,6,7
 461 462 461 462 459 446.5 c 128,-1,8
 457 431 457 431 454 416 c 0,9,10
 446 386 446 386 433 361 c 0,11,12
 419 335 419 335 399 315 c 0,13,14
 378 294 378 294 353 280 c 0,15,16
 348 278 348 278 343 275 c 128,-1,17
 338 272 338 272 333 270 c 0,18,19
 327 268 327 268 321.5 266 c 128,-1,20
 316 264 316 264 310 262 c 0,21,22
 308 262 308 262 305 259 c 0,23,24
 303 255 303 255 303 253 c 2,25,-1
 303 163 l 1,26,-1
 303 73 l 2,27,28
 303 42 303 42 282 21 c 256,29,30
 261 0 261 0 230 0 c 0,31,32
 200 0 200 0 179 21 c 256,33,34
 158 42 158 42 158 73 c 2,35,-1
 158 163 l 1,36,-1
 158 253 l 2,37,38
 158 255 158 255 156 259 c 0,39,40
 153 262 153 262 151 262 c 0,41,42
 141 265 141 265 128 270 c 0,43,44
 123 272 123 272 117.5 275 c 128,-1,45
 112 278 112 278 107 280 c 0,46,47
 94 288 94 288 83 296.5 c 128,-1,48
 72 305 72 305 61 315 c 0,49,50
 41 337 41 337 28 361 c 0,51,52
 20 374 20 374 15.5 388 c 128,-1,53
 11 402 11 402 7 416 c 0,54,55
 0 444 0 444 0 479 c 2,56,-1
 0 556 l 1,57,-1
 0 633 l 2,58,59
 0 662 0 662 21 685 c 0,60,61
 42 706 42 706 73 706 c 0,62,63
 103 706 103 706 124 685 c 0,64,65
 145 662 145 662 145 633 c 2,66,-1
 145 559 l 1,67,-1
 145 485 l 2,68,69
 145 461 145 461 151 443 c 0,70,71
 155 425 155 425 167 410 c 0,72,73
 178 396 178 396 193 390 c 0,74,75
 208 383 208 383 230 383 c 0,76,77
 253 383 253 383 268 390 c 0,78,79
 283 396 283 396 294 410 c 0,80,81
 306 425 306 425 310 443 c 0,82,83
 316 461 316 461 316 485 c 2,84,-1
 316 559 l 1,85,-1
 316 633 l 2,86,87
 316 662 316 662 337 685 c 0,88,89
 358 706 358 706 388 706 c 0,0,1
EndSplineSet
EndChar

StartChar: z
Encoding: 122 122 123
Width: 536
Flags: W
LayerCount: 2
Fore
SplineSet
15 641 m 256,0,1
 15 668 15 668 34 687 c 256,2,3
 53 706 53 706 80 706 c 2,4,-1
 233 706 l 1,5,-1
 386 706 l 2,6,7
 409 706 409 706 426.5 695 c 128,-1,8
 444 684 444 684 454 667 c 0,9,10
 465 650 465 650 466 629 c 128,-1,11
 467 608 467 608 455 588 c 2,12,-1
 315 362 l 1,13,-1
 176 137 l 2,14,15
 174 135 174 135 176 132 c 0,16,17
 176 130 176 130 180 130 c 2,18,-1
 285 130 l 1,19,-1
 389 130 l 2,20,21
 403 130 403 130 414.5 124.5 c 128,-1,22
 426 119 426 119 435 111 c 0,23,24
 454 92 454 92 454 65 c 256,25,26
 454 38 454 38 435 19 c 256,27,28
 416 0 416 0 389 0 c 2,29,-1
 240 0 l 1,30,-1
 90 0 l 2,31,32
 64 0 64 0 43 13.5 c 128,-1,33
 22 27 22 27 11 47 c 256,34,35
 0 67 0 67 0 91 c 128,-1,36
 0 115 0 115 14 138 c 1,37,-1
 14 139 l 1,38,-1
 147 354 l 1,39,-1
 281 569 l 1,40,41
 281 569 281 569 281 574 c 0,42,43
 279 576 279 576 276 576 c 2,44,-1
 178 576 l 1,45,-1
 80 576 l 2,46,47
 53 576 53 576 34 595 c 256,48,49
 15 614 15 614 15 641 c 256,0,1
EndSplineSet
EndChar

StartChar: braceleft
Encoding: 123 123 124
Width: 442
Flags: W
LayerCount: 2
Fore
SplineSet
238 350 m 0,0,1
 234 345 234 345 229.5 340 c 128,-1,2
 225 335 225 335 219 331 c 0,3,4
 206 321 206 321 190 317 c 0,5,6
 188 315 188 315 188 314 c 0,7,8
 188 311 188 311 190 311 c 0,9,10
 206 305 206 305 219 297 c 0,11,12
 231 288 231 288 238 277 c 0,13,14
 248 262 248 262 253 241 c 0,15,16
 256 230 256 230 257 218 c 128,-1,17
 258 206 258 206 258 192 c 2,18,-1
 258 114 l 1,19,-1
 258 36 l 2,20,21
 258 25 258 25 258.5 16.5 c 128,-1,22
 259 8 259 8 259 0 c 0,23,24
 260 -15 260 -15 262 -24 c 0,25,26
 263 -29 263 -29 264 -32 c 128,-1,27
 265 -35 265 -35 267 -38 c 0,28,29
 269 -42 269 -42 275 -46 c 0,30,31
 278 -48 278 -48 289 -50 c 0,32,33
 294 -51 294 -51 299 -51.5 c 128,-1,34
 304 -52 304 -52 310 -52 c 2,35,-1
 316 -52 l 1,36,-1
 321 -52 l 2,37,38
 343 -52 343 -52 357 -67 c 0,39,40
 372 -82 372 -82 372 -103 c 256,41,42
 372 -124 372 -124 357 -139 c 256,43,44
 342 -154 342 -154 321 -154 c 2,45,-1
 306 -154 l 1,46,-1
 291 -154 l 2,47,48
 249 -154 249 -154 219 -145 c 0,49,50
 187 -134 187 -134 168 -117 c 0,51,52
 149 -97 149 -97 139 -66 c 0,53,54
 130 -35 130 -35 130 11 c 2,55,-1
 130 91 l 1,56,-1
 130 172 l 2,57,58
 130 182 130 182 129.5 190.5 c 128,-1,59
 129 199 129 199 129 206 c 0,60,61
 127 222 127 222 126 229 c 0,62,63
 124 238 124 238 121 243 c 0,64,65
 119 246 119 246 111 252 c 0,66,67
 104 256 104 256 93 257 c 0,68,69
 88 258 88 258 81 258.5 c 128,-1,70
 74 259 74 259 66 259 c 2,71,-1
 61 259 l 1,72,-1
 55 259 l 2,73,74
 32 259 32 259 16 275 c 256,75,76
 0 291 0 291 0 314 c 256,77,78
 0 337 0 337 16 353 c 256,79,80
 32 369 32 369 55 369 c 2,81,-1
 61 369 l 1,82,-1
 66 369 l 2,83,84
 74 369 74 369 81 369 c 128,-1,85
 88 369 88 369 93 370 c 0,86,87
 105 373 105 373 111 376 c 0,88,89
 118 380 118 380 121 385 c 0,90,91
 124 388 124 388 126 398 c 256,92,93
 128 408 128 408 129 421 c 0,94,95
 129 429 129 429 129.5 437 c 128,-1,96
 130 445 130 445 130 456 c 2,97,-1
 130 530 l 1,98,-1
 130 604 l 2,99,100
 130 648 130 648 139 681 c 0,101,102
 149 712 149 712 168 731 c 256,103,104
 187 750 187 750 219 759 c 0,105,106
 234 764 234 764 252 766.5 c 128,-1,107
 270 769 270 769 291 769 c 2,108,-1
 306 769 l 1,109,-1
 320 769 l 2,110,111
 343 769 343 769 357 753 c 0,112,113
 372 738 372 738 372 717 c 256,114,115
 372 696 372 696 357 681 c 0,116,117
 343 665 343 665 320 665 c 2,118,-1
 315 665 l 1,119,-1
 310 665 l 2,120,121
 304 665 304 665 299 665 c 128,-1,122
 294 665 294 665 289 664 c 0,123,124
 278 662 278 662 275 660 c 0,125,126
 270 657 270 657 267 652 c 0,127,128
 263 645 263 645 262 638 c 0,129,130
 260 629 260 629 259 614 c 0,131,132
 259 606 259 606 258.5 597 c 128,-1,133
 258 588 258 588 258 577 c 2,134,-1
 258 506 l 1,135,-1
 258 435 l 2,136,137
 258 421 258 421 257 409.5 c 128,-1,138
 256 398 256 398 253 387 c 0,139,140
 248 365 248 365 238 350 c 0,0,1
EndSplineSet
EndChar

StartChar: bar
Encoding: 124 124 125
Width: 188
Flags: W
LayerCount: 2
Fore
SplineSet
0 735 m 2,0,1
 0 747 0 747 4.5 758 c 128,-1,2
 9 769 9 769 17 777 c 256,3,4
 25 785 25 785 36 789.5 c 128,-1,5
 47 794 47 794 59 794 c 256,6,7
 71 794 71 794 82 789.5 c 128,-1,8
 93 785 93 785 101 777 c 256,9,10
 109 769 109 769 113.5 758 c 128,-1,11
 118 747 118 747 118 735 c 2,12,-1
 118 328 l 1,13,-1
 118 -78 l 2,14,15
 118 -91 118 -91 113.5 -101.5 c 128,-1,16
 109 -112 109 -112 101 -120 c 0,17,18
 84 -137 84 -137 59 -137 c 256,19,20
 34 -137 34 -137 17 -120 c 0,21,22
 9 -112 9 -112 4.5 -101.5 c 128,-1,23
 0 -91 0 -91 0 -78 c 2,24,-1
 0 328 l 1,25,-1
 0 735 l 2,0,1
EndSplineSet
EndChar

StartChar: Aring
Encoding: 197 197 130
Width: 580
Flags: W
LayerCount: 2
Fore
SplineSet
508 86 m 2,0,1
 513 70 513 70 509 54.5 c 128,-1,2
 505 39 505 39 496 27 c 0,3,4
 475 0 475 0 441 0 c 0,5,6
 418 0 418 0 399 14 c 0,7,8
 379 29 379 29 375 51 c 2,9,-1
 367 82 l 1,10,-1
 359 112 l 2,11,12
 359 115 359 115 356 118 c 0,13,14
 352 120 352 120 349 120 c 2,15,-1
 254 120 l 1,16,-1
 158 120 l 2,17,18
 156 120 156 120 152 118 c 0,19,20
 150 117 150 117 148 113 c 2,21,-1
 140 81 l 1,22,-1
 132 50 l 2,23,24
 126 26 126 26 108 14 c 0,25,26
 91 0 91 0 67 0 c 0,27,28
 33 0 33 0 14 26 c 0,29,30
 -6 52 -6 52 2 84 c 2,31,-1
 71 333 l 1,32,-1
 150 625 l 2,33,34
 152 627 152 627 150 630 c 0,35,36
 150 632 150 632 148 634 c 0,37,38
 140 643 140 643 134.5 652 c 128,-1,39
 129 661 129 661 125 672 c 0,40,41
 117 694 117 694 117 717 c 0,42,43
 117 743 117 743 128 768 c 0,44,45
 133 779 133 779 140.5 789.5 c 128,-1,46
 148 800 148 800 158 810 c 0,47,48
 178 828 178 828 202 839 c 0,49,50
 226 848 226 848 254 848 c 256,51,52
 282 848 282 848 306 839 c 0,53,54
 331 829 331 829 351 810 c 0,55,56
 370 790 370 790 381 768 c 0,57,58
 391 745 391 745 391 717 c 0,59,60
 391 693 391 693 384 673 c 256,61,62
 377 653 377 653 362 635 c 0,63,64
 360 633 360 633 360 631 c 0,65,66
 358 628 358 628 360 626 c 2,67,-1
 444 320 l 1,68,-1
 508 86 l 2,0,1
223 749 m 0,69,70
 216 742 216 742 213 735 c 0,71,72
 210 727 210 727 210 717 c 0,73,74
 210 708 210 708 213 699 c 0,75,76
 216 692 216 692 223 685 c 0,77,78
 228 679 228 679 237 675 c 0,79,80
 244 672 244 672 254 672 c 0,81,82
 263 672 263 672 272 675 c 0,83,84
 281 679 281 679 286 685 c 0,85,86
 292 691 292 691 295 699 c 0,87,88
 299 707 299 707 299 717 c 256,89,90
 299 727 299 727 296 735 c 0,91,92
 294 739 294 739 291.5 742.5 c 128,-1,93
 289 746 289 746 286 749 c 0,94,95
 280 755 280 755 272 758 c 256,96,97
 264 761 264 761 254 761 c 256,98,99
 244 761 244 761 237 758 c 0,100,101
 229 755 229 755 223 749 c 0,69,70
312 250 m 2,102,103
 317 250 317 250 319 253 c 0,104,105
 322 258 322 258 321 262 c 2,106,-1
 293 373 l 1,107,-1
 266 483 l 2,108,109
 263 491 263 491 256 491 c 256,110,111
 249 491 249 491 246 483 c 2,112,-1
 217 373 l 1,113,-1
 188 262 l 2,114,115
 187 258 187 258 189 254 c 0,116,117
 192 250 192 250 197 250 c 2,118,-1
 254 250 l 1,119,-1
 312 250 l 2,102,103
EndSplineSet
EndChar

StartChar: Ccedilla
Encoding: 199 199 131
Width: 531
Flags: W
LayerCount: 2
Fore
SplineSet
388 291 m 0,0,1
 403 292 403 292 416 286 c 128,-1,2
 429 280 429 280 439 270 c 0,3,4
 461 250 461 250 461 219 c 2,5,-1
 461 216 l 1,6,-1
 461 213 l 2,7,8
 461 196 461 196 459 180.5 c 128,-1,9
 457 165 457 165 454 150 c 0,10,11
 446 120 446 120 433 95 c 0,12,13
 419 69 419 69 399 49 c 0,14,15
 378 28 378 28 353 14 c 0,16,17
 344 9 344 9 334.5 5 c 128,-1,18
 325 1 325 1 314 -3 c 0,19,20
 292 -9 292 -9 270 -12 c 0,21,22
 264 -14 264 -14 261 -16 c 0,23,24
 259 -18 259 -18 257.5 -19.5 c 128,-1,25
 256 -21 256 -21 255 -23 c 2,26,-1
 254 -26 l 1,27,-1
 253 -28 l 2,28,29
 251 -31 251 -31 253 -37 c 0,30,31
 257 -41 257 -41 260 -42 c 0,32,33
 269 -43 269 -43 276.5 -45 c 128,-1,34
 284 -47 284 -47 292 -50 c 0,35,36
 306 -56 306 -56 317 -66 c 0,37,38
 330 -77 330 -77 338 -94 c 0,39,40
 345 -109 345 -109 345 -129 c 0,41,42
 345 -151 345 -151 337 -170 c 0,43,44
 333 -179 333 -179 327 -186.5 c 128,-1,45
 321 -194 321 -194 313 -201 c 0,46,47
 297 -214 297 -214 275 -222 c 0,48,49
 254 -228 254 -228 228 -228 c 0,50,51
 219 -228 219 -228 210.5 -227.5 c 128,-1,52
 202 -227 202 -227 194 -226 c 0,53,54
 178 -223 178 -223 163 -217 c 0,55,56
 161 -216 161 -216 159 -215.5 c 128,-1,57
 157 -215 157 -215 155 -213 c 0,58,59
 153 -212 153 -212 150.5 -211 c 128,-1,60
 148 -210 148 -210 145 -208 c 0,61,62
 131 -200 131 -200 128 -184 c 0,63,64
 125 -169 125 -169 134 -155 c 0,65,66
 143 -143 143 -143 157 -140 c 0,67,68
 163 -139 163 -139 170 -140 c 128,-1,69
 177 -141 177 -141 183 -145 c 0,70,71
 187 -147 187 -147 188 -148 c 0,72,73
 190 -149 190 -149 191 -149 c 128,-1,74
 192 -149 192 -149 193 -150 c 0,75,76
 197 -152 197 -152 201 -152.5 c 128,-1,77
 205 -153 205 -153 210 -154 c 256,78,79
 215 -155 215 -155 219 -155.5 c 128,-1,80
 223 -156 223 -156 228 -156 c 0,81,82
 234 -156 234 -156 244 -154 c 0,83,84
 251 -153 251 -153 257 -148 c 0,85,86
 260 -146 260 -146 264 -140 c 0,87,88
 267 -136 267 -136 267 -130 c 0,89,90
 267 -125 267 -125 264 -120 c 0,91,92
 262 -118 262 -118 260 -116 c 128,-1,93
 258 -114 258 -114 256 -112 c 0,94,95
 249 -108 249 -108 242 -107 c 0,96,97
 238 -106 238 -106 234.5 -105.5 c 128,-1,98
 231 -105 231 -105 226 -105 c 256,99,100
 221 -105 221 -105 218 -106 c 0,101,102
 215 -106 215 -106 212.5 -106.5 c 128,-1,103
 210 -107 210 -107 208 -107 c 0,104,105
 202 -109 202 -109 196 -107 c 0,106,107
 194 -105 194 -105 191 -104 c 128,-1,108
 188 -103 188 -103 186 -101 c 2,109,-1
 178 -94 l 1,110,-1
 170 -86 l 2,111,112
 164 -81 164 -81 162 -72 c 256,113,114
 160 -63 160 -63 164 -57 c 2,115,-1
 173 -37 l 1,116,-1
 181 -17 l 2,117,118
 183 -15 183 -15 181 -13 c 2,119,120
 181 -13 181 -13 178 -10 c 0,121,122
 159 -7 159 -7 141 -1 c 0,123,124
 124 5 124 5 107 14 c 0,125,126
 94 22 94 22 83 30.5 c 128,-1,127
 72 39 72 39 61 49 c 0,128,129
 41 71 41 71 28 95 c 0,130,131
 20 108 20 108 15.5 122 c 128,-1,132
 11 136 11 136 7 150 c 0,133,134
 0 178 0 178 0 213 c 2,135,-1
 0 352 l 1,136,-1
 0 491 l 2,137,138
 0 526 0 526 7 553 c 0,139,140
 11 568 11 568 15.5 581.5 c 128,-1,141
 20 595 20 595 28 608 c 0,142,143
 40 633 40 633 61 655 c 0,144,145
 72 665 72 665 83 673.5 c 128,-1,146
 94 682 94 682 107 689 c 0,147,148
 132 703 132 703 164 711 c 0,149,150
 193 718 193 718 230 718 c 0,151,152
 268 718 268 718 297 711 c 0,153,154
 329 703 329 703 353 689 c 0,155,156
 374 678 374 678 389 664 c 0,157,158
 397 657 397 657 404 649 c 128,-1,159
 411 641 411 641 418 633 c 0,160,161
 437 608 437 608 435 580 c 256,162,163
 433 552 433 552 410 534 c 0,164,165
 388 517 388 517 356 520 c 0,166,167
 341 522 341 522 327 528.5 c 128,-1,168
 313 535 313 535 303 548 c 0,169,170
 296 556 296 556 288.5 563.5 c 128,-1,171
 281 571 281 571 272 576 c 0,172,173
 252 588 252 588 230 588 c 0,174,175
 196 588 196 588 172 564 c 0,176,177
 161 553 161 553 153 538.5 c 128,-1,178
 145 524 145 524 145 507 c 2,179,-1
 145 363 l 1,180,-1
 145 219 l 2,181,182
 145 195 145 195 151 177 c 0,183,184
 155 159 155 159 167 144 c 0,185,186
 177 131 177 131 193 123 c 0,187,188
 209 117 209 117 230 117 c 256,189,190
 251 117 251 117 268 123 c 0,191,192
 284 131 284 131 294 144 c 0,193,194
 306 159 306 159 310 177 c 0,195,196
 316 195 316 195 316 218 c 2,197,-1
 316 219 l 2,198,199
 316 247 316 247 337 270 c 0,200,201
 358 291 358 291 388 291 c 0,0,1
EndSplineSet
EndChar

StartChar: aring
Encoding: 229 229 141
Width: 531
Flags: W
LayerCount: 2
Fore
SplineSet
433 610 m 0,0,1
 447 582 447 582 454 554 c 0,2,3
 457 540 457 540 459 524.5 c 128,-1,4
 461 509 461 509 461 492 c 2,5,-1
 461 282 l 1,6,-1
 461 73 l 2,7,8
 461 42 461 42 440 21 c 0,9,10
 435 16 435 16 426 12.5 c 128,-1,11
 417 9 417 9 409 6 c 0,12,13
 399 2 399 2 388 0 c 0,14,15
 358 0 358 0 337 21 c 256,16,17
 316 42 316 42 316 73 c 2,18,-1
 316 144 l 1,19,-1
 316 215 l 2,20,21
 316 219 316 219 313 222 c 256,22,23
 310 225 310 225 306 225 c 2,24,-1
 230 225 l 1,25,-1
 155 225 l 2,26,27
 151 225 151 225 148 222 c 0,28,29
 145 220 145 220 145 215 c 2,30,-1
 145 144 l 1,31,-1
 145 73 l 2,32,33
 145 42 145 42 124 21 c 256,34,35
 103 0 103 0 73 0 c 0,36,37
 42 0 42 0 21 21 c 256,38,39
 0 42 0 42 0 73 c 2,40,-1
 0 282 l 1,41,-1
 0 492 l 2,42,43
 0 527 0 527 7 554 c 0,44,45
 11 569 11 569 15.5 582.5 c 128,-1,46
 20 596 20 596 28 610 c 0,47,48
 39 633 39 633 59 654 c 0,49,50
 78 673 78 673 102 688 c 1,51,-1
 103 688 l 1,52,-1
 105 689 l 2,53,54
 108 691 108 691 110 695 c 0,55,56
 111 699 111 699 109 703 c 0,57,58
 101 718 101 718 98 732 c 0,59,60
 94 745 94 745 94 765 c 0,61,62
 94 794 94 794 104 815 c 0,63,64
 114 839 114 839 134 857 c 0,65,66
 156 877 156 877 179 886 c 0,67,68
 191 891 191 891 204 893.5 c 128,-1,69
 217 896 217 896 231 896 c 256,70,71
 245 896 245 896 258 893.5 c 128,-1,72
 271 891 271 891 283 886 c 0,73,74
 307 877 307 877 327 857 c 0,75,76
 337 848 337 848 344.5 837.5 c 128,-1,77
 352 827 352 827 357 815 c 0,78,79
 368 791 368 791 368 765 c 0,80,81
 368 756 368 756 367 748 c 128,-1,82
 366 740 366 740 364 732 c 0,83,84
 359 716 359 716 352 703 c 0,85,86
 350 697 350 697 351 695 c 0,87,88
 354 690 354 690 356 689 c 2,89,-1
 359 687 l 1,90,-1
 362 685 l 2,91,92
 386 671 386 671 403 652 c 0,93,94
 412 643 412 643 419.5 632 c 128,-1,95
 427 621 427 621 433 610 c 0,0,1
199 732 m 0,96,97
 205 726 205 726 213 723 c 0,98,99
 217 721 217 721 220.5 720 c 128,-1,100
 224 719 224 719 229 720 c 2,101,-1
 230 720 l 1,102,-1
 231 720 l 1,103,-1
 232 720 l 2,104,105
 237 719 237 719 241 720 c 128,-1,106
 245 721 245 721 248 723 c 0,107,108
 256 726 256 726 262 732 c 0,109,110
 265 736 265 736 267.5 739 c 128,-1,111
 270 742 270 742 272 747 c 0,112,113
 275 754 275 754 275 765 c 0,114,115
 275 774 275 774 272 782 c 256,116,117
 269 790 269 790 262 796 c 0,118,119
 257 802 257 802 248 806 c 0,120,121
 240 809 240 809 231 809 c 256,122,123
 222 809 222 809 213 806 c 0,124,125
 204 802 204 802 199 796 c 0,126,127
 192 789 192 789 190 782 c 0,128,129
 187 774 187 774 187 765 c 0,130,131
 187 754 187 754 190 747 c 0,132,133
 192 742 192 742 194 739 c 128,-1,134
 196 736 196 736 199 732 c 0,96,97
316 363 m 2,135,-1
 316 425 l 1,136,-1
 316 486 l 2,137,138
 316 510 316 510 310 528 c 0,139,140
 306 544 306 544 294 561 c 0,141,142
 283 575 283 575 268 581 c 0,143,144
 253 588 253 588 230 588 c 0,145,146
 208 588 208 588 193 581 c 0,147,148
 178 575 178 575 167 561 c 0,149,150
 155 544 155 544 151 528 c 0,151,152
 145 508 145 508 145 486 c 2,153,-1
 145 425 l 1,154,-1
 145 363 l 2,155,156
 145 359 145 359 148 356 c 256,157,158
 151 353 151 353 155 353 c 2,159,-1
 230 353 l 1,160,-1
 306 353 l 2,161,162
 310 353 310 353 313 356 c 0,163,164
 314 358 314 358 315 359.5 c 128,-1,165
 316 361 316 361 316 363 c 2,135,-1
EndSplineSet
EndChar

StartChar: dagger
Encoding: 8224 8224 161
Width: 580
Flags: W
LayerCount: 2
Fore
SplineSet
255 -165 m 256,0,1
 226 -165 226 -165 205 -144 c 0,2,3
 184 -125 184 -125 184 -94 c 2,4,-1
 184 116 l 1,5,-1
 184 326 l 2,6,7
 184 330 184 330 181 333 c 0,8,9
 179 336 179 336 174 336 c 2,10,-1
 119 336 l 1,11,-1
 63 336 l 2,12,13
 37 336 37 336 18 355 c 0,14,15
 0 373 0 373 0 399 c 256,16,17
 0 425 0 425 18 443 c 0,18,19
 37 462 37 462 63 462 c 2,20,-1
 119 462 l 1,21,-1
 174 462 l 2,22,23
 179 462 179 462 181 465 c 0,24,25
 184 468 184 468 184 472 c 2,26,-1
 184 553 l 1,27,-1
 184 635 l 2,28,29
 184 664 184 664 205 685 c 256,30,31
 226 706 226 706 255 706 c 256,32,33
 284 706 284 706 305 685 c 256,34,35
 326 664 326 664 326 635 c 2,36,-1
 326 553 l 1,37,-1
 326 472 l 2,38,39
 326 469 326 469 328 465 c 0,40,41
 331 462 331 462 336 462 c 2,42,-1
 391 462 l 1,43,-1
 447 462 l 2,44,45
 474 462 474 462 491 443 c 0,46,47
 510 426 510 426 510 399 c 256,48,49
 510 372 510 372 491 355 c 0,50,51
 474 336 474 336 447 336 c 2,52,-1
 391 336 l 1,53,-1
 336 336 l 2,54,55
 331 336 331 336 328 333 c 0,56,57
 326 329 326 329 326 326 c 2,58,-1
 326 116 l 1,59,-1
 326 -94 l 2,60,61
 326 -125 326 -125 305 -144 c 0,62,63
 284 -165 284 -165 255 -165 c 256,0,1
EndSplineSet
EndChar

StartChar: degree
Encoding: 176 176 162
Width: 326
Flags: W
LayerCount: 2
Fore
SplineSet
218 752 m 0,0,1
 236 735 236 735 247 712 c 0,2,3
 256 691 256 691 256 666 c 0,4,5
 256 639 256 639 247 618 c 0,6,7
 236 595 236 595 218 578 c 0,8,9
 200 560 200 560 177 551 c 256,10,11
 154 542 154 542 128 542 c 0,12,13
 101 542 101 542 79 551 c 0,14,15
 56 560 56 560 38 578 c 0,16,17
 19 596 19 596 10 618 c 0,18,19
 0 638 0 638 0 666 c 0,20,21
 0 692 0 692 10 712 c 0,22,23
 19 734 19 734 38 752 c 0,24,25
 56 770 56 770 79 779 c 0,26,27
 101 788 101 788 128 788 c 0,28,29
 154 788 154 788 177 779 c 256,30,31
 200 770 200 770 218 752 c 0,0,1
94 700 m 0,32,33
 91 696 91 696 88.5 692.5 c 128,-1,34
 86 689 86 689 84 685 c 0,35,36
 81 676 81 676 81 666 c 0,37,38
 81 655 81 655 84 646 c 0,39,40
 87 638 87 638 94 631 c 256,41,42
 101 624 101 624 110 621 c 0,43,44
 117 617 117 617 128 617 c 256,45,46
 139 617 139 617 146 621 c 0,47,48
 155 624 155 624 162 631 c 256,49,50
 169 638 169 638 172 646 c 0,51,52
 175 655 175 655 175 666 c 0,53,54
 175 676 175 676 172 685 c 0,55,56
 170 689 170 689 167.5 692.5 c 128,-1,57
 165 696 165 696 162 700 c 0,58,59
 158 703 158 703 154.5 705.5 c 128,-1,60
 151 708 151 708 147 710 c 0,61,62
 138 713 138 713 128 713 c 0,63,64
 117 713 117 713 110 710 c 0,65,66
 101 705 101 705 94 700 c 0,32,33
EndSplineSet
EndChar

StartChar: cent
Encoding: 162 162 163
Width: 505
Flags: W
LayerCount: 2
Fore
SplineSet
410 268 m 0,0,1
 422 259 422 259 428 247 c 128,-1,2
 434 235 434 235 435 222 c 0,3,4
 437 194 437 194 418 169 c 0,5,6
 411 161 411 161 404 153 c 128,-1,7
 397 145 397 145 389 138 c 0,8,9
 381 130 381 130 372 124 c 128,-1,10
 363 118 363 118 353 112 c 0,11,12
 337 103 337 103 318 97 c 0,13,14
 308 94 308 94 298.5 91.5 c 128,-1,15
 289 89 289 89 278 87 c 0,16,17
 276 87 276 87 275 86 c 128,-1,18
 274 85 274 85 272 84 c 0,19,20
 270 80 270 80 270 77 c 2,21,-1
 270 58 l 1,22,-1
 270 38 l 2,23,24
 270 22 270 22 259 11 c 256,25,26
 248 0 248 0 232 0 c 2,27,-1
 230 0 l 1,28,-1
 227 0 l 2,29,30
 211 0 211 0 200 11 c 0,31,32
 195 16 195 16 192 23 c 128,-1,33
 189 30 189 30 189 38 c 2,34,-1
 189 58 l 1,35,-1
 189 77 l 2,36,37
 189 80 189 80 187 84 c 0,38,39
 184 87 184 87 181 87 c 0,40,41
 160 92 160 92 142 97 c 0,42,43
 123 103 123 103 107 112 c 0,44,45
 94 120 94 120 83 128.5 c 128,-1,46
 72 137 72 137 61 147 c 0,47,48
 41 169 41 169 28 193 c 0,49,50
 20 206 20 206 15.5 220 c 128,-1,51
 11 234 11 234 7 249 c 0,52,53
 0 276 0 276 0 311 c 2,54,-1
 0 315 l 1,55,-1
 0 319 l 1,56,-1
 0 353 l 1,57,-1
 0 387 l 1,58,-1
 0 391 l 1,59,-1
 0 395 l 2,60,61
 0 430 0 430 7 457 c 0,62,63
 11 472 11 472 15.5 485.5 c 128,-1,64
 20 499 20 499 28 512 c 0,65,66
 40 537 40 537 61 559 c 0,67,68
 72 569 72 569 83 577.5 c 128,-1,69
 94 586 94 586 107 593 c 0,70,71
 115 598 115 598 124 602 c 128,-1,72
 133 606 133 606 142 609 c 0,73,74
 152 612 152 612 161 614 c 128,-1,75
 170 616 170 616 181 618 c 0,76,77
 185 620 185 620 187 622 c 0,78,79
 189 626 189 626 189 628 c 2,80,-1
 189 648 l 1,81,-1
 189 668 l 2,82,83
 189 676 189 676 192 683 c 128,-1,84
 195 690 195 690 200 695 c 0,85,86
 211 706 211 706 227 706 c 2,87,-1
 230 706 l 1,88,-1
 232 706 l 2,89,90
 248 706 248 706 259 695 c 256,91,92
 270 684 270 684 270 668 c 2,93,-1
 270 648 l 1,94,-1
 270 629 l 2,95,96
 270 626 270 626 272 622 c 0,97,98
 275 619 275 619 278 619 c 0,99,100
 289 617 289 617 298.5 614.5 c 128,-1,101
 308 612 308 612 318 609 c 0,102,103
 327 606 327 606 336 602 c 128,-1,104
 345 598 345 598 353 593 c 0,105,106
 374 582 374 582 389 568 c 0,107,108
 397 561 397 561 404 553 c 128,-1,109
 411 545 411 545 418 537 c 0,110,111
 437 512 437 512 435 484 c 256,112,113
 433 456 433 456 410 438 c 0,114,115
 388 421 388 421 356 424 c 0,116,117
 341 426 341 426 327 432.5 c 128,-1,118
 313 439 313 439 303 452 c 0,119,120
 299 457 299 457 295.5 460.5 c 128,-1,121
 292 464 292 464 288 468 c 0,122,123
 283 472 283 472 279 475.5 c 128,-1,124
 275 479 275 479 270 481 c 0,125,126
 260 488 260 488 251 489 c 0,127,128
 242 492 242 492 230 492 c 0,129,130
 219 492 219 492 209 489 c 0,131,132
 199 488 199 488 189 481 c 0,133,134
 169 469 169 469 159 452 c 0,135,136
 153 443 153 443 149 432.5 c 128,-1,137
 145 422 145 422 145 411 c 2,138,-1
 145 399 l 1,139,-1
 145 387 l 1,140,-1
 145 353 l 1,141,-1
 145 319 l 1,142,-1
 145 307 l 1,143,-1
 145 295 l 2,144,145
 145 284 145 284 149 273.5 c 128,-1,146
 153 263 153 263 159 254 c 0,147,148
 169 237 169 237 189 225 c 0,149,150
 198 219 198 219 209 216 c 0,151,152
 219 213 219 213 230 213 c 0,153,154
 242 213 242 213 251 216 c 0,155,156
 256 218 256 218 260.5 220 c 128,-1,157
 265 222 265 222 270 224 c 0,158,159
 275 227 275 227 279 230.5 c 128,-1,160
 283 234 283 234 288 238 c 0,161,162
 292 242 292 242 295.5 245.5 c 128,-1,163
 299 249 299 249 303 254 c 0,164,165
 313 267 313 267 327 273.5 c 128,-1,166
 341 280 341 280 356 282 c 0,167,168
 388 285 388 285 410 268 c 0,0,1
EndSplineSet
EndChar

StartChar: sterling
Encoding: 163 163 164
Width: 557
Flags: W
LayerCount: 2
Fore
SplineSet
424 126 m 2,0,1
 451 126 451 126 468 107 c 0,2,3
 487 90 487 90 487 63 c 0,4,5
 487 37 487 37 468 18 c 0,6,7
 450 0 450 0 424 0 c 2,8,-1
 250 0 l 1,9,-1
 76 0 l 2,10,11
 48 0 48 0 31 19 c 0,12,13
 12 36 12 36 12 64 c 2,14,-1
 12 66 l 1,15,-1
 12 68 l 2,16,17
 12 86 12 86 21 100 c 0,18,19
 29 114 29 114 46 124 c 0,20,21
 53 128 53 128 57.5 137.5 c 128,-1,22
 62 147 62 147 66 159 c 0,23,24
 69 172 69 172 71.5 186 c 128,-1,25
 74 200 74 200 77 214 c 256,26,27
 80 228 80 228 80.5 238.5 c 128,-1,28
 81 249 81 249 80 257 c 2,29,-1
 80 263 l 2,30,31
 80 266 80 266 78 272 c 0,32,33
 78 277 78 277 75 279 c 0,34,35
 72 282 72 282 68 282 c 2,36,-1
 59 282 l 1,37,-1
 51 282 l 2,38,39
 30 282 30 282 15 297 c 256,40,41
 0 312 0 312 0 333 c 256,42,43
 0 354 0 354 15 369 c 0,44,45
 28 384 28 384 51 384 c 2,46,-1
 59 384 l 1,47,-1
 68 384 l 2,48,49
 72 384 72 384 75 387 c 256,50,51
 78 390 78 390 78 394 c 2,52,-1
 78 457 l 1,53,-1
 78 520 l 2,54,55
 78 549 78 549 84 575 c 0,56,57
 87 588 87 588 92 600 c 128,-1,58
 97 612 97 612 103 623 c 0,59,60
 115 645 115 645 134 663 c 0,61,62
 152 681 152 681 175 694 c 0,63,64
 186 700 186 700 198.5 705 c 128,-1,65
 211 710 211 710 225 713 c 0,66,67
 238 716 238 716 252.5 718 c 128,-1,68
 267 720 267 720 282 720 c 2,69,-1
 283 720 l 1,70,-1
 284 720 l 1,71,-1
 285 720 l 2,72,73
 294 720 294 720 302.5 719.5 c 128,-1,74
 311 719 311 719 319 718 c 0,75,76
 327 716 327 716 335 714.5 c 128,-1,77
 343 713 343 713 351 711 c 256,78,79
 359 709 359 709 365.5 707 c 128,-1,80
 372 705 372 705 379 703 c 0,81,82
 386 700 386 700 392.5 697 c 128,-1,83
 399 694 399 694 405 690 c 0,84,85
 415 685 415 685 423.5 679 c 128,-1,86
 432 673 432 673 440 665 c 0,87,88
 448 658 448 658 455.5 650 c 128,-1,89
 463 642 463 642 470 634 c 0,90,91
 489 609 489 609 486 581 c 0,92,93
 484 553 484 553 462 535 c 0,94,95
 439 518 439 518 407 521 c 0,96,97
 392 523 392 523 378.5 529.5 c 128,-1,98
 365 536 365 536 355 549 c 0,99,100
 348 557 348 557 340.5 565 c 128,-1,101
 333 573 333 573 322 579 c 0,102,103
 300 591 300 591 267 590 c 0,104,105
 262 589 262 589 258 587 c 128,-1,106
 254 585 254 585 250 583 c 0,107,108
 242 578 242 578 236 571 c 0,109,110
 228 561 228 561 223 546 c 0,111,112
 221 539 221 539 220 531 c 128,-1,113
 219 523 219 523 219 515 c 2,114,-1
 219 454 l 1,115,-1
 219 394 l 2,116,117
 219 390 219 390 222 387 c 256,118,119
 225 384 225 384 229 384 c 2,120,-1
 273 384 l 1,121,-1
 317 384 l 2,122,123
 339 384 339 384 353 369 c 0,124,125
 368 354 368 354 368 333 c 256,126,127
 368 312 368 312 353 297 c 256,128,129
 338 282 338 282 317 282 c 2,130,-1
 273 282 l 1,131,-1
 229 282 l 2,132,133
 225 282 225 282 222 279 c 0,134,135
 219 277 219 277 219 272 c 0,136,137
 219 268 219 268 218.5 264 c 128,-1,138
 218 260 218 260 218 256 c 2,139,-1
 218 247 l 2,140,141
 217 236 217 236 216 222 c 128,-1,142
 215 208 215 208 213 195 c 0,143,144
 211 184 211 184 209.5 174.5 c 128,-1,145
 208 165 208 165 206 157 c 0,146,147
 203 143 203 143 201 139 c 0,148,149
 200 135 200 135 202 130 c 0,150,151
 205 126 205 126 211 126 c 2,152,-1
 317 126 l 1,153,-1
 424 126 l 2,0,1
EndSplineSet
EndChar

StartChar: section
Encoding: 167 167 165
Width: 615
Flags: W
LayerCount: 2
Fore
SplineSet
418 259 m 256,0,1
 418 275 418 275 412 287 c 0,2,3
 406 300 406 300 393 309 c 0,4,5
 387 314 387 314 379.5 318 c 128,-1,6
 372 322 372 322 364 325 c 0,7,8
 356 329 356 329 347 332.5 c 128,-1,9
 338 336 338 336 329 340 c 2,10,-1
 284 355 l 1,11,-1
 240 370 l 2,12,13
 234 372 234 372 232 372 c 0,14,15
 228 374 228 374 225 375 c 0,16,17
 210 381 210 381 190 379 c 0,18,19
 173 378 173 378 156 367 c 0,20,21
 154 365 154 365 152 365 c 2,22,-1
 149 362 l 2,23,24
 138 353 138 353 132 340 c 0,25,26
 127 327 127 327 127 314 c 0,27,28
 127 298 127 298 133 286 c 0,29,30
 140 272 140 272 152 264 c 0,31,32
 158 259 158 259 165.5 255.5 c 128,-1,33
 173 252 173 252 181 248 c 256,34,35
 189 244 189 244 198 240.5 c 128,-1,36
 207 237 207 237 216 233 c 2,37,-1
 261 218 l 1,38,-1
 305 203 l 2,39,40
 307 202 307 202 309 202 c 128,-1,41
 311 202 311 202 313 201 c 0,42,43
 317 199 317 199 320 198 c 0,44,45
 335 192 335 192 355 194 c 0,46,47
 374 196 374 196 389 206 c 0,48,49
 391 208 391 208 393 209 c 0,50,51
 394 210 394 210 394.5 210 c 128,-1,52
 395 210 395 210 396 211 c 0,53,54
 407 220 407 220 413 233 c 0,55,56
 418 243 418 243 418 259 c 256,0,1
545 268 m 0,57,58
 545 220 545 220 522 183 c 0,59,60
 497 145 497 145 454 125 c 0,61,62
 452 123 452 123 452 121 c 0,63,64
 450 119 450 119 453 117 c 0,65,66
 468 97 468 97 477 74 c 0,67,68
 484 53 484 53 484 23 c 0,69,70
 484 -11 484 -11 470 -42 c 0,71,72
 457 -72 457 -72 429 -97 c 0,73,74
 422 -103 422 -103 415 -108.5 c 128,-1,75
 408 -114 408 -114 400 -119 c 256,76,77
 392 -124 392 -124 383 -127.5 c 128,-1,78
 374 -131 374 -131 365 -135 c 0,79,80
 355 -138 355 -138 345.5 -140.5 c 128,-1,81
 336 -143 336 -143 325 -145 c 256,82,83
 314 -147 314 -147 303 -148 c 128,-1,84
 292 -149 292 -149 281 -149 c 0,85,86
 227 -149 227 -149 181 -133 c 0,87,88
 136 -118 136 -118 110 -90 c 0,89,90
 96 -75 96 -75 93 -57 c 128,-1,91
 90 -39 90 -39 97 -22 c 256,92,93
 104 -5 104 -5 119 6 c 128,-1,94
 134 17 134 17 154 17 c 2,95,-1
 155 17 l 2,96,97
 170 17 170 17 182 11 c 256,98,99
 194 5 194 5 204 -5 c 0,100,101
 214 -18 214 -18 236 -26 c 0,102,103
 247 -29 247 -29 259 -31 c 128,-1,104
 271 -33 271 -33 285 -33 c 0,105,106
 302 -33 302 -33 315 -28.5 c 128,-1,107
 328 -24 328 -24 337 -16 c 0,108,109
 355 -1 355 -1 355 19 c 256,110,111
 355 39 355 39 336 55 c 0,112,113
 315 72 315 72 273 86 c 2,114,-1
 228 102 l 1,115,-1
 183 117 l 2,116,117
 158 126 158 126 137.5 134.5 c 128,-1,118
 117 143 117 143 100 153 c 0,119,120
 66 171 66 171 45 193 c 0,121,122
 23 215 23 215 11 243 c 0,123,124
 0 273 0 273 0 305 c 0,125,126
 0 353 0 353 23 390 c 0,127,128
 48 428 48 428 91 448 c 0,129,130
 93 450 93 450 93 452 c 0,131,132
 94 453 94 453 92 456 c 0,133,134
 77 476 77 476 68 499 c 0,135,136
 61 520 61 520 61 550 c 0,137,138
 61 583 61 583 75 616 c 0,139,140
 88 645 88 645 116 670 c 0,141,142
 123 676 123 676 130 681.5 c 128,-1,143
 137 687 137 687 145 692 c 256,144,145
 153 697 153 697 162 700.5 c 128,-1,146
 171 704 171 704 180 708 c 0,147,148
 190 711 190 711 199.5 713.5 c 128,-1,149
 209 716 209 716 220 718 c 0,150,151
 239 722 239 722 264 722 c 0,152,153
 318 722 318 722 364 706 c 0,154,155
 409 691 409 691 435 663 c 0,156,157
 449 648 449 648 452 630 c 128,-1,158
 455 612 455 612 448 595 c 256,159,160
 441 578 441 578 426 567.5 c 128,-1,161
 411 557 411 557 391 556 c 2,162,-1
 390 556 l 2,163,164
 376 556 376 556 363 562 c 0,165,166
 353 567 353 567 341 579 c 0,167,168
 330 591 330 591 309 599 c 0,169,170
 298 602 298 602 286 604 c 128,-1,171
 274 606 274 606 260 606 c 0,172,173
 228 606 228 606 208 589 c 0,174,175
 190 575 190 575 190 554 c 0,176,177
 190 534 190 534 209 518 c 0,178,179
 230 501 230 501 272 487 c 2,180,-1
 317 472 l 1,181,-1
 362 456 l 2,182,183
 409 440 409 440 445 420 c 0,184,185
 479 402 479 402 500 380 c 0,186,187
 511 369 511 369 520 356.5 c 128,-1,188
 529 344 529 344 534 330 c 0,189,190
 545 300 545 300 545 268 c 0,57,58
EndSplineSet
EndChar

StartChar: bullet
Encoding: 8226 8226 166
Width: 460
Flags: W
LayerCount: 2
Fore
SplineSet
364 441 m 0,0,1
 370 430 370 430 375 418.5 c 128,-1,2
 380 407 380 407 384 394 c 0,3,4
 390 370 390 370 390 343 c 0,5,6
 390 317 390 317 384 293 c 0,7,8
 380 280 380 280 375 268.5 c 128,-1,9
 370 257 370 257 364 246 c 0,10,11
 357 235 357 235 349 225 c 128,-1,12
 341 215 341 215 332 206 c 0,13,14
 314 188 314 188 292 175 c 0,15,16
 268 160 268 160 246 155 c 0,17,18
 222 148 222 148 195 148 c 0,19,20
 167 148 167 148 145 155 c 0,21,22
 132 158 132 158 120.5 163 c 128,-1,23
 109 168 109 168 98 175 c 0,24,25
 87 181 87 181 76.5 189 c 128,-1,26
 66 197 66 197 57 206 c 0,27,28
 39 223 39 223 26 246 c 0,29,30
 13 268 13 268 7 293 c 0,31,32
 0 315 0 315 0 343 c 0,33,34
 0 372 0 372 7 394 c 0,35,36
 13 419 13 419 26 441 c 256,37,38
 39 463 39 463 57 481 c 0,39,40
 74 498 74 498 97 512 c 0,41,42
 108 519 108 519 120 523.5 c 128,-1,43
 132 528 132 528 144 532 c 0,44,45
 168 538 168 538 195 538 c 0,46,47
 220 538 220 538 246 532 c 0,48,49
 258 528 258 528 269.5 523.5 c 128,-1,50
 281 519 281 519 292 512 c 0,51,52
 314 498 314 498 332 481 c 0,53,54
 341 472 341 472 349 462 c 128,-1,55
 357 452 357 452 364 441 c 0,0,1
EndSplineSet
EndChar

StartChar: registered
Encoding: 174 174 169
Width: 503
Flags: W
LayerCount: 2
Fore
SplineSet
0 496 m 256,0,1
 0 543 0 543 16.5 582.5 c 128,-1,2
 33 622 33 622 62 651 c 256,3,4
 91 680 91 680 130.5 696.5 c 128,-1,5
 170 713 170 713 217 713 c 0,6,7
 263 713 263 713 302.5 696.5 c 128,-1,8
 342 680 342 680 371 651 c 256,9,10
 400 622 400 622 416.5 582.5 c 128,-1,11
 433 543 433 543 433 496 c 256,12,13
 433 449 433 449 416.5 409.5 c 128,-1,14
 400 370 400 370 371 341 c 256,15,16
 342 312 342 312 302.5 295.5 c 128,-1,17
 263 279 263 279 217 279 c 0,18,19
 170 279 170 279 130.5 295.5 c 128,-1,20
 91 312 91 312 62 341 c 256,21,22
 33 370 33 370 16.5 409.5 c 128,-1,23
 0 449 0 449 0 496 c 256,0,1
384 496 m 256,24,25
 384 533 384 533 372 564.5 c 128,-1,26
 360 596 360 596 337 619 c 256,27,28
 314 642 314 642 284 655 c 128,-1,29
 254 668 254 668 217 668 c 0,30,31
 179 668 179 668 148.5 655 c 128,-1,32
 118 642 118 642 96 619 c 0,33,34
 73 596 73 596 61 564.5 c 128,-1,35
 49 533 49 533 49 496 c 256,36,37
 49 459 49 459 61 427.5 c 128,-1,38
 73 396 73 396 96 373 c 0,39,40
 118 350 118 350 148.5 336.5 c 128,-1,41
 179 323 179 323 217 323 c 0,42,43
 254 323 254 323 284 336.5 c 128,-1,44
 314 350 314 350 337 373 c 256,45,46
 360 396 360 396 372 427.5 c 128,-1,47
 384 459 384 459 384 496 c 256,24,25
132 592 m 2,48,49
 132 604 132 604 141 613 c 256,50,51
 150 622 150 622 163 622 c 2,52,-1
 199 622 l 1,53,-1
 235 622 l 2,54,55
 270 622 270 622 292 600 c 256,56,57
 314 578 314 578 314 545 c 0,58,59
 314 534 314 534 310.5 523 c 128,-1,60
 307 512 307 512 302 503 c 0,61,62
 291 484 291 484 271 475 c 0,63,64
 269 473 269 473 269 472 c 2,65,-1
 269 468 l 1,66,-1
 285 441 l 1,67,-1
 302 415 l 2,68,69
 308 402 308 402 302 391 c 0,70,71
 295 378 295 378 281 378 c 0,72,73
 274 378 274 378 269 382 c 0,74,75
 263 386 263 386 261 390 c 2,76,-1
 239 426 l 1,77,-1
 218 463 l 2,78,79
 217 464 217 464 216 464.5 c 128,-1,80
 215 465 215 465 214 466 c 0,81,82
 210 468 210 468 209 468 c 2,83,-1
 199 468 l 1,84,-1
 189 468 l 2,85,86
 187 468 187 468 185 466 c 256,87,88
 183 464 183 464 183 462 c 2,89,-1
 183 433 l 1,90,-1
 183 404 l 2,91,92
 183 393 183 393 176 386 c 0,93,94
 168 378 168 378 158 378 c 0,95,96
 146 378 146 378 140 386 c 0,97,98
 132 392 132 392 132 404 c 2,99,-1
 132 498 l 1,100,-1
 132 592 l 2,48,49
226 511 m 2,101,102
 245 511 245 511 254 520 c 256,103,104
 263 529 263 529 263 544 c 0,105,106
 263 558 263 558 254 567 c 256,107,108
 245 576 245 576 226 576 c 2,109,-1
 208 576 l 1,110,-1
 189 576 l 2,111,112
 186 576 186 576 185 575 c 0,113,114
 183 571 183 571 183 570 c 2,115,-1
 183 544 l 1,116,-1
 183 517 l 2,117,118
 183 516 183 516 185 512 c 0,119,120
 186 511 186 511 189 511 c 2,121,-1
 208 511 l 1,122,-1
 226 511 l 2,101,102
EndSplineSet
EndChar

